<?xml version="1.0" standalone="no"?>
<!DOCTYPE svg PUBLIC "-//W3C//DTD SVG 20010904//EN"
 "http://www.w3.org/TR/2001/REC-SVG-20010904/DTD/svg10.dtd">
<svg version="1.0" xmlns="http://www.w3.org/2000/svg"
 width="988.000000pt" height="988.000000pt" viewBox="0 0 988.000000 988.000000"
 preserveAspectRatio="xMidYMid meet">
<metadata>
Created by potrace 1.11, written by Peter Selinger 2001-2013
</metadata>
<g transform="translate(0.000000,988.000000) scale(0.100000,-0.100000)"
fill="#000000" stroke="none">
<path d="M5385 7979 c2 -3 -10 -6 -28 -7 -42 -1 -56 -5 -94 -25 -18 -10 -33
-14 -33 -11 0 4 -8 -3 -19 -14 -10 -12 -21 -19 -24 -15 -4 3 -9 -2 -13 -11 -3
-9 -12 -16 -20 -16 -8 0 -14 -4 -14 -10 0 -5 -11 -21 -25 -35 -14 -14 -21 -25
-14 -25 7 0 0 -11 -15 -25 -22 -20 -25 -28 -16 -44 7 -14 7 -22 -2 -27 -6 -4
-8 -3 -4 4 3 6 2 13 -3 16 -5 3 -11 -5 -13 -19 -4 -16 -1 -22 6 -18 6 4 4 -1
-4 -11 -8 -10 -15 -23 -16 -30 -2 -6 -5 -22 -8 -35 -3 -14 0 -31 6 -38 7 -9 8
-13 1 -11 -6 2 -11 -1 -11 -7 0 -5 4 -9 10 -7 5 1 7 -2 3 -7 -3 -6 -12 -8 -20
-5 -9 4 -12 -1 -11 -13 2 -10 -1 -26 -6 -37 -7 -12 -7 -16 0 -12 5 3 12 -1 15
-9 4 -9 1 -12 -9 -8 -7 3 -14 0 -14 -6 0 -6 5 -11 11 -11 6 0 3 -7 -6 -16 -18
-19 -14 -41 6 -36 8 2 10 0 6 -5 -5 -4 -14 -8 -20 -8 -5 0 -12 -6 -15 -14 -3
-9 0 -11 8 -6 7 4 4 -4 -5 -18 -9 -15 -14 -30 -11 -36 3 -5 0 -12 -6 -14 -7
-3 -4 -6 6 -6 20 -1 20 -1 0 -16 -16 -13 -17 -16 -4 -25 13 -8 12 -10 -3 -10
-15 0 -16 -3 -6 -21 6 -12 7 -19 1 -15 -13 8 -20 -12 -16 -47 1 -15 -1 -25 -6
-22 -9 6 -6 -28 5 -44 3 -5 0 -13 -6 -17 -7 -4 -9 -3 -5 4 3 6 3 13 -2 16 -4
2 -9 -7 -10 -20 -1 -17 2 -23 11 -19 6 4 4 0 -5 -8 -16 -12 -16 -15 -2 -29 12
-12 13 -17 3 -23 -7 -5 -10 -4 -5 3 3 6 2 13 -3 16 -5 3 -11 -3 -14 -14 -3
-11 0 -20 6 -20 8 0 8 -3 2 -8 -13 -9 -36 -74 -24 -66 13 8 11 -10 -3 -24 -10
-10 -10 -15 2 -22 13 -8 12 -10 -3 -10 -14 0 -17 -5 -12 -20 4 -12 2 -20 -5
-20 -8 0 -8 -6 1 -21 9 -17 8 -20 -2 -14 -9 6 -11 3 -6 -8 3 -10 2 -17 -3 -17
-6 0 -10 -5 -10 -11 0 -5 4 -8 9 -4 5 3 13 0 17 -6 4 -7 3 -9 -3 -6 -16 10
-31 -14 -29 -45 1 -16 -2 -28 -7 -28 -4 0 -5 -5 -2 -10 4 -6 11 -7 17 -4 7 4
8 2 4 -5 -4 -6 -11 -9 -16 -6 -4 3 -10 -2 -14 -10 -3 -8 -1 -17 3 -19 7 -5 8
-26 2 -58 0 -5 -6 -8 -13 -8 -9 0 -9 3 0 12 15 15 15 28 1 28 -5 0 -8 -4 -4
-9 3 -5 0 -13 -5 -16 -8 -5 -5 -14 7 -27 11 -13 13 -18 4 -16 -7 2 -16 -3 -19
-11 -2 -8 0 -11 5 -8 5 3 9 -3 10 -13 1 -11 -2 -22 -8 -25 -5 -3 -6 2 -3 12 5
17 5 17 -6 1 -8 -13 -8 -24 1 -40 11 -21 11 -22 -5 -9 -15 12 -17 12 -14 0 2
-8 7 -17 13 -21 5 -4 2 -10 -8 -14 -9 -3 -17 -10 -17 -16 0 -5 4 -7 9 -3 5 3
13 0 17 -6 4 -8 3 -9 -4 -5 -6 3 -16 -3 -22 -14 -8 -15 -8 -20 2 -20 9 0 9 -3
2 -8 -17 -12 -23 -39 -11 -51 7 -7 8 -12 2 -11 -23 5 -28 -1 -10 -13 14 -11
15 -16 5 -22 -9 -6 -11 -4 -5 5 5 9 4 11 -4 6 -9 -6 -9 -11 0 -22 10 -12 9
-13 -7 -7 -17 6 -17 5 -5 -10 9 -11 10 -17 2 -17 -6 0 -11 -5 -11 -11 0 -5 5
-7 10 -4 6 3 10 2 10 -3 0 -6 -7 -13 -16 -16 -14 -5 -14 -9 -3 -23 10 -12 10
-14 2 -9 -9 5 -13 0 -13 -13 0 -12 1 -22 2 -23 1 -2 -4 -13 -11 -26 -10 -18
-10 -26 0 -38 6 -8 9 -17 5 -21 -3 -3 -6 -1 -6 5 0 19 -16 14 -17 -5 -4 -48
-15 -109 -24 -125 -8 -14 -6 -18 8 -19 16 0 16 -1 -2 -9 -13 -6 -15 -9 -5 -9
13 -1 13 -2 0 -11 -17 -11 -20 -28 -8 -52 7 -14 5 -16 -9 -11 -16 6 -17 5 -3
-12 8 -10 10 -16 4 -12 -7 4 -15 0 -18 -9 -3 -8 -2 -12 3 -9 5 3 12 1 16 -5 3
-5 0 -10 -7 -10 -8 0 -14 -8 -15 -17 0 -10 -4 -29 -7 -42 -3 -14 0 -31 7 -40
10 -12 9 -14 -5 -8 -14 5 -18 1 -19 -16 0 -12 -3 -33 -6 -47 -2 -14 -5 -29 -7
-35 -1 -5 -5 -16 -9 -22 -5 -7 -6 -13 -3 -13 3 0 1 -11 -4 -24 -5 -15 -5 -27
3 -35 8 -8 8 -11 -2 -11 -8 0 -11 -7 -8 -20 3 -11 1 -20 -4 -20 -5 0 -9 -5 -9
-11 0 -5 6 -7 13 -3 6 4 4 -2 -6 -14 -11 -11 -16 -25 -13 -31 3 -5 0 -12 -6
-14 -7 -3 -4 -6 7 -7 18 -1 19 -1 3 -11 -10 -5 -18 -15 -18 -20 0 -6 4 -8 8
-5 5 3 9 -1 9 -8 0 -8 -6 -12 -12 -10 -6 3 -12 -2 -12 -11 0 -8 5 -15 11 -15
5 0 1 -7 -10 -15 -16 -13 -17 -16 -4 -25 13 -9 13 -12 -2 -23 -16 -13 -16 -15
0 -32 9 -10 12 -15 7 -12 -6 3 -17 2 -25 -4 -13 -7 -13 -9 0 -9 13 0 13 -2 1
-9 -12 -8 -13 -12 -1 -25 7 -9 10 -19 6 -23 -3 -3 -6 -1 -6 5 0 24 -15 11 -16
-13 -1 -14 2 -23 6 -20 5 3 12 1 15 -5 4 -6 3 -10 -2 -9 -27 5 -35 -1 -23 -16
10 -12 9 -16 -4 -21 -14 -5 -14 -9 -4 -22 8 -9 8 -13 2 -9 -8 4 -14 -6 -18
-29 -4 -19 -10 -43 -13 -52 -4 -15 -3 -15 6 -2 7 9 11 10 11 3 0 -6 -4 -14 -9
-17 -15 -10 -22 -68 -10 -83 10 -11 8 -12 -7 -6 -17 6 -17 5 -5 -10 8 -10 11
-20 7 -24 -3 -3 -6 -1 -6 5 0 7 -4 12 -8 12 -11 0 -9 -41 2 -59 6 -9 5 -12 -1
-8 -16 10 -24 -18 -10 -33 9 -9 9 -11 1 -7 -7 4 -15 0 -18 -9 -4 -10 -2 -13 7
-8 9 5 9 4 0 -7 -7 -7 -13 -17 -13 -22 0 -4 6 -5 13 -2 6 4 3 -1 -7 -9 -11 -9
-17 -16 -13 -16 4 0 3 -9 -3 -19 -8 -16 -6 -22 7 -31 17 -11 17 -11 1 -6 -14
4 -18 0 -18 -17 0 -12 -4 -29 -10 -37 -6 -9 -5 -17 3 -22 9 -6 9 -10 1 -15 -6
-5 -14 -19 -18 -33 -7 -24 -6 -24 8 -6 9 11 16 15 16 9 0 -5 -9 -18 -20 -28
-15 -14 -17 -22 -9 -37 8 -15 8 -19 0 -14 -11 7 -13 -3 -14 -51 0 -13 -5 -23
-11 -23 -6 0 -4 -5 4 -10 8 -5 10 -10 4 -10 -17 0 -24 -36 -10 -51 8 -9 8 -10
0 -6 -17 10 -29 -44 -12 -54 10 -7 8 -9 -5 -9 -12 0 -17 -7 -16 -17 1 -10 -1
-25 -4 -33 -12 -33 -14 -69 -3 -64 6 3 3 -1 -7 -9 -13 -11 -15 -16 -5 -20 10
-4 11 -7 1 -18 -7 -7 -13 -17 -13 -22 0 -4 6 -5 13 -2 6 4 4 0 -5 -8 -14 -11
-15 -16 -5 -27 8 -8 8 -11 1 -7 -17 9 -25 -18 -11 -33 9 -10 9 -11 0 -6 -7 4
-13 2 -13 -3 0 -6 5 -11 12 -11 6 0 3 -6 -7 -14 -11 -8 -16 -20 -12 -29 3 -9
1 -18 -6 -21 -9 -3 -8 -8 3 -15 13 -10 13 -13 -2 -24 -12 -10 -14 -17 -6 -31
7 -13 7 -17 0 -12 -5 3 -13 -1 -16 -10 -5 -12 -2 -15 11 -10 16 5 16 5 2 -7
-17 -13 -38 -63 -22 -54 5 4 10 0 10 -8 0 -8 -4 -12 -8 -10 -13 9 -19 -28 -7
-43 10 -12 10 -14 1 -8 -8 4 -13 1 -13 -8 0 -25 -1 -30 -10 -41 -4 -5 -7 -26
-6 -47 0 -20 -2 -34 -5 -32 -4 2 -9 -5 -12 -16 -3 -13 -1 -18 6 -14 8 5 7 2 0
-7 -7 -7 -13 -17 -13 -22 0 -4 6 -5 13 -2 6 4 5 1 -4 -7 -9 -7 -15 -21 -13
-30 1 -10 -2 -20 -7 -24 -5 -3 -9 -12 -9 -20 0 -10 5 -12 13 -8 9 6 9 4 -1 -8
-20 -25 -33 -78 -19 -78 9 0 9 -2 0 -8 -6 -4 -14 -19 -16 -32 -3 -14 -8 -43
-12 -65 -4 -22 -13 -46 -19 -54 -8 -11 -8 -13 2 -7 6 4 12 3 12 -3 0 -5 -5
-13 -11 -17 -6 -3 -9 -19 -7 -35 3 -15 1 -26 -3 -24 -4 3 -9 -2 -13 -10 -3 -8
-1 -17 4 -20 6 -4 10 -11 10 -16 0 -6 -4 -7 -10 -4 -9 5 -15 -24 -11 -49 1 -4
-4 -14 -10 -22 -9 -11 -8 -14 2 -14 10 0 10 -3 3 -8 -18 -11 -28 -72 -12 -73
7 0 4 -4 -7 -9 -13 -6 -15 -9 -5 -9 12 -1 12 -3 2 -10 -8 -5 -15 -20 -15 -35
-1 -14 -6 -26 -12 -26 -5 0 -4 -4 4 -9 9 -6 10 -11 2 -15 -6 -4 -11 -18 -11
-32 0 -14 -5 -35 -11 -46 -7 -13 -7 -18 -1 -14 6 3 14 2 17 -4 4 -6 1 -9 -7
-8 -7 2 -12 -3 -11 -9 2 -7 -1 -13 -5 -13 -5 0 -8 -10 -7 -22 1 -13 -3 -26 -9
-30 -8 -5 -7 -8 2 -8 6 0 12 -5 12 -11 0 -5 -5 -7 -11 -3 -7 4 -7 -1 1 -16 7
-12 7 -20 2 -16 -15 9 -3 -92 16 -134 8 -19 22 -44 31 -54 13 -16 13 -18 1
-11 -13 8 -12 5 1 -15 9 -14 27 -31 40 -37 13 -7 18 -13 11 -13 -8 0 -4 -9 10
-24 13 -13 26 -22 29 -20 4 2 9 -3 13 -11 3 -8 12 -15 21 -15 8 0 15 -4 15
-10 0 -5 6 -10 13 -10 8 0 28 -7 45 -16 17 -8 44 -18 59 -20 40 -8 153 -10
153 -4 0 3 12 7 27 8 36 3 150 59 157 78 3 8 10 12 16 9 5 -3 10 -1 10 5 0 6
11 21 25 34 17 16 21 26 14 33 -8 8 -6 11 7 10 13 -2 19 4 18 19 0 16 4 20 14
16 10 -3 13 -1 8 6 -4 6 0 22 9 35 8 13 12 27 9 30 -4 4 -1 13 6 22 10 12 10
15 -1 15 -9 0 -10 3 -3 8 15 10 35 94 20 85 -6 -3 -6 -1 2 8 6 7 12 17 12 22
0 4 -6 5 -12 2 -7 -4 -5 0 5 8 12 10 15 17 7 22 -8 5 -7 12 3 23 19 21 24 53
13 71 -6 9 -5 12 2 7 10 -6 14 7 27 73 3 15 -2 29 -13 37 -15 12 -14 12 8 8
20 -5 22 -3 10 5 -13 9 -13 11 -1 11 11 0 9 4 -5 15 -19 14 -19 14 1 9 16 -4
20 0 21 21 1 18 -2 23 -10 18 -7 -4 -4 -1 6 8 16 16 16 17 -5 28 -22 11 -22
11 2 5 13 -3 21 -2 18 3 -3 5 -2 15 3 23 5 9 5 19 -1 26 -7 8 -6 15 2 20 8 5
9 3 4 -6 -5 -9 -4 -11 4 -6 9 6 9 11 -1 24 -10 12 -10 14 0 8 6 -4 12 -3 12 3
0 5 -6 12 -12 14 -8 3 -6 6 5 6 20 1 22 12 5 30 -8 9 -8 11 -2 8 17 -10 26 23
12 41 -8 9 -8 13 -2 9 7 -4 14 2 17 14 4 16 3 18 -9 8 -20 -16 -17 -6 5 20 12
13 18 35 17 55 -1 19 2 32 6 30 13 -8 9 11 -4 25 -7 7 -8 11 -3 9 6 -2 10 2
10 7 0 6 -4 9 -8 7 -5 -1 -6 2 -2 8 3 6 10 8 15 5 5 -3 11 -1 15 5 3 5 -2 10
-12 10 -14 0 -15 2 -4 9 8 5 11 16 8 24 -4 10 -1 14 7 11 7 -3 12 4 12 20 0
14 -4 22 -8 20 -4 -3 -8 0 -8 5 0 6 7 11 15 11 8 0 15 5 15 11 0 5 -4 8 -9 4
-5 -3 -13 0 -17 6 -4 8 -3 9 4 5 6 -3 16 3 22 14 9 17 8 20 -7 20 -17 1 -17 1
0 11 9 5 17 20 17 32 0 13 6 29 13 36 10 11 9 13 -5 8 -10 -3 -20 -1 -24 5 -4
6 -3 8 3 5 6 -4 17 0 24 9 10 13 10 17 -2 25 -11 7 -10 9 5 9 14 0 16 3 8 13
-7 8 -6 18 4 31 17 24 18 40 2 30 -9 -5 -9 -3 1 9 7 9 11 28 9 42 -3 14 -1 28
5 32 6 3 7 1 3 -5 -4 -7 -2 -12 3 -12 6 0 11 7 11 15 0 8 -6 15 -12 15 -10 0
-9 3 1 9 11 7 11 9 0 14 -9 4 -8 6 5 6 15 1 16 3 6 16 -10 13 -11 18 -1 28 10
9 11 8 5 -8 -4 -11 -4 -17 0 -14 4 4 9 19 12 35 2 16 6 39 9 52 3 14 1 22 -7
22 -8 0 -6 5 5 11 19 11 24 44 5 34 -7 -4 -5 0 6 9 10 8 15 20 11 26 -4 6 -1
17 5 25 10 12 10 18 1 29 -9 11 -9 16 0 22 8 5 9 3 4 -6 -5 -9 -4 -11 4 -6 9
6 9 11 -1 24 -10 12 -10 14 0 8 7 -4 12 -2 13 6 0 7 2 21 4 31 2 11 -1 15 -8
10 -7 -4 -7 -1 1 9 7 9 15 29 18 44 5 25 4 26 -13 13 -16 -12 -17 -12 -6 2 7
9 10 19 6 23 -4 4 -1 4 8 1 10 -4 15 1 16 15 1 13 -3 18 -10 14 -7 -3 -4 1 6
9 22 18 22 28 0 20 -11 -4 -14 -3 -9 5 4 7 14 12 23 12 11 0 9 5 -8 18 -17 15
-19 21 -9 27 8 5 11 4 6 -3 -3 -6 -2 -13 3 -16 16 -10 24 14 10 30 -9 12 -10
17 0 27 10 9 11 8 6 -5 -4 -10 -3 -18 2 -18 15 0 12 33 -6 55 -15 18 -15 19 1
7 14 -11 17 -10 24 10 12 34 12 40 -3 73 -12 26 -12 28 0 13 18 -23 23 -23 23
1 0 11 -4 17 -8 15 -4 -2 -5 6 -2 18 3 13 6 28 6 35 1 7 5 10 10 7 5 -3 5 -11
2 -17 -4 -7 -4 -9 1 -5 4 4 9 22 11 40 2 18 6 43 8 56 3 12 1 20 -3 18 -4 -3
-8 1 -8 8 0 9 7 12 16 8 14 -5 14 -4 1 13 -9 11 -10 16 -2 11 6 -4 12 -4 13 1
5 40 8 62 13 83 3 14 8 36 12 50 3 14 7 32 8 40 2 8 -1 23 -5 32 -6 11 -5 19
3 24 6 4 8 3 4 -4 -3 -6 -2 -13 3 -17 6 -3 8 4 6 16 -3 13 -10 26 -16 29 -7 5
-5 9 6 13 9 4 13 3 10 -3 -3 -6 -2 -10 4 -10 5 0 9 9 8 19 0 11 -6 17 -12 13
-5 -3 -3 2 5 12 8 10 15 28 16 40 1 11 5 29 9 39 4 10 3 17 -5 17 -6 0 -8 -5
-4 -12 5 -7 3 -8 -6 -3 -10 6 -9 11 5 22 23 16 28 42 13 61 -9 10 -8 12 2 10
7 -2 15 3 18 11 2 8 0 11 -5 8 -5 -3 -10 0 -10 8 0 8 4 12 8 10 4 -3 10 2 13
11 4 10 2 13 -7 9 -6 -4 -3 1 7 9 18 15 15 20 -9 17 -5 -1 -2 5 8 12 20 16 23
32 5 21 -10 -6 -10 -4 0 7 6 7 12 21 12 31 0 10 5 18 12 18 6 0 8 3 5 6 -4 4
-15 1 -24 -7 -10 -7 -7 -1 6 14 14 15 21 30 18 34 -4 3 -7 0 -7 -7 0 -7 -3
-10 -6 -7 -4 4 -1 13 6 22 7 8 14 23 15 33 1 9 5 25 10 36 4 10 4 21 -1 25 -5
3 -10 12 -12 20 -3 12 -1 12 15 1 10 -8 15 -11 11 -6 -4 5 -2 18 4 30 10 19
10 20 -5 7 -21 -17 -22 -8 -1 13 11 11 12 16 3 16 -7 0 -5 7 7 16 10 8 13 13
7 9 -7 -3 -13 -1 -13 4 0 6 5 11 11 11 6 0 7 5 2 13 -11 18 -13 38 -2 31 5 -3
6 -11 3 -17 -4 -7 -3 -9 1 -4 5 4 10 15 11 25 1 9 5 29 8 45 4 18 2 27 -6 27
-8 0 -6 5 5 11 9 5 17 15 17 21 0 6 -7 5 -17 -3 -16 -12 -17 -12 -6 2 7 9 10
18 7 21 -3 3 0 9 7 14 8 5 10 3 4 -7 -5 -8 -4 -11 0 -6 5 4 10 18 12 30 2 17
1 19 -7 7 -7 -12 -9 -11 -8 7 1 11 7 19 13 16 7 -2 12 3 12 11 0 8 -4 13 -9
10 -14 -9 -9 7 8 23 10 10 13 25 10 39 -4 13 -3 24 2 24 5 0 9 6 10 13 0 6 3
26 6 42 3 17 3 24 0 18 -3 -7 -10 -13 -16 -13 -6 0 -6 6 2 15 10 12 10 18 -1
33 -11 14 -10 13 9 -2 23 -20 31 -10 10 13 -10 11 -10 13 0 7 6 -4 12 -4 13 1
0 4 2 16 4 25 2 9 -2 15 -8 14 -7 -2 -9 -1 -4 1 4 3 5 9 2 14 -4 5 0 6 7 4 9
-4 14 3 15 16 2 17 -1 19 -10 10 -6 -6 -15 -11 -20 -11 -4 0 4 10 18 23 17 14
28 35 30 57 2 19 6 44 8 55 2 11 0 29 -6 40 -9 17 -8 18 5 7 13 -10 15 -7 12
23 -1 23 1 33 8 29 7 -4 8 -2 4 5 -4 6 -2 18 4 26 7 8 9 15 5 15 -4 0 -14 -8
-22 -17 -13 -16 -13 -16 -3 5 6 12 16 22 23 22 7 0 6 4 -3 10 -13 9 -13 10 0
10 13 0 13 2 0 9 -8 6 -18 7 -24 4 -5 -3 -6 -1 -3 5 4 5 17 8 29 4 16 -4 19
-2 12 9 -13 21 -14 38 -2 46 7 4 8 1 3 -7 -5 -9 -4 -11 4 -6 9 6 9 11 -1 24
-10 12 -10 14 0 8 6 -4 12 -3 12 2 0 17 -13 22 -29 9 -14 -11 -14 -10 -2 6 8
10 20 16 28 13 8 -3 11 -1 8 4 -3 6 -1 10 5 10 6 0 8 5 5 10 -4 6 -12 7 -18 3
-7 -3 -4 2 5 13 19 22 36 100 20 90 -6 -4 -6 9 0 34 6 22 14 37 19 34 5 -3 6
1 3 9 -3 8 0 18 5 22 6 3 8 12 4 18 -11 18 -12 38 -2 31 5 -3 6 -11 3 -17 -4
-7 -3 -9 1 -4 11 10 14 48 3 41 -15 -9 -8 23 7 36 10 8 13 21 9 33 -3 11 -2
17 3 14 5 -4 10 1 10 9 0 9 -6 13 -14 10 -8 -3 -11 -1 -8 4 3 6 14 10 23 10
15 0 15 2 2 10 -11 7 -12 10 -2 10 10 0 10 4 -2 16 -20 20 -21 30 -1 14 10 -9
15 -9 16 -1 1 6 2 17 4 24 1 6 -5 23 -13 37 -10 18 -11 21 -1 13 7 -7 16 -13
20 -13 9 0 5 27 -6 37 -4 4 -5 2 0 -6 5 -10 4 -12 -4 -7 -15 10 -4 27 13 20
18 -7 15 34 -3 45 -11 7 -9 10 9 16 17 6 19 9 9 16 -12 7 -12 10 0 21 11 11
13 11 6 -1 -5 -9 -4 -12 3 -8 12 8 11 25 -2 46 -6 9 -5 12 1 8 6 -4 14 0 17 9
4 11 2 15 -8 11 -10 -4 -13 -1 -9 9 3 8 -1 22 -8 31 -13 15 -12 15 8 3 12 -8
19 -19 16 -25 -4 -5 -2 -6 3 -2 10 10 13 67 2 61 -4 -3 -5 2 -2 10 3 9 10 13
15 10 5 -3 9 0 9 5 0 6 -6 11 -12 11 -10 0 -10 2 0 9 7 4 15 17 17 27 2 10 4
19 6 19 1 0 3 10 4 23 1 12 -3 22 -9 22 -6 0 -6 4 2 9 7 4 15 17 17 27 2 10 4
19 5 19 1 0 3 8 5 18 2 9 -1 15 -6 11 -5 -3 -9 0 -9 5 0 6 5 11 10 11 6 0 10
5 10 11 0 5 -6 7 -12 3 -9 -5 -9 -3 1 9 7 9 18 14 24 10 6 -3 7 -1 3 6 -4 6
-11 9 -15 7 -3 -3 -7 4 -7 15 0 12 5 18 14 14 8 -3 5 7 -8 25 -16 23 -17 28
-6 24 9 -3 16 -11 16 -17 0 -6 3 -7 7 -4 3 4 -2 17 -13 29 -16 18 -17 21 -2
15 12 -4 15 -2 11 8 -3 8 -10 12 -17 8 -8 -4 -8 -3 0 6 13 14 7 51 -8 51 -6 0
-8 6 -5 14 6 14 -27 48 -38 38 -3 -4 -3 1 1 11 6 17 7 17 21 0 13 -16 13 -16
3 5 -6 13 -17 21 -25 19 -9 -4 -11 1 -7 16 5 20 4 21 -12 8 -9 -8 -19 -11 -23
-7 -3 3 -2 6 4 6 6 0 14 8 17 17 4 10 4 14 0 10 -10 -10 -35 13 -27 26 4 6 0
8 -10 4 -9 -3 -16 -3 -14 1 1 4 -2 7 -8 7 -5 0 -9 -4 -7 -8 1 -5 -2 -6 -8 -2
-6 3 -8 11 -4 16 3 6 -3 19 -14 29 -15 14 -22 16 -25 7 -3 -7 -6 -4 -6 6 -1
20 -12 22 -30 5 -11 -11 -13 -10 -8 4 4 13 -2 18 -26 24 -70 16 -168 24 -162
13z m162 -34 c0 -8 -4 -12 -9 -9 -5 3 -6 10 -3 15 9 13 12 11 12 -6z m-142 -5
c3 -5 1 -10 -4 -10 -6 0 -11 5 -11 10 0 6 2 10 4 10 3 0 8 -4 11 -10z m65 4
c0 -8 -19 -13 -24 -6 -3 5 1 9 9 9 8 0 15 -2 15 -3z m44 -2 c3 -5 -1 -9 -9 -9
-8 0 -12 4 -9 9 3 4 7 8 9 8 2 0 6 -4 9 -8z m-186 -47 c-3 -3 -9 2 -12 12 -6
14 -5 15 5 6 7 -7 10 -15 7 -18z m257 5 c3 -5 1 -10 -4 -10 -6 0 -11 5 -11 10
0 6 2 10 4 10 3 0 8 -4 11 -10z m-89 -22 c3 -4 -1 -5 -10 -4 -8 1 -18 5 -22 8
-3 4 1 5 10 4 8 -1 18 -5 22 -8z m-71 -38 c3 -5 1 -10 -4 -10 -6 0 -11 5 -11
10 0 6 2 10 4 10 3 0 8 -4 11 -10z m139 2 c3 -5 -1 -9 -9 -9 -8 0 -12 4 -9 9
3 4 7 8 9 8 2 0 6 -4 9 -8z m-100 -20 c3 -5 -1 -9 -9 -9 -8 0 -12 4 -9 9 3 4
7 8 9 8 2 0 6 -4 9 -8z m62 -4 c3 -4 -1 -5 -10 -4 -8 1 -18 5 -22 8 -3 4 1 5
10 4 8 -1 18 -5 22 -8z m28 -36 c3 -5 -1 -9 -9 -9 -8 0 -12 4 -9 9 3 4 7 8 9
8 2 0 6 -4 9 -8z m36 -2 c0 -5 -2 -10 -4 -10 -3 0 -8 5 -11 10 -3 6 -1 10 4
10 6 0 11 -4 11 -10z m-143 -15 c0 -8 -4 -12 -9 -9 -5 3 -6 10 -3 15 9 13 12
11 12 -6z m-347 1 c0 -2 -7 -7 -16 -10 -8 -3 -12 -2 -9 4 6 10 25 14 25 6z
m406 -28 c3 -4 -1 -5 -10 -4 -8 1 -18 5 -22 8 -3 4 1 5 10 4 8 -1 18 -5 22 -8z
m124 2 c0 -5 -5 -10 -11 -10 -5 0 -7 5 -4 10 3 6 8 10 11 10 2 0 4 -4 4 -10z
m40 6 c0 -3 -4 -8 -10 -11 -5 -3 -10 -1 -10 4 0 6 5 11 10 11 6 0 10 -2 10 -4z
m94 -36 c-6 -6 -10 -3 -10 10 0 13 4 16 10 10 7 -7 7 -13 0 -20z m-341 5 c4
-8 3 -16 -1 -19 -4 -3 -9 4 -9 15 -2 23 3 25 10 4z m127 -9 c0 -3 -4 -8 -10
-11 -5 -3 -10 -1 -10 4 0 6 5 11 10 11 6 0 10 -2 10 -4z m75 -6 c3 -5 1 -10
-4 -10 -6 0 -11 5 -11 10 0 6 2 10 4 10 3 0 8 -4 11 -10z m45 0 c0 -5 -5 -10
-11 -10 -5 0 -7 5 -4 10 3 6 8 10 11 10 2 0 4 -4 4 -10z m133 -13 c3 -8 -1
-14 -8 -14 -7 0 -11 6 -8 14 3 7 6 13 8 13 2 0 5 -6 8 -13z m-173 -27 c0 -5
-2 -10 -4 -10 -3 0 -8 5 -11 10 -3 6 -1 10 4 10 6 0 11 -4 11 -10z m96 -26 c1
-9 0 -13 -4 -10 -3 4 -7 14 -8 22 -1 9 0 13 4 10 3 -4 7 -14 8 -22z m57 11
c-3 -9 -8 -14 -10 -11 -3 3 -2 9 2 15 9 16 15 13 8 -4z m-317 -41 c1 -9 0 -13
-4 -10 -3 4 -7 14 -8 22 -1 9 0 13 4 10 3 -4 7 -14 8 -22z m79 16 c3 -5 1 -10
-4 -10 -6 0 -11 5 -11 10 0 6 2 10 4 10 3 0 8 -4 11 -10z m239 -66 c3 -8 2
-12 -4 -9 -6 3 -10 10 -10 16 0 14 7 11 14 -7z m-280 -12 c3 -5 -1 -9 -9 -9
-8 0 -12 4 -9 9 3 4 7 8 9 8 2 0 6 -4 9 -8z m121 -42 c3 -5 1 -10 -4 -10 -6 0
-11 5 -11 10 0 6 2 10 4 10 3 0 8 -4 11 -10z m-182 -15 c-3 -9 -8 -14 -10 -11
-3 3 -2 9 2 15 9 16 15 13 8 -4z m83 -27 c3 -4 -1 -5 -10 -4 -8 1 -18 5 -22 8
-3 4 1 5 10 4 8 -1 18 -5 22 -8z m267 -10 c-4 -7 -8 -16 -8 -20 0 -3 -3 -9 -7
-12 -5 -3 -6 -3 -3 1 3 3 -1 13 -8 21 -8 11 -8 14 0 9 6 -4 14 -3 18 3 3 5 8
10 11 10 3 0 2 -6 -3 -12z m-398 -8 c3 -6 -1 -7 -9 -4 -18 7 -21 14 -7 14 6 0
13 -4 16 -10z m215 0 c0 -5 -4 -10 -10 -10 -5 0 -10 5 -10 10 0 6 5 10 10 10
6 0 10 -4 10 -10z m40 0 c0 -5 -2 -10 -4 -10 -3 0 -8 5 -11 10 -3 6 -1 10 4
10 6 0 11 -4 11 -10z m40 6 c0 -3 -4 -8 -10 -11 -5 -3 -10 -1 -10 4 0 6 5 11
10 11 6 0 10 -2 10 -4z m-185 -15 c3 -5 2 -12 -3 -15 -5 -3 -9 1 -9 9 0 17 3
19 12 6z m-65 -7 c0 -8 -19 -13 -24 -6 -3 5 1 9 9 9 8 0 15 -2 15 -3z m66 -49
c-1 -8 -5 -17 -8 -21 -5 -4 -4 16 1 34 3 9 9 -1 7 -13z m44 11 c0 -3 -4 -8
-10 -11 -5 -3 -10 -1 -10 4 0 6 5 11 10 11 6 0 10 -2 10 -4z m225 -26 c0 -7
-7 -15 -15 -17 -13 -4 -13 -3 0 6 13 10 13 12 0 22 -13 9 -13 10 0 6 8 -2 15
-10 15 -17z m-125 0 c0 -5 -2 -10 -4 -10 -3 0 -8 5 -11 10 -3 6 -1 10 4 10 6
0 11 -4 11 -10z m-215 -40 c3 -6 -1 -7 -9 -4 -18 7 -21 14 -7 14 6 0 13 -4 16
-10z m61 -2 c3 -4 -1 -5 -10 -4 -8 1 -18 5 -22 8 -3 4 1 5 10 4 8 -1 18 -5 22
-8z m264 -2 c-7 -7 -13 -7 -20 0 -6 6 -3 10 10 10 13 0 16 -4 10 -10z m-439
-29 c-10 -9 -11 -8 -5 6 3 10 9 15 12 12 3 -3 0 -11 -7 -18z m263 11 c-3 -4
-11 -5 -19 -1 -21 7 -19 12 4 10 11 0 18 -5 15 -9z m46 2 c0 -5 -2 -10 -4 -10
-3 0 -8 5 -11 10 -3 6 -1 10 4 10 6 0 11 -4 11 -10z m40 0 c0 -5 -2 -10 -4
-10 -3 0 -8 5 -11 10 -3 6 -1 10 4 10 6 0 11 -4 11 -10z m-204 -25 c-1 -8 -5
-17 -8 -21 -5 -4 -4 16 1 34 3 9 9 -1 7 -13z m-61 -4 c3 -5 2 -12 -3 -15 -5
-3 -9 1 -9 9 0 17 3 19 12 6z m180 -11 c3 -5 1 -10 -4 -10 -6 0 -11 5 -11 10
0 6 2 10 4 10 3 0 8 -4 11 -10z m45 0 c0 -5 -5 -10 -11 -10 -5 0 -7 5 -4 10 3
6 8 10 11 10 2 0 4 -4 4 -10z m40 0 c0 -5 -5 -10 -11 -10 -5 0 -7 5 -4 10 3 6
8 10 11 10 2 0 4 -4 4 -10z m-380 -40 c0 -5 -5 -10 -11 -10 -5 0 -7 5 -4 10 3
6 8 10 11 10 2 0 4 -4 4 -10z m160 5 c0 -7 -30 -13 -34 -7 -3 4 4 9 15 9 10 1
19 0 19 -2z m114 -23 c3 -5 -1 -9 -9 -9 -8 0 -12 4 -9 9 3 4 7 8 9 8 2 0 6 -4
9 -8z m-114 -22 c0 -5 -5 -10 -11 -10 -5 0 -7 5 -4 10 3 6 8 10 11 10 2 0 4
-4 4 -10z m60 0 c0 -5 -2 -10 -4 -10 -3 0 -8 5 -11 10 -3 6 -1 10 4 10 6 0 11
-4 11 -10z m120 0 c0 -5 -2 -10 -4 -10 -3 0 -8 5 -11 10 -3 6 -1 10 4 10 6 0
11 -4 11 -10z m-40 -34 c0 -3 -4 -8 -10 -11 -5 -3 -10 -1 -10 4 0 6 5 11 10
11 6 0 10 -2 10 -4z m40 -6 c0 -5 -2 -10 -4 -10 -3 0 -8 5 -11 10 -3 6 -1 10
4 10 6 0 11 -4 11 -10z m-183 -15 c0 -8 -4 -12 -9 -9 -5 3 -6 10 -3 15 9 13
12 11 12 -6z m58 -25 c3 -5 1 -10 -4 -10 -6 0 -11 5 -11 10 0 6 2 10 4 10 3 0
8 -4 11 -10z m125 0 c0 -5 -5 -10 -11 -10 -5 0 -7 5 -4 10 3 6 8 10 11 10 2 0
4 -4 4 -10z m40 6 c0 -3 -4 -8 -10 -11 -5 -3 -10 -1 -10 4 0 6 5 11 10 11 6 0
10 -2 10 -4z m-120 -40 c0 -3 -4 -8 -10 -11 -5 -3 -10 -1 -10 4 0 6 5 11 10
11 6 0 10 -2 10 -4z m80 0 c0 -3 -4 -8 -10 -11 -5 -3 -10 -1 -10 4 0 6 5 11
10 11 6 0 10 -2 10 -4z m80 -26 c0 -5 -5 -10 -11 -10 -5 0 -7 5 -4 10 3 6 8
10 11 10 2 0 4 -4 4 -10z m-80 -20 c0 -5 -2 -10 -4 -10 -3 0 -8 5 -11 10 -3 6
-1 10 4 10 6 0 11 -4 11 -10z m40 0 c0 -5 -2 -10 -4 -10 -3 0 -8 5 -11 10 -3
6 -1 10 4 10 6 0 11 -4 11 -10z m-424 -15 c-1 -8 -5 -17 -8 -21 -5 -4 -4 16 1
34 3 9 9 -1 7 -13z m120 -5 c0 -12 -4 -16 -9 -11 -5 5 -6 14 -3 20 10 15 12
14 12 -9z m-50 -2 c3 -4 -1 -5 -10 -4 -8 1 -18 5 -22 8 -3 4 1 5 10 4 8 -1 18
-5 22 -8z m151 -30 c2 -17 0 -19 -7 -8 -5 8 -6 18 -4 22 8 12 10 10 11 -14z
m79 7 c-1 -8 -5 -17 -8 -21 -5 -4 -4 16 1 34 3 9 9 -1 7 -13z m-645 -48 c-10
-9 -11 -8 -5 6 3 10 9 15 12 12 3 -3 0 -11 -7 -18z m469 9 c0 -2 -8 -10 -17
-17 -16 -13 -17 -12 -4 4 13 16 21 21 21 13z m275 -5 c3 -5 2 -12 -3 -15 -5
-3 -9 1 -9 9 0 17 3 19 12 6z m-139 -33 c3 -4 -1 -5 -10 -4 -8 1 -18 5 -22 8
-3 4 1 5 10 4 8 -1 18 -5 22 -8z m-265 -31 c-10 -9 -11 -8 -5 6 3 10 9 15 12
12 3 -3 0 -11 -7 -18z m104 5 c-3 -3 -11 0 -18 7 -9 10 -8 11 6 5 10 -3 15 -9
12 -12z m240 -12 c3 -5 1 -10 -4 -10 -6 0 -11 5 -11 10 0 6 2 10 4 10 3 0 8
-4 11 -10z m45 0 c0 -5 -5 -10 -11 -10 -5 0 -7 5 -4 10 3 6 8 10 11 10 2 0 4
-4 4 -10z m-164 -42 c3 -4 -1 -5 -10 -4 -8 1 -18 5 -22 8 -3 4 1 5 10 4 8 -1
18 -5 22 -8z m64 7 c0 -7 -30 -13 -34 -7 -3 4 4 9 15 9 10 1 19 0 19 -2z
m-135 -25 c3 -6 -1 -7 -9 -4 -18 7 -21 14 -7 14 6 0 13 -4 16 -10z m215 0 c0
-5 -4 -10 -10 -10 -5 0 -10 5 -10 10 0 6 5 10 10 10 6 0 10 -4 10 -10z m-165
-20 c3 -5 1 -10 -4 -10 -6 0 -11 5 -11 10 0 6 2 10 4 10 3 0 8 -4 11 -10z
m100 -29 c3 -5 2 -12 -3 -15 -5 -3 -9 1 -9 9 0 17 3 19 12 6z m-141 -17 c3 -8
2 -12 -4 -9 -6 3 -10 10 -10 16 0 14 7 11 14 -7z m61 7 c3 -5 2 -12 -3 -15 -5
-3 -9 1 -9 9 0 17 3 19 12 6z m120 -1 c3 -5 1 -10 -4 -10 -6 0 -11 5 -11 10 0
6 2 10 4 10 3 0 8 -4 11 -10z m-725 -54 c0 -3 -4 -8 -10 -11 -5 -3 -10 -1 -10
4 0 6 5 11 10 11 6 0 10 -2 10 -4z m780 0 c0 -2 -8 -10 -17 -17 -16 -13 -17
-12 -4 4 13 16 21 21 21 13z m-93 -21 c0 -8 -4 -12 -9 -9 -5 3 -6 10 -3 15 9
13 12 11 12 -6z m-142 -5 c3 -5 1 -10 -4 -10 -6 0 -11 5 -11 10 0 6 2 10 4 10
3 0 8 -4 11 -10z m60 1 c-9 -8 -36 -10 -30 -2 2 4 11 8 20 8 8 0 13 -3 10 -6z
m49 1 c3 -5 -1 -9 -9 -9 -8 0 -12 4 -9 9 3 4 7 8 9 8 2 0 6 -4 9 -8z m-186
-47 c-3 -3 -9 2 -12 12 -6 14 -5 15 5 6 7 -7 10 -15 7 -18z m99 0 c0 -8 -4
-12 -9 -9 -5 3 -6 10 -3 15 9 13 12 11 12 -6z m79 -51 c1 -9 0 -13 -4 -10 -3
4 -7 14 -8 22 -1 9 0 13 4 10 3 -4 7 -14 8 -22z m-81 -4 c3 -5 1 -10 -4 -10
-6 0 -11 5 -11 10 0 6 2 10 4 10 3 0 8 -4 11 -10z m179 -27 c-7 -38 -16 -45
-10 -8 5 36 5 35 10 35 3 0 2 -12 0 -27z m-363 -20 c13 -16 12 -17 -3 -4 -10
7 -18 15 -18 17 0 8 8 3 21 -13z m46 -108 c0 -8 -4 -12 -9 -9 -5 3 -6 10 -3
15 9 13 12 11 12 -6z m-40 -10 c0 -8 -4 -12 -9 -9 -5 3 -6 10 -3 15 9 13 12
11 12 -6z m219 0 c-1 -8 -5 -17 -8 -21 -5 -4 -4 16 1 34 3 9 9 -1 7 -13z m84
-9 c0 -3 -4 -8 -10 -11 -5 -3 -10 -1 -10 4 0 6 5 11 10 11 6 0 10 -2 10 -4z
m-44 -62 c1 -9 0 -13 -4 -10 -3 4 -7 14 -8 22 -1 9 0 13 4 10 3 -4 7 -14 8
-22z m-261 7 c3 -5 2 -12 -3 -15 -5 -3 -9 1 -9 9 0 17 3 19 12 6z m200 -19
c-3 -3 -11 0 -18 7 -9 10 -8 11 6 5 10 -3 15 -9 12 -12z m-158 -57 c0 -8 -4
-12 -9 -9 -5 3 -6 10 -3 15 9 13 12 11 12 -6z m63 -91 c0 -8 -19 -13 -24 -6
-3 5 1 9 9 9 8 0 15 -2 15 -3z m116 -9 c-1 -8 -5 -17 -8 -21 -5 -4 -4 16 1 34
3 9 9 -1 7 -13z m64 -9 c0 -2 -8 -10 -17 -17 -16 -13 -17 -12 -4 4 13 16 21
21 21 13z m-21 -53 c-8 -9 -8 -13 -1 -13 6 0 9 -7 6 -15 -10 -24 -19 -17 -19
13 -1 17 5 29 12 29 9 0 10 -4 2 -14z m-44 -32 c-9 -8 -36 -10 -30 -2 2 4 11
8 20 8 8 0 13 -3 10 -6z m-99 -16 c-1 -8 -5 -17 -8 -21 -5 -4 -4 16 1 34 3 9
9 -1 7 -13z m-121 -4 c3 -5 2 -12 -3 -15 -5 -3 -9 1 -9 9 0 17 3 19 12 6z m71
-3 c3 -4 -1 -5 -10 -4 -8 1 -18 5 -22 8 -3 4 1 5 10 4 8 -1 18 -5 22 -8z
m-593 -11 c3 -8 -1 -14 -8 -14 -7 0 -11 6 -8 14 3 7 6 13 8 13 2 0 5 -6 8 -13z
m647 -51 c0 -2 -8 -10 -17 -17 -16 -13 -17 -12 -4 4 13 16 21 21 21 13z m-600
-90 c0 -2 -7 -7 -16 -10 -8 -3 -12 -2 -9 4 6 10 25 14 25 6z m625 -46 c3 -6
-1 -7 -9 -4 -18 7 -21 14 -7 14 6 0 13 -4 16 -10z m55 -14 c0 -3 -4 -8 -10
-11 -5 -3 -10 -1 -10 4 0 6 5 11 10 11 6 0 10 -2 10 -4z m0 -46 c0 -5 -5 -10
-11 -10 -5 0 -7 5 -4 10 3 6 8 10 11 10 2 0 4 -4 4 -10z m-43 -215 c0 -8 -4
-12 -9 -9 -5 3 -6 10 -3 15 9 13 12 11 12 -6z m-13 -23 c3 -5 -1 -9 -9 -9 -8
0 -12 4 -9 9 3 4 7 8 9 8 2 0 6 -4 9 -8z m-153 -115 c-10 -9 -11 -8 -5 6 3 10
9 15 12 12 3 -3 0 -11 -7 -18z m-111 -347 c0 -5 -2 -10 -4 -10 -3 0 -8 5 -11
10 -3 6 -1 10 4 10 6 0 11 -4 11 -10z m118 -45 c-3 -3 -9 2 -12 12 -6 14 -5
15 5 6 7 -7 10 -15 7 -18z m39 -50 c0 -8 -4 -12 -9 -9 -5 3 -6 10 -3 15 9 13
12 11 12 -6z m-803 -133 c3 -5 -1 -9 -9 -9 -8 0 -12 4 -9 9 3 4 7 8 9 8 2 0 6
-4 9 -8z m641 -1 c3 -5 2 -12 -3 -15 -5 -3 -9 1 -9 9 0 17 3 19 12 6z m111
-116 c-1 -8 -5 -17 -8 -21 -5 -4 -4 16 1 34 3 9 9 -1 7 -13z m-61 -285 c-3 -5
-12 -10 -18 -10 -7 0 -6 4 3 10 19 12 23 12 15 0z m-280 -290 c3 -6 -1 -7 -9
-4 -18 7 -21 14 -7 14 6 0 13 -4 16 -10z m40 -200 c-3 -5 -12 -10 -18 -10 -7
0 -6 4 3 10 19 12 23 12 15 0z m145 -14 c0 -3 -4 -8 -10 -11 -5 -3 -10 -1 -10
4 0 6 5 11 10 11 6 0 10 -2 10 -4z m-156 -76 c-6 -6 -10 -3 -10 10 0 13 4 16
10 10 7 -7 7 -13 0 -20z m131 -10 c-3 -5 -12 -10 -18 -10 -7 0 -6 4 3 10 19
12 23 12 15 0z m-38 -175 c0 -8 -4 -12 -9 -9 -5 3 -6 10 -3 15 9 13 12 11 12
-6z m-77 -119 c0 -2 -8 -10 -17 -17 -16 -13 -17 -12 -4 4 13 16 21 21 21 13z
m-759 -179 c-10 -9 -11 -8 -5 6 3 10 9 15 12 12 3 -3 0 -11 -7 -18z m622 -22
c-3 -9 -8 -14 -10 -11 -3 3 -2 9 2 15 9 16 15 13 8 -4z"/>
<path d="M2303 7350 c-29 -9 -72 -30 -95 -45 -47 -31 -2112 -2091 -2145 -2140
-11 -16 -31 -58 -43 -92 -38 -105 -19 -251 44 -341 14 -20 499 -510 1078
-1089 947 -946 1059 -1054 1112 -1078 97 -44 191 -51 286 -20 3 1 17 5 33 9
15 5 27 12 27 17 0 5 9 9 20 9 11 0 20 5 20 10 0 6 10 15 23 21 24 11 94 97
90 111 -2 4 1 8 6 8 9 0 38 74 30 76 -2 0 1 7 8 15 13 16 15 174 3 198 -8 15
-22 49 -24 61 -9 35 -186 219 -943 977 l-889 891 908 911 c500 500 908 914
907 918 -3 11 13 47 22 53 5 3 9 20 11 38 1 18 5 32 8 32 4 0 7 6 7 13 5 84 4
110 -7 156 -14 58 -21 73 -62 136 -86 133 -279 197 -435 145z"/>
<path d="M7350 7354 c-30 -8 -58 -20 -62 -27 -4 -7 -8 -8 -8 -4 0 14 -86 -50
-111 -83 -13 -18 -28 -37 -34 -43 -9 -11 -20 -32 -45 -89 -22 -52 -29 -193
-10 -212 5 -5 10 -19 10 -30 0 -40 44 -108 117 -184 41 -42 79 -76 84 -74 5 1
8 -2 7 -7 -2 -4 364 -376 812 -825 448 -449 816 -820 818 -825 1 -4 -394 -405
-878 -891 -824 -827 -935 -940 -940 -965 -1 -5 -9 -26 -18 -45 -16 -37 -23
-177 -10 -237 6 -33 48 -116 61 -121 4 -2 7 -9 8 -15 0 -17 114 -107 133 -107
9 0 16 -4 16 -9 0 -12 116 -36 167 -34 55 1 143 22 143 35 0 5 4 7 8 4 5 -3
26 6 48 21 53 35 2117 2097 2154 2152 71 105 79 253 21 376 -30 65 -83 120
-1079 1114 -576 576 -1064 1059 -1085 1075 -21 15 -44 29 -50 30 -7 1 -17 5
-23 8 -40 25 -182 32 -254 12z"/>
<path d="M5623 6615 c-3 -9 -3 -18 -1 -21 3 -3 8 4 11 16 6 23 -1 27 -10 5z"/>
</g>
</svg>
