<?xml version="1.0" encoding="utf-8"?>
<svg width="32px" height="32px" viewBox="0 0 32 32" version="1.1" xmlns:xlink="http://www.w3.org/1999/xlink" xmlns="http://www.w3.org/2000/svg">
  <desc>Created with Lunacy</desc>
  <g id="Css3-icon-Symbol-instance">
    <g id="Css3-icon">
      <path d="M0 0L32 0L32 32L0 32L0 0Z" id="Background" fill="none" stroke="none" />
      <path d="M22.6667 0L0 0L2 22.6667L11.3333 25.3333L20.6667 22.6667L22.6667 0L22.6667 0L22.6667 0Z" transform="translate(4.666667 3.333333)" id="Shape" fill="#0277BD" stroke="none" />
      <path d="M0 0L0 21.2667L7.46667 19.1333L9.13334 0L0 0Z" transform="translate(16 5.333333)" id="Shape" fill="#039BE5" stroke="none" />
      <path d="M6.06667 0L0 0L0 2.66667L3.26667 2.66667L3.06667 5.33333L0 5.33333L0 8L2.93333 8L2.73333 11L0 11.9333L0 14.7333L5.26667 13L5.73333 5.33333L5.73333 5.33333L6.06667 0Z" transform="translate(16 8.666667)" id="Shape" fill="#EEEEEE" stroke="none" />
      <path d="M6.13333 2.66667L6.13333 0L0 0L0.2 2.66667L6.13333 2.66667ZM3.06667 5.33333L3.2 8L6.13333 8L6.13333 5.33333L3.06667 5.33333ZM0.666666 9.33333L3.33333 9.33333L3.4 11L6.13333 11.9333L6.13333 14.7333L0.866666 13L0.666666 9.33333Z" transform="translate(9.866699 8.666667)" id="Shape" fill="#DDDDDD" fill-rule="evenodd" stroke="none" />
    </g>
  </g>
</svg>
