<?xml version="1.0" encoding="utf-8"?>
<svg width="32px" height="32px" viewBox="0 0 32 32" version="1.1" xmlns:xlink="http://www.w3.org/1999/xlink" xmlns="http://www.w3.org/2000/svg">
  <desc>Created with Lunacy</desc>
  <g id="Gimp-icon-Symbol-instance">
    <g id="Gimp-icon">
      <path d="M0 0L31.9999 0L31.9999 32L0 32L0 0Z" id="Background" fill="none" stroke="none" />
      <path d="M23.5455 1.82864C23.9555 0.778638 24.3555 -0.0813623 25.083 0.00613708C25.818 0.0961371 25.933 0.968638 26.068 1.97864C26.328 3.97364 26.6855 12.5411 23.818 16.9336C25.408 17.7011 26.773 18.5436 27.678 19.3011C28.443 19.0311 29.2955 19.2711 29.933 19.9611C30.648 20.7336 30.723 23.2636 30.7205 24.3136L30.7205 25.1536L29.9105 24.9311C29.4055 24.7911 26.8655 24.0186 26.393 22.4861C26.3455 22.3336 26.3155 22.1861 26.2905 22.0411C25.008 21.8086 23.283 21.2311 21.5405 20.4361C21.2105 20.2861 20.8755 20.1136 20.5405 19.9311C19.103 20.7236 17.4605 21.1311 15.6405 21.1311C13.478 21.1311 11.0756 20.5711 8.50056 19.4436C7.78056 19.1286 7.02806 18.7086 6.34306 18.2761C6.62056 18.1736 6.88806 18.0461 7.13306 17.8811C8.05556 17.2686 8.65806 16.3286 8.87556 15.1636C8.94306 14.8036 8.96555 14.4311 8.95305 14.0536C8.84805 14.0636 8.74555 14.0736 8.64056 14.0736C8.30805 14.0736 7.98306 14.0211 7.67056 13.9311C7.69306 14.2711 7.67806 14.6086 7.61806 14.9311C7.46556 15.7461 7.05306 16.3986 6.42556 16.8136C5.95306 17.1286 5.41056 17.2811 4.84056 17.2811C3.51056 17.2811 2.04057 16.4586 1.02057 15.0111C0.193069 13.8311 -0.15693 12.4786 0.06557 11.2961C0.21807 10.4811 0.630569 9.82864 1.25557 9.41364C2.38057 8.66364 3.90806 8.85364 5.22056 9.77114C5.32306 9.32114 5.50306 8.90114 5.76056 8.53614L5.76056 2.36864L6.93056 4.11614C6.95306 4.14864 8.99305 7.13364 11.748 7.35114C12.468 6.75364 13.393 6.39364 14.4005 6.39364C15.1655 6.39364 15.878 6.60364 16.493 6.96364C19.283 6.38114 22.463 4.60864 23.5455 1.82864ZM14.4005 7.67365C15.988 7.67365 17.2805 8.96615 17.2805 10.5536C17.2805 10.7336 17.258 10.9086 17.228 11.0811C17.0305 10.2286 16.2705 9.59365 15.3605 9.59365C15.3055 9.59365 15.2555 9.60614 15.2005 9.61115C15.6555 9.68614 16.0005 10.0786 16.0005 10.5536C16.0005 11.0836 15.5705 11.5136 15.0405 11.5136C14.5105 11.5136 14.0805 11.0836 14.0805 10.5536C14.0805 10.2936 14.1855 10.0586 14.353 9.88614C13.808 10.2236 13.4405 10.8236 13.4405 11.5136C13.4405 12.4236 14.0755 13.1836 14.928 13.3811C14.7555 13.4111 14.5805 13.4336 14.4005 13.4336C12.8131 13.4336 11.5206 12.1411 11.5206 10.5536C11.5206 8.96615 12.8131 7.67365 14.4005 7.67365ZM10.4606 9.25113C10.0431 8.66863 9.36805 8.31363 8.64055 8.31363C7.40556 8.31363 6.40056 9.31863 6.40056 10.5536C6.40056 10.6811 6.42056 10.8086 6.44306 10.9336C6.51556 11.0261 6.59056 11.1186 6.66056 11.2161C6.91056 11.5736 7.11306 11.9486 7.27306 12.3311L7.33056 12.3711C7.71556 12.6486 8.16805 12.7936 8.64055 12.7936C8.75555 12.7936 8.86805 12.7811 8.98055 12.7636C8.24055 12.6236 7.68056 11.9736 7.68056 11.1936C7.68056 10.6186 7.98556 10.1186 8.44055 9.83613C8.30055 9.98113 8.21305 10.1761 8.21305 10.3936C8.21305 10.8361 8.57305 11.1936 9.01305 11.1936C9.45555 11.1936 9.81305 10.8361 9.81305 10.3936C9.81305 9.99863 9.52555 9.67113 9.14805 9.60613C9.19305 9.60363 9.23555 9.59363 9.28055 9.59363C9.66555 9.59363 10.0156 9.73613 10.2906 9.96363C10.3306 9.71863 10.383 9.48113 10.4606 9.25113ZM2.56056 10.2336C3.26806 10.2336 3.84056 10.9486 3.84056 11.8336C3.84056 12.7186 3.26806 13.4336 2.56056 13.4336C1.85306 13.4336 1.28056 12.7186 1.28056 11.8336C1.28056 10.9486 1.85306 10.2336 2.56056 10.2336ZM19.9155 15.0111C19.3505 14.4336 18.5605 14.0736 18.5605 14.0736C18.5605 14.0736 19.113 14.8361 19.113 15.5736C19.113 17.0536 11.5206 16.6336 11.5206 16.6336C11.5206 16.6336 15.788 18.2086 18.4305 17.8611C18.738 17.8211 19.023 17.7561 19.278 17.6561C20.123 18.2236 21.123 18.8386 22.073 19.2736C23.6605 19.9961 25.2005 20.5186 26.358 20.7436C26.4305 20.5086 26.5305 20.2961 26.6555 20.1111C25.728 19.3836 24.3055 18.5536 22.7305 17.8336C21.873 17.4461 21.038 17.1236 20.2505 16.8636C20.3405 16.7136 20.4105 16.5686 20.448 16.4261C20.4605 16.3711 20.468 16.3136 20.473 16.2586L20.4705 16.2561C20.508 15.8636 20.3355 15.5036 20.0805 15.1936C20.033 15.1336 19.9805 15.0761 19.9255 15.0211L19.9155 15.0111Z" transform="translate(1.279434 3.846375)" id="Shape" fill="#5B5B5B" fill-rule="evenodd" stroke="none" />
    </g>
  </g>
</svg>
