<?xml version="1.0" encoding="utf-8"?>
<svg width="48px" height="48px" viewBox="0 0 32 32" version="1.1" xmlns:xlink="http://www.w3.org/1999/xlink" xmlns="http://www.w3.org/2000/svg">
  <desc>Created with Lunacy</desc>
  <g id="Git-icon-Symbol-instance">
    <g id="Git-icon">
      <path d="M0 0L32 0L32 32L0 32L0 0Z" id="Background" fill="none" stroke="none" />
      <path d="M24.8 11.4L13.9333 0.533333C13.6 0.2 13.1333 0 12.6667 0C12.6667 0 12.6667 0 12.6667 0C12.2 0 11.7333 0.2 11.4 0.533333L9.06667 2.86667L11.8 5.6C12.0667 5.46667 12.3333 5.4 12.6667 5.4C13.8 5.4 14.6667 6.26667 14.6667 7.4C14.6667 7.73333 14.6 8 14.4667 8.26667L17.1333 10.9333C17.4 10.8 17.6667 10.7333 18 10.7333C19.1333 10.7333 20 11.6 20 12.7333C20 13.8667 19.1333 14.7333 18 14.7333C16.8667 14.7333 16 13.8667 16 12.7333C16 12.4 16.0667 12.1333 16.2 11.8667L13.5333 9.2C13.4667 9.2 13.4 9.26667 13.3333 9.26667L13.3333 16.2C14.1333 16.4667 14.6667 17.2 14.6667 18.0667C14.6667 19.2 13.8 20.0667 12.6667 20.0667C11.5333 20.0667 10.6667 19.2 10.6667 18.0667C10.6667 17.2 11.2 16.4667 12 16.2L12 9.2C11.2 8.93333 10.6667 8.2 10.6667 7.33333C10.6667 7 10.7333 6.73333 10.8667 6.46667L8.13333 3.73333L0.533333 11.4C0.2 11.7333 0 12.2 0 12.6667C0 13.1333 0.2 13.6 0.533333 13.9333L11.4 24.8C11.4 24.8 11.4 24.8 11.4 24.8C11.7333 25.1333 12.2 25.3333 12.6667 25.3333C13.1333 25.3333 13.6 25.1333 13.9333 24.8L24.8 13.9333C25.1333 13.6 25.3333 13.1333 25.3333 12.6667C25.3333 12.2 25.1333 11.7333 24.8 11.4L24.8 11.4Z" transform="translate(3.333333 3.333333)" id="Shape" fill="#F4511E" stroke="none" />
    </g>
  </g>
</svg>
