<?xml version="1.0" encoding="utf-8"?>
<svg width="32px" height="32px" viewBox="0 0 32 32" version="1.1" xmlns:xlink="http://www.w3.org/1999/xlink" xmlns="http://www.w3.org/2000/svg">
  <desc>Created with Lunacy</desc>
  <g id="Inkscape-icon-Symbol-instance">
    <g id="Inkscape-icon">
      <path d="M0 0L32 0L32 32L0 32L0 0Z" id="Background" fill="none" stroke="none" />
      <path d="M28.1766 12.6208L17.0033 1.0015C15.6166 -0.333833 13.3379 -0.333833 12.0546 1.0015L1.27193 12.2182C-1.61335 15.1486 0.955829 15.8443 3.57388 16.5533C4.6646 16.8487 5.7638 17.1463 6.4806 17.6088C7.02759 17.9709 6.25784 18.3846 5.43464 18.827C4.56625 19.2937 3.63837 19.7924 4.13393 20.2962C5.0746 21.2835 9.51793 22.1728 10.4586 23.1295C10.9286 23.6198 10.4587 24.1258 9.98882 24.6319C9.51819 25.1388 9.04755 25.6458 9.52127 26.1368C10.4379 27.1182 12.4699 26.1835 12.8673 28.4148C13.1546 30.0668 16.7199 29.2368 18.3939 27.8288C18.9133 27.3804 18.4648 27.1551 17.998 26.9206C17.5258 26.6833 17.0349 26.4367 17.5079 25.9402C18.3513 25.0748 19.1573 24.6902 19.8906 24.4528C21.2039 24.0202 22.7039 24.1168 23.2599 22.6782C23.498 22.074 22.5974 21.5363 21.7879 21.0531C20.9968 20.5808 20.2928 20.1604 20.8239 19.7808C21.5474 19.2636 22.7937 18.8196 24.1127 18.3497C27.4705 17.1536 31.2998 15.7895 28.1766 12.6208ZM9.6046 17.9708C7.89993 17.9708 14.3939 21.0908 15.8113 20.6028C19.5073 19.3475 9.89793 17.9715 9.6046 17.9708ZM29.3239 22.6135C29.5559 23.6975 25.3473 23.3555 25.3473 22.7562C25.8126 20.9302 28.9886 20.7875 29.3239 22.6135ZM24.4446 23.9868C23.2133 25.2562 24.6586 26.5862 25.8633 25.7095C26.1853 25.4675 25.8373 24.2888 24.4446 23.9868Z" transform="translate(1.333394 1.333171)" id="Shape" fill="#212121" fill-rule="evenodd" stroke="none" />
      <path d="M0.384408 2.2943C1.36908 3.33097 2.85841 2.06764 3.33774 0.609635C2.37974 -0.913033 -1.15893 0.706968 0.384408 2.2943L0.384408 2.2943Z" transform="translate(5.983592 25.3197)" id="Shape" fill="#212121" stroke="none" />
      <path d="M15.16 1.06L12.1733 6.12L6.88 15.0933C5.84667 14.7 4.74 14.46 3.70667 14.2733C3.30667 14.1467 2.9 14.0333 2.49333 13.9267C1.73333 13.72 0.353334 13.34 0 13.0133C0.0466668 12.8733 0.226667 12.4933 0.9 11.8067L6.02 6.48667L11.6867 0.593333C12.0533 0.213333 12.5733 0 13.16 0C13.7467 0 14.32 0.22 14.7333 0.613333L15.16 1.06L15.16 1.06Z" transform="translate(2.686666 2.666667)" id="Shape" fill="#424242" stroke="none" />
      <path d="M13.34 5.42C13.32 5.48667 13.2867 5.54 13.2533 5.58L11.22 3.90667L10.82 6.36667L9.14667 5.45333L6.42 7.2L6.15333 6.12L5.52 3.52667L4.06667 6.72L0.433333 6.69333C0.206666 6.69333 0.0666663 6.61333 0 6.48667L5.66667 0.593332C6.03334 0.213333 6.55333 0 7.14 0C7.72667 0 8.3 0.22 8.71334 0.613333L9.14 1.06L13.34 5.42L13.34 5.42Z" transform="translate(8.706666 2.666667)" id="Shape" fill="#FAFAFA" stroke="none" />
    </g>
  </g>
</svg>
