<?xml version="1.0" encoding="utf-8"?>
<svg width="32px" height="32px" viewBox="0 0 32 32" version="1.1" xmlns:xlink="http://www.w3.org/1999/xlink" xmlns="http://www.w3.org/2000/svg">
  <desc>Created with Lunacy</desc>
  <g id="Javascript-icon-Symbol-instance">
    <g id="Javascript-icon">
      <path d="M0 0L32 0L32 32L0 32L0 0Z" id="Background" fill="none" stroke="none" />
      <path d="M0 24L0 0L24 0L24 24L0 24L0 24Z" transform="translate(4 4)" id="Shape" fill="#FFD600" stroke="none" />
      <path d="M3.33333 8.42133C2.596 8.42133 2.08333 7.95667 1.746 7.35267L0 8.42133C0.505333 9.50267 1.74533 10.6667 3.46333 10.6667C5.36467 10.6667 6.66667 9.64533 6.66667 7.40067L6.66667 0L4.44467 0L4.44467 7.05933C4.44467 8.14267 4.03867 8.42133 3.33333 8.42133ZM11.4947 8.76533C10.4327 8.76533 9.93133 8.04733 9.47 7.298L7.778 8.42133C8.41 9.66333 9.54533 10.6667 11.5447 10.6667C13.5887 10.6667 15.1113 9.61 15.1113 7.682C15.1113 5.89267 14.0793 5.09667 12.2493 4.31733L11.7113 4.088C10.788 3.69 10.388 3.43 10.388 2.78733C10.388 2.26733 10.7873 1.86933 11.418 1.86933C12.036 1.86933 12.4347 2.12867 12.8033 2.78733L14.4793 1.716C13.77 0.474668 12.7867 0.000667572 11.418 0.000667572C9.496 0.000667572 8.266 1.22333 8.266 2.83C8.266 4.57333 9.29867 5.39867 10.8513 6.05733L11.3893 6.28667C12.3707 6.714 12.8547 6.97467 12.8547 7.70867C12.8547 8.322 12.3867 8.76533 11.4947 8.76533Z" transform="translate(10.22201 14.66667)" id="Shape" fill="#000001" fill-rule="evenodd" stroke="none" />
    </g>
  </g>
</svg>
