<?xml version="1.0" encoding="utf-8"?>
<svg width="48px" height="48px" viewBox="0 0 48 48" version="1.1" xmlns:xlink="http://www.w3.org/1999/xlink" xmlns="http://www.w3.org/2000/svg">
  <desc>Created with Lunacy</desc>
  <g id="Jenkins-icon-Symbol-instance">
    <g id="Jenkins-icon">
      <path d="M0 0L48 0L48 48L0 48L0 0Z" id="Background" fill="none" stroke="none" />
      <path d="M8.2 28.5096C7.7 28.8096 0 33.7096 0 34.0096C0 34.4096 0 34.4096 0 34.4096L1.4 38.0096L32.6 38.0096C32.6 38.0096 34.1 33.2096 34 32.0096C34 31.4096 29 28.1096 29 28.1096C29 28.1096 32.9 24.2096 33 15.7096C33 14.9096 33 14.1096 32.9 13.3096C32.2 3.70957 26.1 0.309574 19.7 0.00957346C13.2 -0.190426 9.6 2.80957 9.6 2.80957C9.6 2.80957 5.5 4.20957 5.1 7.50957C5.1 7.50957 1.9 8.10957 3.6 14.6096C2.3 15.6096 2 17.0096 2 18.0096C2 19.3096 2.4 20.8096 3.2 21.7096C4.9 23.5096 6.3 23.1096 6.3 23.1096C6.3 23.1096 6.9 26.3096 8.2 28.5096L8.2 28.5096Z" transform="translate(7 4.990417)" id="Shape" fill="#FFE0B2" stroke="none" />
      <path d="M15.225 1.9C15.025 0.599998 14.425 0 13.125 0L13.025 0L12.925 0C12.525 0.0999985 11.925 0.299999 10.225 1.5L9.225 2.2C9.025 2.1 8.725 2 8.425 2C7.925 2 7.525 2.2 7.125 2.5L6.125 2L4.425 1.1C3.525 0.699997 2.625 0.399998 1.925 0.399998C1.425 0.399998 1.025 0.499996 0.625 0.699997C0.125 1.1 -0.0750008 1.7 0.0249996 2.5C0.0249996 2.9 0.125 3.4 0.125 3.8C0.325001 5.89999 0.424999 7.39999 2.425 7.5C2.525 7.5 2.625 7.5 2.725 7.5C3.825 7.5 5.125 7.09999 6.325 6.2L7.225 5.6C7.525 5.8 7.925 6 8.325 6C8.825 6 9.225 5.8 9.525 5.6L10.925 5.9C11.525 6 12.025 6.1 12.525 6.1L12.925 6.1C13.425 6.1 13.925 6.1 14.425 5.8C15.025 5.5 15.325 4.8 15.325 3.7C15.325 3.2 15.225 2.7 15.225 2.3L15.225 1.9L15.225 1.9Z" transform="translate(21.57495 35)" id="Shape" fill="#F44336" stroke="none" />
      <path d="M6.527 5.4C6.527 5 6.427 4.6 6.427 4.1C6.327 3.5 6.427 3.1 6.627 2.7C1.627 2.6 0.0270004 0 0.0270004 0C0.0270004 0 -0.273 1.6 1.127 3.4C3.227 5.9 6.427 6.2 6.427 6.2L6.627 6.2C6.627 6 6.627 5.7 6.527 5.4L6.527 5.4Z" transform="translate(15.1731 33.5)" id="Shape" fill="#EEEEEE" stroke="none" />
      <path d="M16 9.3L15.3 7.9C15.2 7.6 15.1 7.3 15 6.8L14.9 6.1L14.2 6C13.3 5.8 11.1 5.2 9.5 3.3C9 2.7 8.7 2 8.5 1.3L8.1 0L7 0.700001C5 2 1.7 4.1 0.6 5L0 5.5L1.5 9.3L16 9.3L16 9.3L16 9.3Z" transform="translate(6.899902 33.70001)" id="Shape" fill="#546E7A" stroke="none" />
      <path d="M1.2 6.4L11.9 6.4L11.2 5C11.1 4.7 11 4.4 10.9 3.9L10.8 3.2L10.1 3.1C9.2 2.9 7 2.3 5.4 0.400002C5.3 0.300003 5.2 0.100002 5.1 0L0 3.4L1.2 6.4L1.2 6.4Z" transform="translate(11 36.59998)" id="Shape" fill="#455A64" stroke="none" />
      <path d="M5.4 2.9C4.8 2.3 3 1 2.3 0.5L1.6 0C1.4 0.200001 1 0.700001 0.300003 1.2L1 1.9C1.3 2.2 1.5 2.7 1.6 3.2L1.6 3.5C1.7 3.9 1.7 4.4 1.7 4.9C1.7 6.6 1.1 6.9 0.799999 7C0.599998 7.1 0.299999 7.2 0 7.2L0.0999985 9.2L4.2 9.2L4.4 8.5C4.9 6.9 5.5 4.6 5.6 3.6L5.6 3.1L5.4 2.9L5.4 2.9Z" transform="translate(35.30005 33.59998)" id="Shape" fill="#546E7A" stroke="none" />
      <path d="M4.3 5.5L4.5 4.8C4.8 4 5 2.9 5.3 2L1.6 0C1.6 0.299999 1.7 0.700001 1.7 1.1C1.7 2.8 1.1 3.1 0.799999 3.2C0.599998 3.3 0.299999 3.4 0 3.4L0.0999985 5.4L4.3 5.5L4.3 5.5L4.3 5.5Z" transform="translate(35.30005 37.5)" id="Shape" fill="#455A64" stroke="none" />
      <path d="M0.3 14.8C0.3 14.8 0.4 14.7 0.3 14.8L0.3 14.8L0.400001 14.7C0.900001 14.3 1.6 14 2.2 14C2.8 14 3.1 14.2 3.4 14.3C4.7 15 5 16.3 5.1 17.2L5.1 17.2L5.1 17.3L5.1 17.4C5.7 17.2 6.3 17 6.5 16.9C6.5 16.8 6.5 16.6 6.4 16.3C6.3 15.9 6.2 15.4 6 14.9C5.6 13.8 5.7 12.4 6.3 10.6L6.4 10.4C6.5 10 6.7 9.6 6.7 9.3C6.7 9 6.8 8.7 6.8 8.6C6.8 8.3 6.7 8.1 6.6 7.8L6.4 7.3L6.7 6.8C7.6 5.3 10.9 0.299997 17.6 0.299997C17.8 0.299997 18 0.299997 18.3 0.299997L18.1 0.299997C17.7 0.0999999 17.2 0 16.7 0C16.5 0 16.2 0 16 0L16 0C10.6 0 7.3 2.3 6.7 2.7L6.6 2.8L6.5 2.9C5.9 3.1 2.8 4.4 2.2 7.1L2 7.4L1.6 7.6C1.2 7.8 0.900001 8.1 0.700001 8.5C9.53674e-07 9.7 -0.0999994 11.5 0.400001 14L0.500001 14.5L0.1 15C0.1 15 0 15.1 0 15.1C0.1 15 0.2 14.9 0.3 14.8L0.3 14.8Z" transform="translate(10 5)" id="Shape" fill="#616161" stroke="none" />
      <path d="M3.1 9.5C3.8 9.9 4.1 10.7 4.2 11.6C4.3 12.5 4.8 12.9 4.8 12.9C4.8 12.9 7.1 12.2 7.5 11.9C7.9 11.6 7.8 10.7 7.7 10.3C7.6 9.9 7.5 9.3 7.3 8.7C6.9 7.7 7.2 6.3 7.6 5.1C7.7 4.5 7.9 4.1 8 3.6C8.1 3.3 8.1 2.9 8.1 2.7C8 1.7 7.6 1.1 7.3 0.8C7.3 0.700001 7.2 0.6 7.2 0.6L6.9 0L6.2 0.1C3.9 0.3 1.9 0.900001 1.8 0.900001L2.3 2.8C2.3 2.8 3.9 2.3 5.8 2.1C5.81216 2.11823 5.82394 2.13573 5.83534 2.15264C6.01142 2.414 6.09392 2.53647 6 3.1C5.9 3.4 5.8 3.9 5.6 4.4C5.2 5.6 4.9 7.1 5.1 8.5C4.8 8.2 4.4 7.9 4 7.7C3.5 7.5 3 7.4 2.5 7.4C1.7 7.4 0.9 7.7 0 8.2L0.7 10.2C1.2 9.5 1.8 9.3 2.3 9.3C2.6 9.3 2.8 9.4 3.1 9.5ZM24 30.2L18 30.2L18 32.2L24 32.2L24 30.2Z" transform="translate(10 10.79999)" id="Shape" fill="#263238" fill-rule="evenodd" stroke="none" />
      <path d="M1.8 8.43176L0 7.63176C0 7.53175 3.7 -0.568244 13 0.0317554L12.9 2.03176C4.9 1.63176 1.8 8.43176 1.8 8.43176L1.8 8.43176Z" transform="translate(15.69995 4.168274)" id="Shape" fill="#263238" stroke="none" />
      <path d="M6.827 2.7C1.727 2.7 0.0270004 0 0.0270004 0C0.0270004 0 -0.273 1.6 1.127 3.4C3.227 5.9 6.427 6.2 6.427 6.2" transform="translate(15.1731 33.5)" id="Shape" fill="#EEEEEE" stroke="none" />
      <path d="M1.38536 6.8C3.68536 9.6 7.18536 10 7.28536 10L7.58536 8C7.48536 8 4.78536 7.7 2.98536 5.6L2.98536 5.5C4.18536 6.1 5.78536 6.5 7.88536 6.5L7.88536 4.5C3.48536 4.5 2.08536 2.4 1.98536 2.3L0.585362 0L0.0853615 2.6C-0.0146379 2.8 -0.314638 4.6 1.38536 6.8ZM20.1854 11.3L20.4854 11.3C21.0854 11.3 21.6854 11.3 22.3854 10.9C23.3854 10.5 23.7854 9.4 23.7854 7.9C23.6854 7.4 23.6854 6.8 23.5854 6.4L23.5854 6.1C23.2854 4.3 22.1854 3.3 20.3854 3.3C19.3854 3.3 17.8854 4.3 15.9854 5.7L15.5854 6L16.7854 7.6L17.2854 7.2C17.9854 6.7 19.8854 5.3 20.4854 5.2C21.2854 5.2 21.5854 5.5 21.6854 6.3L21.6854 6.6C21.6854 7 21.7854 7.5 21.7854 7.9C21.7854 8.3 21.7854 9 21.4854 9.2C21.1854 9.3 20.6854 9.3 20.1854 9.3L20.0854 9.3C18.6854 9.3 17.2854 8.8 17.2854 8.8L16.5854 10.7C16.6854 10.7 18.3854 11.3 20.1854 11.3Z" transform="translate(14.2146 30.70001)" id="Shape" fill="#263238" fill-rule="evenodd" stroke="none" />
      <path d="M1 4.4C1 4.4 0.799999 5 0.4 5C0.199999 5 0 4.6 0 4.2C0 3 0.799999 1.5 1.6 0.8C2.2 0.3 3 0 3.9 0C4.3 0 4.8 0 5.2 0.2C5.7 0.4 6 0.8 6 1.6C6 1.6 6 2 4.7 2C3.9 2 2.9 2.1 2.5 2.5C2.1 2.9 1.5 3.3 1 4.4ZM16.2 1.7C17.2 2 18.1 2.7 18.3 3.5L19.6 2.6C18.9 1.3 18.1 0 16 0C15.6 0 15.4 0.100001 15 0.300001C14.7 0.400001 14 1.1 14 2C14 2 14.9 1.4 16.2 1.7ZM4.8 9.8C5.3 9.9 5.9 10 6.4 10C7.3 10 8.1 9.8 8.8 9.2C9.2 8.8 9.3 8.2 8.9 7.7C8.5 7.2 7.7 4.9 7.4 4.9C7.1 4.9 7 6.3 7.5 8.2C7.1 8.2 5.9 8.2 5.1 8L4.8 8C4.6 8 4.4 8.1 4.3 8.3L4.1 8.6C3.9 9.1 4.2 9.7 4.8 9.8ZM16.4 10L15.9 10C15.3 9.9 15 9.5 15 8.9C15 8.9 15.1 8 15.6 8C16 8 16.5 8.2 16.7 8.2C16.5 7 16.2 5 16.5 5C16.8 5 17.5 7.4 18.9 8.3C19.3 8.6 19.3 9.2 18.7 9.6C17.9 9.9 17.2 10 16.4 10ZM4 32.6L4.3 32.6C7.2 32.6 9.6 30.3 9.8 30.1L8.4 28.7C8.4 28.8 6.3 30.8 4.2 30.6C3.2 30.5 3 30.2 2.8 27.8C2.8 27.4 2.8 26.9 2.7 26.5C2.7 26.2 2.7 25.8 2.9 25.6C3.2 25.3 4.4 25.4 5.6 26L8.6 27.6L9.5 25.8L6.5 24.2C5 23.5 3 23.1 1.7 24C1.2 24.4 0.499998 25.2 0.699999 26.8C0.699999 27.2 0.799999 27.6 0.799999 28C0.9 30.1 1.1 32.4 4 32.6Z" transform="translate(20 11)" id="Shape" fill="#263238" fill-rule="evenodd" stroke="none" />
      <path d="M6.916 11L6.516 11C5.816 11 5.216 10.8 4.816 10.3C4.016 9.4 3.916 8.2 4.216 8C4.35738 7.90574 4.47656 8.01138 4.66773 8.18084C4.88219 8.37095 5.18728 8.64138 5.716 8.8C5.716 8.8 6.416 8.9 6.616 8.9L7.116 8.9C8.416 8.9 9.516 8.6 9.916 8.3C10.016 8.2 10.016 8 10.016 8C10.016 8 10.016 7.7 8.716 6.5C7.416 5.3 7.016 3.8 7.016 2.5C7.016 1 7.216 0 7.416 0C7.716 0 8.016 3.2 10.116 5C11.616 6.3 12.016 7.2 12.016 8.1C12.016 9 11.516 9.5 11.216 9.8C10.116 10.8 8.316 11 6.916 11ZM8.616 14L8.616 12.2C8.67122 12.1724 8.83314 12.1677 9.07652 12.1605C9.7147 12.1418 10.9129 12.1067 12.216 11.6C11.816 13.7 8.716 14 8.616 14ZM1.716 12C1.716 12 3.316 13.9 6.416 14L7.516 14L7.516 12.3C5.216 12.3 1.716 12 1.716 12ZM0.0160007 13.8C0.816002 16.4 1.916 17 4.116 17L5.616 17C7.716 17 8.116 15 8.116 15L4.816 15C2.716 15 1.016 14.7 0.616001 13.6C0.616001 13.6 0.516003 13.4 0.216002 13.5C-0.0839996 13.6 0.0160007 13.8 0.0160007 13.8Z" transform="translate(24.98389 16)" id="Shape" fill="#263238" fill-rule="evenodd" stroke="none" />
      <path d="M3.2 2.61875L1.6 2.01875L1.6 4.01875C1.6 4.01875 0.0999994 3.01875 0 1.31875L0 0.918749C0.0999994 0.21875 0.8 -0.0812511 1.2 0.0187492C2.6 0.418749 3.1 2.21875 3.2 2.61875ZM2 8.01875L1.8 6.01875C1.8 6.01875 2 5.91875 2.4 5.61875C2.7 5.41875 3 5.41875 3.3 5.61875L3.8 6.01875C4.1 6.31875 4.1 6.81875 3.8 7.11875C2.9 7.91875 2.1 8.01875 2 8.01875ZM9.2 12.1187C11.9 15.0187 14.4 16.0187 17.6 16.0187C17.9 16.0187 18.1 16.0187 18.5 15.9187C23.3 15.5187 25.6 12.5187 25.7 12.4187L24 11.2187C23.7 11.4187 22.1 13.6187 18.3 13.9187C15.4 14.1187 12 13.3187 9.6 10.7187C8.91135 9.97271 8.5191 9.19375 8.27205 8.70313C8.08861 8.33883 7.98523 8.13352 7.9 8.21875C7.7 8.41875 7.7 10.5187 9.2 12.1187Z" transform="translate(11.3999 20.98126)" id="Shape" fill="#263238" fill-rule="evenodd" stroke="none" />
      <path d="M0 3C0 4.7 1.3 6 3 6C4.7 6 6 4.7 6 3C6 1.3 4.7 0 3 0C1.3 0 0 1.3 0 3ZM2 3C2 2.4 2.5 2 3 2C3.6 2 4 2.4 4 3C4 3.6 3.6 4 3 4C2.4 4 2 3.6 2 3Z" transform="translate(27 36)" id="Shape" fill="#263238" fill-rule="evenodd" stroke="none" />
      <path d="M2.4 40.0114L33.6 40.0114C34 40.0114 34.4 39.7114 34.5 39.2114C34.9 38.0114 36.1 34.1114 36 32.8114C36 32.3114 36 31.8114 31.5 28.7114C32.7 27.1114 35 23.1114 35 16.6114C35 15.8114 35 15.0114 34.9 14.2114C34.3 5.51136 29.1 0.311357 20.7 0.0113566C14.5 -0.188643 10.8 2.31136 10 2.91136C9.2 3.31136 5.9 4.71136 5.1 7.81136C4.7 8.11136 4.2 8.41136 3.8 9.11136C2.9 10.5114 2.8 12.6114 3.4 15.3114C2.2 16.6114 2 18.1114 2 19.0114C2 20.3114 2.4 22.2114 3.5 23.3114C4.7 24.5114 5.7 24.9114 6.5 25.0114C6.7 26.0114 7.2 27.6114 7.9 29.1114C5.7 30.4114 0.0999999 33.9114 0 34.9114L0 35.3114C0 35.5114 0 35.6114 0.0999994 35.9114L1.5 39.4114C1.6 39.8114 2 40.0114 2.4 40.0114ZM32.8 38.0114L3.1 38.0114L2.1 35.5114C3.5 34.5114 9.1 30.9114 9.8 30.5114C10.1 30.4114 10.2 30.2114 10.3 29.9114C10.4 29.6114 10.3 29.3114 10.2 29.1114C8.9 27.1114 8.4 24.0114 8.4 24.0114C8.4 23.7114 8.2 23.5114 8 23.3114C7.8 23.2114 7.5 23.1114 7.2 23.2114C7.2 23.2114 6.3 23.4114 5.1 22.1114C4.5 21.5114 4.1 20.3114 4.1 19.1114C4.1 18.5114 4.2 17.3114 5.2 16.5114C5.5 16.3114 5.6 15.9114 5.5 15.5114C4.4 11.3114 5.5 9.81136 6.2 9.61136C6.6 9.51136 6.9 9.11136 7 8.71136C7.3 6.01136 10.8 4.81136 10.8 4.81136C10.9 4.71136 11 4.71136 11.1 4.61136C11.2 4.51136 14.6 1.81136 20.6 2.01136C24.9 2.21136 32.2 4.01136 32.9 14.4114C33 15.2114 33 16.0114 33 16.7114C32.9 24.7114 29.3 28.4114 29.3 28.4114C29.1 28.6114 29 28.9114 29 29.2114C29 29.5114 29.2 29.7114 29.4 29.9114C31.3 31.1114 33.4 32.7114 34 33.3114C33.9 34.1114 33.4 36.1114 32.8 38.0114Z" transform="translate(6 3.988647)" id="Shape" fill="#263238" fill-rule="evenodd" stroke="none" />
    </g>
  </g>
</svg>
