<?xml version="1.0" encoding="utf-8"?>
<svg width="32px" height="32px" viewBox="0 0 32 32" version="1.1" xmlns:xlink="http://www.w3.org/1999/xlink" xmlns="http://www.w3.org/2000/svg">
  <desc>Created with Lunacy</desc>
  <g id="Lunacy-icon-Symbol-instance">
    <g id="Lunacy-icon">
      <path d="M0 0L32 0L32 32L0 32L0 0Z" id="Background" fill="none" stroke="none" />
      <path d="M1.33333 3.26667C1.33333 3.93333 1.66667 4 2 4L2 5.33333C0.8 5.33333 0 4.53334 0 3.26667L0 0.666667C0 0.266668 0.266666 0 0.666667 0C1.06667 0 1.33333 0.266668 1.33333 0.666667L1.33333 3.26667ZM4.66667 3.26667C4.66667 3.93333 5 4 5.33333 4L5.33333 5.33333C4.13333 5.33333 3.33333 4.53334 3.33333 3.26667L3.33333 0.666667C3.33333 0.266668 3.6 0 4 0C4.4 0 4.66667 0.266668 4.66667 0.666667L4.66667 3.26667Z" transform="translate(7.333328 22)" id="Shape" fill="#78909C" fill-rule="evenodd" stroke="none" />
      <path d="M1.33333 0L0 0L0 1.33333L1.33333 1.33333L1.33333 0ZM4.66667 0L3.33333 0L3.33333 1.33333L4.66667 1.33333L4.66667 0Z" transform="translate(7.333328 21.33334)" id="Shape" fill="#546E7A" fill-rule="evenodd" stroke="none" />
      <path d="M1.33333 3.26667C1.33333 3.93333 1.66667 4 2 4L2 5.33333C0.800001 5.33333 0 4.53334 0 3.26667L0 0.666667C0 0.266668 0.266666 0 0.666667 0C1.06667 0 1.33333 0.266668 1.33333 0.666667L1.33333 3.26667ZM4.66667 3.26667C4.66667 3.93333 5 4 5.33333 4L5.33333 5.33333C4.13333 5.33333 3.33333 4.53334 3.33333 3.26667L3.33333 0.666667C3.33333 0.266668 3.6 0 4 0C4.4 0 4.66667 0.266668 4.66667 0.666667L4.66667 3.26667Z" transform="translate(16.66667 22)" id="Shape" fill="#78909C" fill-rule="evenodd" stroke="none" />
      <path d="M1.33333 0L0 0L0 1.33333L1.33333 1.33333L1.33333 0ZM4.66667 0L3.33333 0L3.33333 1.33333L4.66667 1.33333L4.66667 0Z" transform="translate(16.66667 21.33334)" id="Shape" fill="#546E7A" fill-rule="evenodd" stroke="none" />
      <path d="M11.0293 7.33333L1.696 0L0 5.03733L11.0293 7.33333Z" transform="translate(18.97066 4.666656)" id="Shape" fill="#84FFFF" stroke="none" />
      <path d="M18 0L1.33333 4.66667L0 8.66667L16.304 5.03733L18 0Z" transform="translate(2.666672 4.666656)" id="Shape" fill="#00E5FF" stroke="none" />
      <path d="M11.0293 2.296L0 0L0.983334 7.26667L11.0293 2.296Z" transform="translate(18.97066 9.70401)" id="Shape" fill="#00B0FF" stroke="none" />
      <path d="M0 3.62933L16.304 0L17.2873 7.26667L0.666667 8.296L0 3.62933Z" transform="translate(2.666672 9.70401)" id="Shape" fill="#0091EA" stroke="none" />
      <path d="M10.046 0L0 4.97067L3.37933 9.33333L10.046 0Z" transform="translate(19.95399 12)" id="Shape" fill="#1976D2" stroke="none" />
      <path d="M0 1.02933L16.6207 0L20 4.36267L2.66667 4.36267L0 1.02933Z" transform="translate(3.333328 16.97067)" id="Shape" fill="#0D47A1" stroke="none" />
    </g>
  </g>
</svg>
