<?xml version="1.0" encoding="utf-8"?>
<svg width="48px" height="48px" viewBox="0 0 48 48" version="1.1" xmlns:xlink="http://www.w3.org/1999/xlink" xmlns="http://www.w3.org/2000/svg">
  <desc>Created with Lunacy</desc>
  <g id="Raspberry-Pi-icon-Symbol-instance">
    <g id="Raspberry-Pi-icon">
      <path d="M0 0L48 0L48 48L0 48L0 0Z" id="Background" fill="none" stroke="none" />
      <path d="M8.90278 0.000425339C8.69078 0.00742531 8.46178 0.0864253 8.20178 0.290425C7.56678 0.0454254 6.95078 -0.0395746 6.39978 0.458425C5.54778 0.349425 5.27178 0.576425 5.06278 0.841425C4.87578 0.839425 3.66578 0.650425 3.10978 1.47942C1.71478 1.31343 1.27378 2.30043 1.77378 3.21843C1.48878 3.65943 1.19378 4.09543 1.85978 4.93743C1.62378 5.40743 1.76978 5.91342 2.32478 6.52943C2.17878 7.18843 2.46678 7.65243 2.98378 8.01542C2.88678 8.91542 3.80978 9.43942 4.08578 9.62543C4.19178 10.1514 4.41178 10.6464 5.46578 10.9204C5.63978 11.7044 6.27378 11.8374 6.88678 12.0034C4.85878 13.1814 3.11878 14.7324 3.13178 18.5384L2.83478 19.0674C0.50878 20.4814 -1.58322 25.0274 1.68878 28.7224C1.90278 29.8784 2.26078 30.7084 2.57978 31.6274C3.05778 35.3324 6.17278 37.0674 6.99378 37.2734C8.19878 38.1894 9.48078 39.0604 11.2158 39.6694C12.8518 41.3574 14.6238 42.0004 16.4058 41.9984C16.4318 41.9984 16.4588 41.9994 16.4848 41.9984C18.2658 42.0004 20.0388 41.3564 21.6738 39.6694C23.4088 39.0614 24.6918 38.1904 25.8968 37.2734C26.7178 37.0674 29.8338 35.3324 30.3098 31.6274C30.6288 30.7084 30.9878 29.8784 31.2018 28.7224C34.4728 25.0274 32.3818 20.4814 30.0558 19.0674L29.7588 18.5374C29.7708 14.7324 28.0298 13.1814 26.0028 12.0034C26.6158 11.8374 27.2498 11.7034 27.4238 10.9194C28.4788 10.6474 28.6988 10.1504 28.8048 9.62442C29.0808 9.43842 30.0028 8.91542 29.9078 8.01342C30.4248 7.65242 30.7128 7.18742 30.5648 6.52942C31.1218 5.91442 31.2668 5.40542 31.0308 4.93742C31.6978 4.09542 31.4018 3.66042 31.1178 3.21842C31.6168 2.30042 31.1768 1.31342 29.7808 1.47942C29.2258 0.650422 28.0148 0.839422 27.8278 0.841422C27.6188 0.576422 27.3418 0.349422 26.4908 0.458422C25.9398 -0.0395782 25.3238 0.0454216 24.6888 0.290422C23.9328 -0.305578 23.4328 0.171422 22.8628 0.352422C21.9508 0.0544217 21.7408 0.463422 21.2928 0.629422C20.2958 0.418422 19.9938 0.876422 19.5158 1.36042L18.9598 1.34942C17.4568 2.23542 16.7108 4.03942 16.4458 4.96542C16.1818 4.03742 15.4368 2.23442 13.9338 1.34942L13.3778 1.36042C12.8988 0.876421 12.5968 0.418421 11.5998 0.629421C11.1518 0.463421 10.9428 0.0544212 10.0288 0.352421C9.65278 0.233425 9.30778 -0.0115747 8.90278 0.000425339L8.90278 0.000425339L8.90278 0.000425339Z" transform="translate(7.555176 2.986572)" id="Shape" fill="#37474F" stroke="none" />
      <path d="M10.917 7.968C9.647 6.552 7.329 4.889 3.342 2.834C6.444 3.887 9.243 5.292 11.587 7.228C14.341 5.925 12.443 2.642 11.099 1.339C11.031 1.683 10.954 1.901 10.866 1.965C10.429 1.488 10.071 1.001 9.508 0.542C9.50778 0.602353 9.5144 0.663863 9.52102 0.725391C9.54392 0.9381 9.56684 1.15101 9.307 1.317C9.005 0.905 8.597 0.537 8.055 0.225C8.2801 0.618283 8.15039 0.775024 8.02 0.932592C7.9992 0.95772 7.97839 0.982868 7.959 1.009C7.545 0.648 7.153 0.283 6.389 0C6.4145 0.0317512 6.44126 0.0634123 6.46802 0.0950716C6.65955 0.321663 6.851 0.548165 6.579 0.807C6.153 0.537 5.725 0.268 4.713 0.0770001C4.76826 0.139561 4.83803 0.202181 4.90786 0.264846C5.12488 0.459609 5.34238 0.654805 5.126 0.85C4.591 0.643 3.999 0.492 3.344 0.405C3.657 0.667 3.919 0.923 3.662 1.126C3.09 0.947 2.3 0.706001 1.529 0.913001L2.017 1.412C2.05859 1.46361 1.35923 1.46716 0.674666 1.47063C0.470438 1.47167 0.267527 1.4727 0.0859995 1.475C0.374 1.882 0.667 2.274 0.839 2.971C0.76616 3.04664 0.419491 3.0124 0.0734375 2.97822C0.0489227 2.9758 0.024411 2.97338 0 2.971C0.379 3.778 1.035 3.983 1.189 4.328C0.957999 4.507 0.637 4.46 0.287 4.339C0.558 4.91 1.129 5.299 1.581 5.76C1.466 5.844 1.267 5.893 0.794999 5.835C1.213 6.285 1.717 6.695 2.313 7.065C2.208 7.19 1.844 7.185 1.507 7.194C2.047 7.731 2.743 8.009 3.395 8.36C3.11887 8.55117 2.90987 8.54238 2.70054 8.53357C2.6635 8.53201 2.62644 8.53045 2.589 8.53C3.051 8.914 3.835 9.115 4.562 9.347C4.424 9.566 4.285 9.624 3.989 9.686C4.76 10.119 5.864 9.921 6.175 10.142C6.101 10.361 5.888 10.502 5.634 10.621C6.875 10.694 10.267 10.575 10.917 7.968ZM16.925 7.968C18.194 6.552 20.513 4.889 24.499 2.834C21.397 3.887 18.599 5.291 16.258 7.228C13.503 5.925 15.401 2.642 16.746 1.339C16.813 1.683 16.89 1.901 16.978 1.965C17.416 1.488 17.773 1.001 18.336 0.542C18.3365 0.602718 18.3299 0.664557 18.3234 0.72639C18.301 0.938496 18.2786 1.15053 18.538 1.317C18.839 0.905 19.248 0.536 19.79 0.225C19.5649 0.618204 19.6946 0.774961 19.8243 0.931856C19.845 0.956912 19.8657 0.981973 19.885 1.008C20.299 0.648 20.692 0.283 21.455 0C21.4295 0.0317512 21.4027 0.0634123 21.376 0.0950716C21.1845 0.321663 20.993 0.548165 21.265 0.807C21.692 0.537 22.119 0.267 23.132 0.0760002C23.0765 0.138827 23.0065 0.201653 22.9365 0.26448C22.7191 0.459653 22.5016 0.654827 22.718 0.85C23.252 0.642 23.846 0.492 24.5 0.405C24.187 0.667 23.924 0.923 24.182 1.126C24.755 0.947 25.544 0.706001 26.315 0.913001L25.827 1.412C25.7873 1.46213 26.447 1.4658 27.1121 1.46949C27.3359 1.47073 27.5604 1.47198 27.759 1.475C27.47 1.882 27.177 2.274 27.005 2.971C27.0778 3.04657 27.423 3.01246 27.7686 2.97832C27.7935 2.97586 27.8183 2.97341 27.843 2.971C27.466 3.778 26.807 3.983 26.655 4.328C26.885 4.507 27.205 4.46 27.555 4.339C27.283 4.91 26.713 5.299 26.262 5.76C26.376 5.844 26.574 5.893 27.047 5.835C26.629 6.285 26.127 6.695 25.529 7.065C25.635 7.19 25.998 7.185 26.336 7.194C25.795 7.731 25.099 8.009 24.447 8.36C24.7231 8.55117 24.9321 8.54238 25.1415 8.53357C25.1785 8.53201 25.2156 8.53045 25.253 8.53C24.793 8.914 24.008 9.115 23.279 9.347C23.418 9.566 23.556 9.624 23.852 9.686C23.081 10.119 21.978 9.921 21.666 10.142C21.742 10.361 21.954 10.502 22.208 10.621C20.968 10.694 17.575 10.575 16.925 7.968Z" transform="translate(10.12402 4.051025)" id="Shape" fill="#64DD17" fill-rule="evenodd" stroke="none" />
      <g id="Group" transform="translate(8.885254 14.78754)">
        <path d="M15.0977 0.0014534C12.8977 -0.0565462 10.7847 1.63545 10.7797 2.61445C10.7737 3.80445 12.5207 5.02645 15.1127 5.05645C17.7607 5.07545 19.4497 4.07945 19.4597 2.85145C19.4687 1.45845 17.0517 -0.020546 15.0977 0.0014534ZM3.17066 6.49945C3.04666 2.50245 6.11466 0.311454 9.80165 0.932454C11.1597 1.16145 3.29166 8.03345 3.17066 6.49945ZM19.9897 1.05145C23.6767 0.427454 26.7457 2.61845 26.6217 6.61645C26.4997 8.15045 18.6307 1.27745 19.9897 1.05145ZM16.9927 12.3855C15.4537 10.0575 15.8107 7.11745 17.7907 5.82245C19.7687 4.52645 22.6207 5.36245 24.1597 7.69045C25.6987 10.0205 25.3407 12.9575 23.3617 14.2545C21.3837 15.5515 18.5317 14.7155 16.9927 12.3855ZM12.4477 6.05845C14.4267 7.35445 14.7827 10.2925 13.2447 12.6215C11.7057 14.9505 8.85366 15.7865 6.87466 14.4895C4.89566 13.1925 4.53966 10.2545 6.07766 7.92645C7.61666 5.59745 10.4697 4.76145 12.4477 6.05845ZM28.2657 16.1265C26.5277 16.8995 25.1117 7.48845 27.2497 8.06045C30.7947 10.0835 30.1787 14.5875 28.2657 16.1265ZM2.55766 8.17845C4.69366 7.60545 3.27866 17.0165 1.54066 16.2445C-0.371345 14.7055 -0.987345 10.2005 2.55766 8.17845ZM15.2377 23.0665C17.8747 23.0525 20.0017 21.0715 19.9877 18.6385L19.9877 18.5925C19.9737 16.1585 17.8247 14.1985 15.1867 14.2105C12.5487 14.2245 10.4227 16.2055 10.4367 18.6385L10.4367 18.6855C10.4497 21.1185 12.5997 23.0785 15.2377 23.0665ZM20.8237 24.3005C19.7457 23.2835 20.5677 20.1265 22.0467 18.3955C23.7377 16.4835 25.5457 15.2385 26.8067 16.2105C27.6537 17.0575 28.1497 20.2385 26.6657 22.1445C24.6227 24.9815 21.8537 25.0915 20.8237 24.3005ZM8.14566 18.9155C9.51165 20.5615 10.1337 23.4545 8.99466 24.3055C7.91566 24.9575 5.29666 24.6895 3.43466 22.0155C2.17966 19.7705 2.34066 17.4885 3.22266 16.8165C4.54066 16.0135 6.57766 17.0965 8.14566 18.9155ZM19.7317 25.9825C19.7257 25.0525 17.1517 24.3495 15.2327 24.4335C13.3267 24.3865 10.4017 25.1965 10.4377 26.2385C10.4067 26.9465 12.7327 28.9925 15.1057 28.8895C17.3957 28.9295 19.7627 26.8875 19.7317 25.9825Z" id="Shape" fill="#FF4081" fill-rule="evenodd" stroke="none" />
      </g>
    </g>
  </g>
</svg>
