<?xml version="1.0" encoding="utf-8"?>
<svg width="32px" height="32px" viewBox="0 0 32 32" version="1.1" xmlns:xlink="http://www.w3.org/1999/xlink" xmlns="http://www.w3.org/2000/svg">
  <desc>Created with Lunacy</desc>
  <defs>
    <linearGradient x1="0.5" y1="-0.06558347" x2="0.5" y2="0.8935001" id="gradient_1">
      <stop offset="0" stop-color="#6DC7FF" />
      <stop offset="1" stop-color="#E6ABFF" />
    </linearGradient>
    <linearGradient x1="0.5" y1="-0.0236767828" x2="0.5" y2="0.9568894" id="gradient_2">
      <stop offset="0" stop-color="#1A6DFF" />
      <stop offset="1" stop-color="#C822FF" />
    </linearGradient>
  </defs>
  <g id="React-Native-icon-Symbol-instance">
    <g id="React-Native-icon">
      <path d="M0 0L32 0L32 32L0 32L0 0Z" id="Background" fill="none" stroke="none" />
      <path d="M0 3C0 1.34315 1.34315 0 3 0C4.65685 0 6 1.34315 6 3C6 4.65685 4.65685 6 3 6C1.34315 6 0 4.65685 0 3Z" transform="translate(13 13)" id="Circle" fill="url(#gradient_1)" stroke="none" />
      <path d="M26 11.7315C26 9.85247 23.8785 8.22297 20.5735 7.23547C20.684 6.71997 20.777 6.21297 20.8355 5.72797C21.164 2.98647 20.594 1.06647 19.23 0.321472C17.8655 -0.423028 15.943 0.135472 13.8145 1.89447C13.5425 2.11897 13.271 2.36347 13 2.61947C12.729 2.36297 12.4575 2.11897 12.1855 1.89447C10.057 0.135472 8.1335 -0.422528 6.77 0.321472C5.406 1.06597 4.836 2.98597 5.1645 5.72797C5.2225 6.21347 5.316 6.71997 5.4265 7.23547C2.1215 8.22297 0 9.85247 0 11.7315C0 13.6105 2.1215 15.24 5.4265 16.2275C5.316 16.743 5.223 17.25 5.1645 17.735C4.836 20.4765 5.406 22.3965 6.77 23.1415C7.1645 23.357 7.605 23.463 8.084 23.463C9.2625 23.463 10.6725 22.8195 12.1855 21.569C12.4575 21.3445 12.729 21.1 13 20.844C13.271 21.1005 13.5425 21.3445 13.8145 21.569C15.3275 22.8195 16.7375 23.463 17.916 23.463C18.395 23.463 18.836 23.3565 19.23 23.1415C20.594 22.397 21.164 20.477 20.8355 17.735C20.7775 17.2495 20.684 16.743 20.5735 16.2275C23.8785 15.24 26 13.6105 26 11.7315ZM18.7505 1.19897C17.7835 0.670972 16.216 1.20597 14.451 2.66447C14.203 2.86947 13.955 3.09047 13.708 3.32347C14.5545 4.21397 15.38 5.25197 16.162 6.38947C17.393 6.51497 18.5495 6.71297 19.608 6.97247C19.706 6.50597 19.79 6.04747 19.8425 5.60797C20.115 3.33397 19.7175 1.72647 18.7505 1.19897ZM7.2495 1.19947C6.2825 1.72647 5.8845 3.33397 6.1575 5.60847C6.2105 6.04797 6.294 6.50647 6.393 6.97347C7.451 6.71447 8.6075 6.51597 9.839 6.39047C10.6205 5.25247 11.4465 4.21497 12.293 3.32447C12.0455 3.09097 11.797 2.86997 11.549 2.66497C10.229 1.57447 9.02 1.00097 8.09 1.00097C7.776 1.00097 7.4935 1.06597 7.2495 1.19947ZM14.8645 6.28647C14.261 5.46147 13.636 4.70047 13 4.02997C12.364 4.70047 11.739 5.46147 11.1355 6.28647C11.7435 6.25097 12.365 6.23147 13 6.23147C13.635 6.23147 14.2565 6.25097 14.8645 6.28647ZM16.9495 13.888C16.523 14.669 16.0695 15.4155 15.5985 16.125C14.773 16.194 13.9055 16.2315 13 16.2315C12.0945 16.2315 11.227 16.194 10.401 16.125C9.9305 15.415 9.4765 14.669 9.05 13.888C8.658 13.1705 8.3005 12.449 7.979 11.7315C8.3005 11.0145 8.658 10.293 9.05 9.57497C9.4765 8.79397 9.93 8.04747 10.401 7.33797C11.227 7.26897 12.0945 7.23147 13 7.23147C13.9055 7.23147 14.773 7.26897 15.599 7.33797C16.0695 8.04797 16.5235 8.79397 16.95 9.57497C17.342 10.2925 17.6995 11.014 18.021 11.7315C17.6995 12.4485 17.3415 13.17 16.9495 13.888ZM7.461 10.488C7.121 9.61847 6.842 8.76547 6.623 7.93997C7.395 7.75197 8.228 7.59297 9.1275 7.47547C8.799 8.00047 8.4775 8.53747 8.173 9.09597C7.9195 9.55847 7.6855 10.0235 7.461 10.488ZM17.8275 9.09597C17.523 8.53797 17.2015 8.00097 16.873 7.47547C17.7725 7.59297 18.6055 7.75197 19.3775 7.93997C19.1585 8.76597 18.8795 9.61897 18.5395 10.488C18.3145 10.0235 18.0805 9.55847 17.8275 9.09597ZM1 11.7315C1 10.4315 2.735 9.07997 5.6585 8.20147C5.9615 9.34097 6.377 10.5285 6.894 11.7315C6.377 12.935 5.9615 14.1225 5.6585 15.2615C2.735 14.383 1 13.0315 1 11.7315ZM19.106 11.7315C19.623 12.9345 20.0385 14.122 20.3415 15.2615C23.265 14.383 25 13.0315 25 11.7315C25 10.4315 23.265 9.07997 20.3415 8.20147C20.0385 9.34047 19.623 10.528 19.106 11.7315ZM6.6225 15.523C7.3945 15.711 8.2275 15.87 9.127 15.9875C8.7985 15.4625 8.477 14.9255 8.172 14.3675C7.9195 13.9045 7.6855 13.44 7.4605 12.975C7.1205 13.844 6.8415 14.697 6.6225 15.523ZM19.377 15.523C19.158 14.697 18.879 13.8445 18.539 12.975C18.3145 13.4395 18.0805 13.9045 17.827 14.367C17.5225 14.9255 17.201 15.4625 16.8725 15.9875C17.772 15.87 18.605 15.711 19.377 15.523ZM19.8425 17.8545C20.1155 20.129 19.7175 21.7365 18.7505 22.2635C17.7835 22.793 16.2165 22.2565 14.451 20.798C14.203 20.593 13.9545 20.372 13.707 20.1385C14.5535 19.248 15.3795 18.2105 16.161 17.0725C17.3925 16.947 18.549 16.7485 19.607 16.4895C19.706 16.9565 19.7895 17.415 19.8425 17.8545ZM7.2495 22.264C8.218 22.793 9.784 22.257 11.549 20.7985C11.797 20.5935 12.045 20.3725 12.292 20.1395C11.4455 19.249 10.62 18.211 9.838 17.0735C8.607 16.948 7.4505 16.75 6.392 16.4905C6.294 16.957 6.21 17.4155 6.1575 17.855C5.885 20.129 6.2825 21.7365 7.2495 22.264ZM13 19.433C12.364 18.7625 11.739 18.0015 11.1355 17.1765C11.7435 17.212 12.365 17.2315 13 17.2315C13.635 17.2315 14.2565 17.212 14.8645 17.1765C14.261 18.0015 13.636 18.7625 13 19.433Z" transform="translate(3 4.268524)" id="Shape" fill="url(#gradient_2)" fill-rule="evenodd" stroke="none" />
    </g>
  </g>
</svg>
