<?xml version="1.0" encoding="UTF-8" standalone="no"?>
<svg
   xmlns:dc="http://purl.org/dc/elements/1.1/"
   xmlns:cc="http://creativecommons.org/ns#"
   xmlns:rdf="http://www.w3.org/1999/02/22-rdf-syntax-ns#"
   xmlns:svg="http://www.w3.org/2000/svg"
   xmlns="http://www.w3.org/2000/svg"
   xmlns:xlink="http://www.w3.org/1999/xlink"
   xmlns:sodipodi="http://sodipodi.sourceforge.net/DTD/sodipodi-0.dtd"
   xmlns:inkscape="http://www.inkscape.org/namespaces/inkscape"
   width="370.08774"
   height="379.47263"
   enable-background="new 0 0 420.171 579.601"
   viewBox="0 0 370.08861 379.4733"
   version="1.1"
   id="svg64"
   sodipodi:docname="worried-bill.svg"
   inkscape:version="0.92.5 (2060ec1f9f, 2020-04-08)">
  <metadata
     id="metadata70">
    <rdf:RDF>
      <cc:Work
         rdf:about="">
        <dc:format>image/svg+xml</dc:format>
        <dc:type
           rdf:resource="http://purl.org/dc/dcmitype/StillImage" />
      </cc:Work>
    </rdf:RDF>
  </metadata>
  <defs
     id="defs68">
    <inkscape:path-effect
       effect="sketch"
       id="path-effect10695"
       is_visible="true"
       nbiter_approxstrokes="1"
       strokelength="20"
       strokelength_rdm="0;1"
       strokeoverlap="0"
       strokeoverlap_rdm="0;1"
       ends_tolerance="0;1"
       parallel_offset="4.6;1"
       tremble_size="5;1"
       tremble_frequency="1"
       nbtangents="5"
       tgt_places_rdmness="1;-1352141518"
       tgtscale="10"
       tgtlength="100"
       tgtlength_rdm="0.3;966183675" />
    <inkscape:path-effect
       effect="roughen"
       id="path-effect10693"
       is_visible="true"
       method="size"
       max_segment_size="1"
       segments="1"
       displace_x="8.7;1"
       displace_y="10;1"
       global_randomize="1;1"
       handles="along"
       shift_nodes="true"
       fixed_displacement="false"
       spray_tool_friendly="false" />
    <linearGradient
       inkscape:collect="always"
       id="linearGradient10629">
      <stop
         id="stop10627"
         offset="0"
         style="stop-color:#000000;stop-opacity:0;" />
      <stop
         id="stop10625"
         offset="1"
         style="stop-color:#0000ff;stop-opacity:1" />
    </linearGradient>
    <linearGradient
       inkscape:collect="always"
       id="linearGradient10589">
      <stop
         style="stop-color:#4f30a0;stop-opacity:1;"
         offset="0"
         id="stop10585" />
      <stop
         style="stop-color:#4f30a0;stop-opacity:0;"
         offset="1"
         id="stop10587" />
    </linearGradient>
    <clipPath
       clipPathUnits="userSpaceOnUse"
       id="clipPath3833">
      <path
         style="fill:none;stroke:#000000;stroke-width:1.00000215px;stroke-linecap:butt;stroke-linejoin:miter;stroke-opacity:1"
         d="m 132.62061,-8.5957808 c -0.81864,1.6372916 -1.44053,3.388767 -2.45594,4.9118746 -0.32116,0.481746 -5.65809,5.8186792 -6.13984,6.1398432 -0.34058,0.2270514 -0.93853,-0.2894351 -1.22796,0 -0.28944,0.289435 0.3661,1.0449139 0,1.2279685 -0.73222,0.3661096 -1.67931,-0.2588784 -2.45595,0 -0.54916,0.1830548 -0.81864,0.8186459 -1.22796,1.2279687 -2.04661,2.0466144 -4.09323,4.0932288 -6.13984,6.1398428 -2.45595,2.455937 -4.91188,4.911875 -7.36782,7.367812 -0.0368,0.03681 -4.66388,4.415884 -4.91187,4.911875 -0.18306,0.366109 0,0.818646 0,1.227969 -0.40933,0.409322 -0.969093,0.710211 -1.227971,1.227968 -0.183055,0.366109 0.289434,0.938533 0,1.227969 -0.289435,0.289434 -0.938534,-0.289436 -1.227969,0 -0.289434,0.289434 0.289435,0.938533 0,1.227968 -0.289434,0.289435 -0.938534,-0.289435 -1.227968,0 -0.289435,0.289435 0.289434,0.938534 0,1.227969 -0.289435,0.289434 -0.938534,-0.289435 -1.227969,0 -0.57887,0.57887 0.258879,1.679301 0,2.455937 -0.57887,1.73661 -1.877067,3.175265 -2.455937,4.911874 -0.129439,0.388318 0.183054,0.86186 0,1.227969 -0.258879,0.517757 -0.90687,0.74632 -1.227969,1.227969 -4.135639,6.203459 -0.0095,0.02845 -1.227968,3.683905 -2.964896,8.894689 0.354028,-1.936024 -2.455937,3.683907 -0.183056,0.366109 0.183054,0.861859 0,1.227969 -0.258879,0.517757 -0.96909,0.710211 -1.227969,1.227968 -0.137613,0.275225 0,4.620072 0,4.911874 0,2.219257 -0.275657,6.666182 0,8.595781 0.238674,1.670719 0.950515,3.247155 1.227969,4.911874 0.134584,0.807508 0,1.637292 0,2.455938 0.409323,1.637291 0.896987,3.256966 1.227968,4.911874 0.488292,2.441463 0.953014,4.893227 1.227969,7.367812 0.135606,1.220458 -0.297827,2.492601 0,3.683906 0.140396,0.561586 1.044913,0.678804 1.227968,1.227968 0.258879,0.776636 -0.366109,1.723719 0,2.455937 0.183055,0.36611 0.938533,-0.289434 1.227969,0 0.262538,0.262539 -0.22567,4.234864 0,4.911876 2.964896,8.894695 -0.354028,-1.936026 2.455937,3.683905 0.183055,0.366109 -0.183054,0.861859 0,1.227969 0.258879,0.517757 0.96909,0.710211 1.227969,1.227971 0.186856,0.37371 0,3.13088 0,3.6839 0,3.28207 0,1.62982 0,4.91188 0,0.81864 0,1.63729 0,2.45593 0,0.40933 0.09928,0.83088 0,1.22798 -0.313937,1.25574 -0.974117,2.41464 -1.227969,3.68389 -0.160549,0.80276 0,1.6373 0,2.45595 0,1.63728 0,3.27458 0,4.91187 0,0.40932 0.289435,0.93853 0,1.22797 -0.289434,0.28943 -0.938534,-0.28944 -1.227968,0 -0.578871,0.57887 0.366109,1.72372 0,2.45594 -0.258879,0.51775 -0.96909,0.71021 -1.227969,1.22797 -0.183055,0.3661 0.289435,0.93853 0,1.22796 -0.289436,0.28944 -0.938534,-0.28943 -1.227969,0 -0.57887,0.57887 0.258879,1.67931 0,2.45594 -0.289435,0.86831 -0.938534,1.58763 -1.227968,2.45594 -0.129439,0.38831 0.183054,0.86186 0,1.22797 -0.517757,1.03551 -1.813739,1.49264 -2.455937,2.45593 -1.48978,2.23468 -0.578919,2.27615 -2.455937,3.68391 -1.180669,0.8855 -2.640334,1.41236 -3.683907,2.45593 -1.043572,1.04358 -1.53399,2.53148 -2.455937,3.68391 -1.446468,1.80809 -3.72057,2.92637 -4.911875,4.91188 -2.850454,8.55136 0.811043,-0.60258 -3.683905,6.13985 -0.227052,0.34057 0.129439,0.83965 0,1.22796 -0.289435,0.86831 -0.818646,1.63729 -1.227969,2.45593 -0.409323,0.81865 -0.580772,1.80875 -1.227969,2.45595 -0.289435,0.28943 -0.861858,-0.18306 -1.227968,0 -0.517757,0.25887 -0.818646,0.81864 -1.227969,1.22796 -0.409323,0.40932 -0.96909,0.71021 -1.227968,1.22797 -0.183056,0.36611 0.183054,0.86187 0,1.22797 -0.258879,0.51776 -0.818646,0.81865 -1.227969,1.22797 -0.409323,0.40932 -0.74632,0.90687 -1.227968,1.22797 -0.761555,0.5077 -1.587633,0.93853 -2.455939,1.22796 -0.388316,0.12944 -0.938533,-0.28943 -1.227968,0 -0.647197,0.6472 -0.580772,1.80875 -1.227969,2.45594 -0.289434,0.28944 -0.938533,-0.28943 -1.227968,0 -0.289435,0.28944 0.183055,0.86186 0,1.22797 -0.258879,0.51776 -0.96909,0.71021 -1.227969,1.22797 -0.183054,0.36611 0.289436,0.93854 0,1.22797 -0.289435,0.28944 -0.938533,-0.28943 -1.227969,0 -0.647196,0.6472 -0.720265,1.69438 -1.227968,2.45594 -0.963298,1.44494 -2.720608,2.23896 -3.683906,3.6839 -0.227051,0.34058 0,0.81865 0,1.22797 0,1.22797 0.201877,2.47265 0,3.68391 -0.212796,1.27678 -1.015172,2.40712 -1.227968,3.68391 -1.926599,11.55959 2.945683,-6.01201 -1.227969,8.59578 -0.355597,1.24458 -1.015172,2.40712 -1.227969,3.6839 -0.201877,1.21126 0.201877,2.47265 0,3.6839 -0.212797,1.27678 -1.044914,2.40253 -1.227968,3.68391 -0.231549,1.62083 0.321099,3.30638 0,4.91188 -0.113526,0.56762 -1.044914,0.6788 -1.227969,1.22796 -0.517757,1.55327 0.397101,3.32347 0,4.91188 -0.221986,0.88794 -1.005982,1.56799 -1.227968,2.45594 -0.198552,0.7942 0,1.63729 0,2.45593 0,2.45594 0,4.91188 0,7.36782 0,0.81864 0,1.63729 0,2.45593 0,0.40932 0.129439,0.83965 0,1.22798 -0.289436,0.8683 -0.938534,1.58762 -1.227969,2.45593 -0.129439,0.38831 0.183054,0.86186 0,1.22796 -0.258878,0.51776 -0.96909,0.71021 -1.227968,1.22798 -0.183056,0.36611 0,0.81864 0,1.22797 0,0.40932 0,0.81864 0,1.22796 0,2.04662 0.25385,4.10904 0,6.13984 -0.209332,1.67466 -0.950516,3.24716 -1.227969,4.91188 -0.134585,0.80751 0.115773,1.64552 0,2.45594 -0.295168,2.06616 -1.02029,4.06306 -1.227969,6.13984 -0.203646,2.03646 0.289435,4.1138 0,6.13985 -0.129439,0.90607 -1.048469,1.55843 -1.227969,2.45593 -0.240824,1.20412 0,2.45594 0,3.68391 0,1.22797 0,2.45593 0,3.68391 0,0.40932 0.09928,0.83086 0,1.22796 -0.313936,1.25575 -1.015171,2.40712 -1.227969,3.68391 -0.104268,0.62561 0.317241,6.73333 0,7.36781 -0.935595,1.87119 -1.639368,0.39893 -1.227968,2.45594 1.581605,7.90802 1.306471,3.41252 4.911875,13.50765 1.002254,2.80631 1.579586,5.74764 2.455937,8.59578 0.761325,2.47431 1.774783,4.87024 2.455937,7.36782 1.825918,6.69502 -0.147924,5.03396 3.683906,9.82374 4.860755,6.07595 -0.242615,-1.47058 6.139843,4.91188 1.447175,1.44717 2.336201,3.37164 3.683906,4.91187 7.946575,9.0818 1.716178,1.63481 8.595781,7.36782 1.228349,1.02362 4.987558,5.90181 7.367811,6.13984 20.793679,2.07936 -2.455885,-4.3661 28.243281,2.45593 5.05427,1.12318 9.71264,3.65613 14.73562,4.91187 5.29024,1.32257 19.53854,3.20324 25.78735,3.68391 3.67304,0.28255 7.3678,0 11.05171,0 5.73052,0 11.46104,0 17.19156,0 2.04662,0 4.11379,-0.28943 6.13985,0 0.90607,0.12944 1.55843,1.04847 2.45593,1.22797 3.23598,0.6472 6.60227,0.51209 9.82375,1.22798 4.17169,0.92704 8.06437,2.98134 12.27969,3.68389 9.11759,1.51961 20.10779,1.22798 29.47124,1.22798 38.84979,0 -3.39631,0.34058 40.52297,-1.22798 4.09062,-0.14609 8.19351,0.24037 12.27968,0 2.88936,-0.16996 5.71333,-0.96592 8.59578,-1.22796 3.04729,-0.27703 9.13443,0 12.27969,0 3.27458,0 6.58924,0.51071 9.82375,0 4.60989,-0.72788 8.95672,-2.6496 13.50766,-3.68391 4.46257,-1.01422 8.98728,-1.74219 13.50765,-2.45593 1.26461,-0.19968 13.31088,-1.39485 15.96359,-2.45595 0.38005,-0.15201 0,-0.81864 0,-1.22796 0,-0.81865 -0.11577,-1.64552 0,-2.45593 0.82054,-5.74377 2.4512,-10.10827 3.68391,-15.9636 3.52478,-16.74274 5.11024,-33.84944 9.82375,-50.34671 0.71119,-2.48918 1.71205,-4.88821 2.45593,-7.36782 2.30258,-7.67523 -0.1041,-2.5287 3.68391,-11.05171 2.0082,-4.51846 2.60298,-4.2721 3.68391,-8.59578 0.27826,-1.11304 -0.0654,-5.55082 0,-6.13984 0.27495,-2.47459 0.81864,-4.91188 1.22797,-7.36782 0,-4.09323 -0.42119,-8.20819 0,-12.27968 2.00753,-19.40619 5.00523,-27.51326 8.59578,-46.66281 0.99217,-5.29159 1.7596,-10.62501 2.45593,-15.9636 0.53205,-4.07908 0.77369,-8.19119 1.22798,-12.27968 0.36443,-3.27988 0.95391,-6.53509 1.22796,-9.82375 0.20396,-2.44746 0,-4.91187 0,-7.36781 0,-1.63729 -0.26917,-3.29686 0,-4.91188 0.13597,-0.8158 1.43514,-3.1735 2.45593,-3.68391 0.36611,-0.18305 0.93854,0.28944 1.22798,0 0.28943,-0.28943 0,-0.81864 0,-1.22796 0,-1.22797 -0.12219,-2.46203 0,-3.68391 3.75944,-26.31613 -0.0731,3.40583 1.22797,-13.50765 1.26823,-16.48704 1.30329,-6.74245 3.6839,-25.78734 0.2882,-2.30561 0,-8.395806 0,-11.051721 0,-1.227968 0,-2.455937 0,-3.683905 0,-2.865261 0.78715,-5.840765 0,-8.595781 -0.22489,-0.787147 -1.63729,0 -2.45594,0 -2.86526,0 -5.74474,0.285104 -8.59578,0 -5.35708,-0.535708 -10.63791,-1.666948 -15.96359,-2.455937 -17.27539,-2.559316 -18.76935,-1.533116 -35.61109,-8.595781 -14.12304,-5.922564 -22.89413,-11.699402 -35.61109,-19.647497 -4.5257,-2.828561 -8.83136,-6.023821 -13.50766,-8.595781 -3.85503,-2.120267 -13.3678,-6.10488 -18.41953,-7.367812 -0.7942,-0.19855 -1.72371,0.36611 -2.45593,0 -0.36611,-0.183054 0.18306,-0.861858 0,-1.227968 -0.25888,-0.517757 -0.81864,-0.818646 -1.22797,-1.227969 -0.81865,-0.818645 -1.7327,-1.551894 -2.45594,-2.455937 -0.92194,-1.152433 -1.63729,-2.455937 -2.45594,-3.683906 -0.81864,-1.227968 -1.53399,-2.531473 -2.45593,-3.683906 -0.72323,-0.904043 -1.86028,-1.463183 -2.45594,-2.455937 -0.66596,-1.109933 -0.74725,-2.482093 -1.22797,-3.683906 -0.33992,-0.84981 -0.88804,-1.606127 -1.22797,-2.4559373 -0.48072,-1.2018133 -0.64909,-2.526166 -1.22796,-3.6839059 -0.66002,-1.3200266 -1.79593,-2.3638793 -2.45594,-3.6839058 -0.57887,-1.15774 -0.71808,-2.49417142 -1.22797,-3.683906 -0.72109,-1.6825386 -1.63729,-3.274583 -2.45594,-4.9118745 -0.40932,-0.8186457 -0.6788,-1.7237182 -1.22797,-2.4559373 -0.69464,-0.9261919 -1.76129,-1.5297452 -2.45593,-2.4559372 -0.54917,-0.732219 -0.58078,-1.808741 -1.22798,-2.455937 -0.64719,-0.647197 -1.80873,-0.580773 -2.45593,-1.227969 -0.28943,-0.289435 0.28944,-0.938534 0,-1.227969 -0.0726,-0.07261 -1.9742,0.06022 -2.45594,0 -14.45471,-1.806838 -3.14617,-1.227968 -20.87546,-1.227968 -13.09834,0 -26.19667,0 -39.295,0 -9.84826,0 -9.11867,-0.463096 -18.41953,1.227968 -1.66046,0.301902 -3.24716,0.950516 -4.91187,1.227969 -0.80751,0.134584 -1.67931,-0.258878 -2.45594,0 -0.54917,0.183054 -0.74632,0.90687 -1.22797,1.227969 -0.76155,0.507703 -1.58763,0.938534 -2.45594,1.227968 -0.84464,0.281546 -2.95938,-0.362263 -3.6839,0 -0.51776,0.258879 -0.71021,0.96909 -1.22798,1.227969 -0.73221,0.36611 -1.87706,-0.57887 -2.45593,0 -2.54071,2.5407108 3.88255,-0.09932 -1.22796,2.4559372 -0.36611,0.1830548 -0.81866,0 -1.22798,0 -0.40932,0 -0.81864,0 -1.22797,0 -2.04661,0 -4.09323,0 -6.13984,0 z"
         id="path3835"
         inkscape:connector-curvature="0" />
    </clipPath>
    <linearGradient
       inkscape:collect="always"
       xlink:href="#linearGradient10589"
       id="linearGradient10591"
       x1="46.947046"
       y1="289.80067"
       x2="420.1741"
       y2="289.80067"
       gradientUnits="userSpaceOnUse" />
    <linearGradient
       inkscape:collect="always"
       xlink:href="#linearGradient10629"
       id="linearGradient10633"
       gradientUnits="userSpaceOnUse"
       x1="46.947046"
       y1="289.80067"
       x2="420.1741"
       y2="289.80067" />
    <linearGradient
       inkscape:collect="always"
       xlink:href="#linearGradient10629"
       id="linearGradient10685"
       gradientUnits="userSpaceOnUse"
       x1="46.947046"
       y1="289.80067"
       x2="420.1741"
       y2="289.80067" />
  </defs>
  <sodipodi:namedview
     pagecolor="#ffffff"
     bordercolor="#666666"
     borderopacity="1"
     objecttolerance="10"
     gridtolerance="10"
     guidetolerance="10"
     inkscape:pageopacity="0"
     inkscape:pageshadow="2"
     inkscape:window-width="869"
     inkscape:window-height="558"
     id="namedview66"
     showgrid="false"
     inkscape:zoom="0.81435476"
     inkscape:cx="188.91155"
     inkscape:cy="191.45354"
     inkscape:window-x="262"
     inkscape:window-y="57"
     inkscape:window-maximized="0"
     inkscape:current-layer="g10583" />
  <g
     id="g62"
     style="display:inline;fill-rule:evenodd"
     clip-path="url(#clipPath3833)"
     transform="translate(-33.035067,-1.142981e-4)">
    <g
       id="g10641"
       style="opacity:0.66199999;fill:#ad0000;fill-opacity:1;stroke:none;stroke-opacity:1">
      <path
         inkscape:connector-curvature="0"
         id="path30"
         d="m 247.03,147.2 c 1.076,9.076 -0.884,15.117 -5,19 6.408,21.561 -11.115,20.588 -30,18 -4.673,-12.08 12.088,-25.254 3,-39 10.85,-4.61 24.09,-5.84 32,2 z m -21,10 c 2.873,3.58 12.043,2.296 12,-3 -1.84,-5.78 -12.98,-4.82 -12,3 z m -4,17 c 3.502,1.707 13.478,2.479 12,-4 -4.22,-1.6 -13.42,-4.5 -12,4 z"
         style="fill:#ad0000;fill-opacity:1;stroke:none;stroke-opacity:1" />
      <path
         inkscape:connector-curvature="0"
         id="path32"
         d="m 267.03,147.2 c -1.452,14.214 -6.209,25.124 -10,37 -2.928,-0.261 -3.072,2.261 -6,2 -1.614,-1.386 -3.166,-2.833 -5,-4 3.294,-9.595 9.486,-19.735 8,-31 3.81,-3 6.66,-5.91 13,-4 z"
         style="fill:#ad0000;fill-opacity:1;stroke:none;stroke-opacity:1" />
      <path
         inkscape:connector-curvature="0"
         id="path34"
         d="m 286.03,148.2 c 3.235,9.715 -5.206,16.02 -6,25 3.309,4.844 10.109,-0.011 14,4 -0.162,1.163 0.221,1.779 1,2 0.044,4.377 -2.496,6.17 -4,9 h -19 c -0.903,-1.763 -2.237,-3.097 -4,-4 -0.339,-12.864 8.612,-21.125 7,-32 2.71,-1.99 7.22,-6.26 11,-4 z"
         style="fill:#ad0000;fill-opacity:1;stroke:none;stroke-opacity:1" />
      <path
         inkscape:connector-curvature="0"
         id="path36"
         d="m 320.03,150.2 c -1.125,10.208 -6.538,16.128 -8,26 6.209,1.495 15.947,-3.253 17,4 0.421,2.901 -2.338,4.58 -4,8 -9.11,-1.033 -18.361,1.736 -25,0 -0.116,-16.88 9.329,-20.728 8,-37 3.03,-1.85 8.72,-5.2 12,-1 z"
         style="fill:#ad0000;fill-opacity:1;stroke:none;stroke-opacity:1" />
    </g>
    <g
       id="g10518"
       style="opacity:1;fill:url(#linearGradient10591);fill-opacity:1">
      <path
         style="display:inline;fill:url(#linearGradient10591);fill-opacity:1"
         inkscape:connector-curvature="0"
         id="path2"
         d="m 230.03,54.198 c 6.417,-1.771 1.812,-13.958 1,-18 7.363,-0.547 7.723,8.962 7,16 -0.255,2.484 -2.23,4.229 -3,7 -3.105,11.179 -3.126,25.538 0,34 7.141,-1.783 16.469,1.832 24,-1 5.083,-13.25 -6.477,-14.952 -17,-14 1.457,-16.418 5.277,-34.453 -4,-46 -2.498,-3.109 -4.553,-6.362 -7,-9 -2.192,-2.363 -8.763,-3.18 -6,-8 9.929,-2.21 14.089,8.009 19,17 5.241,9.595 10.25,23.579 5,39 4.032,3.301 11.833,2.834 16,6 1.191,18.191 -5.431,28.569 -9,42 4.721,0.189 8.639,-8.079 10,-13 1.081,-3.907 5.723,-14.958 5,-20 -0.792,-5.527 -7.011,-7.813 -4,-13 5.889,-3.282 10.698,1.452 17,2 16.449,1.43 34.692,-2.187 46,-1 6.661,0.699 12.462,4.263 19,5 1.912,2.754 3.896,5.438 7,7 2.433,18.432 -10.499,21.501 -17,31 3.183,4.229 17.207,-0.922 21,5 1.247,1.947 -4.558,14.667 -6,19 -0.988,2.97 -0.945,7.275 -2,11 -0.919,3.248 -2.133,5.722 -3,9 -1.684,6.363 -2.328,13.807 -4,20 -0.613,2.271 -3.457,4.775 -4,7 -0.521,2.131 0.474,4.32 0,6 -0.747,2.649 -4.434,10.68 -5,14 -0.484,2.841 0.34,6.243 0,9 -1.179,9.564 -4.242,18.563 -6,27 -1.459,7.002 -3.023,13.209 -5,20 -1.03,3.54 -2.766,10.656 -2,16 -2.237,7.135 -7.612,23.054 -9,32 -0.441,2.848 0.608,5.908 0,9 -1.843,9.362 -5.656,18.565 -7,28 -1.68,11.795 -0.387,23.883 -6,34 6.125,6.708 11.379,14.061 19,20 1.214,0.946 1.657,2.842 3,4 2.46,2.121 6.177,3.528 8,6 7.807,10.585 2.602,27.846 11,40 6.232,0.229 10.889,-4.658 16,-6 3.828,-1.005 10.032,-1.015 15,-1 12.125,0.036 18.347,0.379 28,8 4.779,3.773 7.586,7.344 11,12 4.795,6.538 8.982,14.425 8,28 -0.266,3.674 -3.324,18.63 -6,24 -5.587,11.213 -21.88,19.197 -32,28 -11.519,1.402 -21.247,0.504 -31,2 -4.255,0.652 -8.573,3.401 -13,4 -9.649,1.306 -16.401,1.265 -25,4 -11.996,3.815 -24.051,8.894 -34,15 -3.938,2.418 -7.165,6.918 -12,8 -4.426,0.99 -10.836,-0.177 -17,0 -18.887,0.541 -30.67,-1.995 -46,-11 -4.054,-7.581 -13.163,-10.945 -18,-18 -2.061,-3.006 -3.23,-7.668 -5,-11 -1.824,-3.435 -3.211,-7.01 -6,-10 0.598,-6.265 -2.195,-9.139 -5,-12 -7.855,-30.849 -11.414,-66.16 -8,-101 0.753,-7.688 3.479,-15.252 3,-23 -7.456,4.285 -10.026,15.104 -14,25 -1.247,3.104 -3.448,5.561 -4,8 -1.362,6.014 1.03,11.964 -3,16 -0.455,10.431 -1.921,22.437 0,38 0.585,4.738 2.133,9.354 3,15 2.432,15.834 12.094,36.167 13,44 1.224,10.577 -2.159,30.322 -15,22 -2.926,-4.484 1.697,-11.642 -2,-14 -6.896,0.771 -9.611,5.722 -13,10 -6.644,2.253 -17.107,6.795 -27,6 -11.192,-0.899 -23.132,-9.245 -15,-20 8.015,1.716 32.302,5.204 38,-4 -2.672,-9.676 -14.013,-10.166 -22,-14 -3.438,-1.65 -5.039,-5.502 -9,-5 -2.194,-4.807 -6.465,-7.535 -9,-12 -1.587,-15.227 7.371,-31.06 -7,-35 -4.891,-10.451 -9.505,-19.113 -14,-31 -3.077,-8.137 -6.927,-27.292 -4,-40 1.815,-7.878 10.374,-18.646 15,-26 3.633,-5.773 4.833,-8.032 9,-13 8.414,-10.032 19.616,-24.259 29,-33 4.834,-13.021 10.461,-19.091 14,-33 -4.642,-3.747 -8.941,0.157 -13,2 -12.189,5.533 -24.855,14.138 -41,16 -6.499,-12.611 -22.344,-24.502 -26,-39 -0.875,-3.472 -1.921,-15.472 0,-19 6.346,-11.652 17.652,-21.769 22,-37 1.399,-5.066 -4.588,-2.746 -4,-7 1.247,-7.087 6.968,-9.698 11,-14 -0.698,-3.635 -4.484,-4.183 -5,-8 2.859,-30.474 20.146,-46.521 41,-59 -8.029,-12.056 -7.457,-31.896 9,-34 -4.956,-5.184 -12.845,-16.168 -17,-26 -2.609,-6.174 -6.169,-13.847 -4,-24 2.028,-9.494 11.124,-16.354 22,-19 5.427,-3.906 8.072,-10.595 11,-17 11.581,-9.587 31.569,-13.113 51,-12 12.269,0.703 21.4,8.233 30,11 2.734,6.102 7.779,7.221 9,14 0.836,4.642 -1.697,9.039 -1,14 0.83,5.91 5.82,10.393 7,14.998 z m -95,-24 c -0.866,4.723 5.429,5.841 3,9 -11.254,1.413 -19.058,6.275 -21,17 3.8,3.07 4.815,-3.328 10,-2 2.557,2.675 -0.603,5.273 0,9 6.591,9.612 5.211,25.725 11,38 -1.837,1.497 -2.493,4.173 -5,5 -5.006,0.673 -7.74,-0.926 -12,-1 -19.554,9.024 2.236,39.756 18,28 0.534,-3.466 -1.485,-9.485 2,-10 5.352,5.223 5.23,12.547 9,18 8.989,13.002 27.278,16.794 44,22 6.307,-5.589 5.999,-13.756 8,-22 -1.613,-2.387 -8.811,0.811 -9,-3 1.438,-5.896 11.383,-3.283 12,-10 -11.98,-1.265 -19.915,9.75 -28,6 4.994,-9.029 18.783,-8.277 29,-12 3.3,-1.202 5.026,-3.531 8,-4 6.524,-1.028 13.663,2.753 18,-2 -2.817,-8.987 0.004,-15.461 -6,-23 -0.74,-10.56 2.241,-24.042 0,-35 -0.239,-1.171 -2.193,-3.215 -3,-5 -1.598,-3.536 -1.988,-9.327 -3,-11 -0.768,-1.269 -6.948,-7.288 -10,-9 -9.308,-5.221 -15.187,-0.658 -23,1 -8.523,1.809 -15.58,0.828 -24,2 -1.79,-1.877 -3.571,-3.762 -5,-6 -3.497,2.079 -13.89,6.135 -15,-1 1.923,-4.41 4.901,-7.765 7,-12 -7.01,-1.504 -13.03,6.17 -15,12.998 z m 101,73.002 c 1.049,4.618 2.832,8.501 2,15 3.406,1.151 7.947,2.272 11,1 0.9,-6.082 5.654,-9.071 6,-18 -6.18,-1.14 -13.76,-1.468 -19,2 z m 26,24 c -11.052,-0.145 -36.134,-5.121 -45,-2 -6.493,2.286 -9.103,16.195 -12,24 -2.555,6.88 -3.84,8.783 -2,14 -6.596,9.07 -5.785,25.548 -10,37 -3.01,2.716 -4.462,-2.188 -9,-1 -5.819,11.181 -13.354,20.646 -18,33 1.182,3.693 1.102,7.762 0,12 2.779,1.99 1.544,5.035 3,8 2.407,4.903 8.771,7.796 8,12 -12.73,-2.603 -13.652,-17.014 -20,-26 -12.303,6.65 -3.591,28.205 2,33 10.179,8.73 26.783,-1.693 24,-17 7.335,-4.526 16.78,-14.597 26,-19 3.042,-1.453 12.017,-5.979 15,0 0.498,5.165 -7.517,1.816 -10,4 -10.128,5.205 -18.318,12.349 -27,19 -0.104,3.104 3.146,2.854 2,7 -5.9,20.331 -7.994,49.022 -9,71 -5.773,9.907 -2.857,29.656 -4,36 -0.459,2.548 -2.651,4.476 -3,7 -0.628,4.546 0.541,10.246 0,15 -0.766,6.734 -3.363,13.331 -4,20 -1.958,20.492 -0.149,49.461 2,64 0.991,6.704 -0.029,14.192 2,21 0.675,2.266 3.092,4.428 4,7 5.194,14.718 7.462,25.34 14,35 6.082,8.986 10.753,12.616 20,18 5.254,3.059 11.062,6.989 15,8 30.251,7.763 52.611,-7.089 60,-30 -12.51,-2.294 -21.328,12.751 -34,13 -6.43,0.126 -10.045,-3.039 -17,-5 -6.002,-10.664 -14.789,-15.073 -13,-31 2.481,-22.094 17.238,-31.966 35,-37 9.147,3.372 28.237,-3.637 40,-7 -1.195,-8.235 -4.061,-16.294 -5,-25 -1.049,-9.711 0.249,-19.618 1,-30 1.319,-18.243 0.354,-31.703 2,-43 1.188,-8.155 1.854,-18.217 4,-30 0.398,-2.188 2.422,-3.732 3,-6 3.407,-13.356 3.13,-28.21 6,-42 2.769,-13.302 10.219,-26.057 10,-40 6.282,-8.884 4.801,-22.612 8,-36 0.477,-1.996 2.497,-4.237 3,-6 1.397,-4.897 0.776,-10.318 2,-15 1.529,-5.85 5.905,-10.808 4,-17 4.748,-6.907 6.652,-16.197 7,-25 3.744,-8.59 6.88,-17.787 9,-28 -24.6,-3.18 -61.73,0.36 -89,0 z m -84,70 c 10.569,-3.097 14.936,-12.397 16,-25 -12.383,1.383 -16.213,-5.787 -27,-6 2.96,12.2 8.42,20.79 11,31 z m 201,336 c 6.39,-5.182 16.46,-10.204 22,-18 1.254,-1.764 1.592,-5.457 3,-8 1.426,-2.576 4.332,-4.977 5,-7 2.149,-6.513 1.828,-17.105 0,-22 -9.06,-24.248 -46.904,-32.505 -67,-12 -23.19,2.551 -43.793,14.344 -69,18 2.941,7.631 11.582,9.848 16,19 7.913,16.395 4.195,39.798 -4,54 28.3,-11.04 55.77,-22.9 94,-24 z m -133,-45 c -7.391,7.276 -14.725,14.609 -17,27 2.996,12.671 7.425,23.908 21,26 9.576,-2.757 14.818,-9.848 15,-22 -1.008,-4.326 -5.969,-4.697 -6,-10 4.412,-4.921 14.405,-4.262 19,-9 -4.56,-10.73 -17.03,-14.42 -32,-12 z m 23,24 c 0.766,9.141 1.18,16.036 -1,24 6.744,-0.59 8.595,-6.072 17,-5 5.193,-7.752 1.314,-16.955 -2,-24 -6.56,-0.22 -9.7,2.97 -14,5 z" />
      <path
         inkscape:connector-curvature="0"
         id="path6"
         d="m 213.03,56.198 c -6.147,0.813 -7.512,-3.154 -13,-3 -8.183,2.15 -10.227,10.44 -21,10 -3.749,-1.251 -4.405,-5.595 -8,-7 -10.607,0.393 -12.345,9.655 -23,10 0.78,-3.119 6.39,-7.006 11,-10 9.6,-6.234 17.22,-9.117 23,2 7.98,-3.428 28.1,-21.859 31,-2 z"
         style="fill:url(#linearGradient10591);fill-opacity:1" />
      <path
         inkscape:connector-curvature="0"
         id="path8"
         d="m 220.03,77.198 c -5.804,-1.863 -11.771,-3.562 -16,-7 -1.12,-14.754 25.06,-1.379 16,7 z"
         style="fill:url(#linearGradient10591);fill-opacity:1" />
      <path
         inkscape:connector-curvature="0"
         id="path10"
         d="m 166.03,76.198 c -3.621,2.379 -5.385,6.615 -12,6 -7.254,-12.591 21.299,-24.776 19,-11 -0.56,3.32 -2.38,4.079 -7,5 z"
         style="fill:url(#linearGradient10591);fill-opacity:1" />
      <path
         inkscape:label="path14"
         inkscape:connector-curvature="0"
         id="path14"
         d="m 196.03,83.198 c 3.807,0.324 2.856,2.554 5,7 4.529,9.395 12.913,11.607 5,23 -4.517,-0.817 -12.594,1.927 -14,-2 -1.826,-8.159 9.05,-3.617 10,-9 0.68,-8.512 -10.29,-10.169 -6,-19.002 z"
         style="fill:url(#linearGradient10591);fill-opacity:1" />
      <path
         inkscape:connector-curvature="0"
         id="path16"
         d="m 218.03,86.198 v 6 c -2.342,2.128 -7.95,3.003 -10,0 -1.85,-7.313 6.33,-10.225 10,-6 z"
         style="fill:url(#linearGradient10591);fill-opacity:1" />
      <path
         inkscape:connector-curvature="0"
         id="path18"
         d="m 168.03,90.198 c 8.388,-5.948 12.478,13.841 0,10 -2.69,-2.338 -4.49,-8.223 0,-10.002 z"
         style="fill:url(#linearGradient10591);fill-opacity:1" />
      <path
         inkscape:connector-curvature="0"
         id="path22"
         d="m 133.03,126.2 c -4.452,-4.59 -5,-14.831 -16,-10 -0.03,-15.96 28.79,-0.74 16,10 z"
         style="fill:url(#linearGradient10591);fill-opacity:1" />
      <path
         inkscape:connector-curvature="0"
         id="path26"
         d="m 170.03,121.2 h 5 c -0.349,7.508 -3.969,17.786 4,23 2.578,1.422 7.95,0.05 9,3 -5.729,8.066 -18.15,-1.448 -20,-9 -1.53,-6.24 1.42,-11.05 2,-17 z"
         style="fill:url(#linearGradient10591);fill-opacity:1" />
      <path
         inkscape:connector-curvature="0"
         id="path44"
         d="m 221.03,197.2 c 1.578,2.755 3.402,5.265 6,7 -3.668,6.37 -13.842,4.545 -21,7 -4.928,1.69 -9.464,6.628 -14,4 3.217,-7.117 14.195,-6.472 20,-11 -8.893,-3.772 -17.984,5.86 -25,4 3.96,-9.55 18.32,-11.09 34,-11 z"
         style="fill:url(#linearGradient10591);fill-opacity:1" />
      <path
         inkscape:connector-curvature="0"
         id="path46"
         d="m 233.03,212.2 c -3.084,4.741 -16.859,3.591 -21,4 0.869,-2.909 1.497,-1.125 4,-1 3.56,-3.46 12.84,-9.03 17,-3 z"
         style="fill:url(#linearGradient10591);fill-opacity:1" />
      <path
         inkscape:connector-curvature="0"
         id="path48"
         d="m 228.03,220.2 c -2.906,5.104 -9.286,4.126 -14,6 -5.976,2.375 -11.298,8.526 -19,8 0.224,-5.11 6.224,-4.443 8,-8 10.65,1.08 14.53,-13.35 25,-6 z"
         style="fill:url(#linearGradient10591);fill-opacity:1" />
      <path
         inkscape:connector-curvature="0"
         id="path50"
         d="m 203.03,220.2 c 0.349,3.473 -4.696,4.186 -6,3 v -3 c 2.33,-0.31 4.13,-1.96 6,0 z"
         style="fill:url(#linearGradient10591);fill-opacity:1" />
    </g>
    <g
       style="display:inline;opacity:0.5;fill:url(#linearGradient10633);fill-opacity:1"
       id="g10583">
      <path
         style="display:inline;fill:url(#linearGradient10685);fill-opacity:1"
         d="m 230.03,54.198 c 8.16684,-3.187829 -3.79118,-27.964383 7.53225,-12.844375 0.96437,18.729401 -18.65249,59.205145 15.54481,51.944641 27.43631,-4.660339 -21.05175,-24.917035 -10.77996,-18.195611 3.77328,-19.431027 3.05137,-43.94352 -16.15523,-54.98328 1.73427,-15.7741198 23.1355,14.607062 23.12761,24.568938 4.79925,14.74918 -6.65192,32.016323 15.73052,32.509687 4.06531,13.267861 -11.51092,36.46424 -5.63722,40.7405 10.52424,-12.68166 13.39704,-30.649094 7.63722,-44.7405 21.83882,4.198503 45.37395,-0.225861 67.85945,1.9725 32.75278,0.90324 17.8578,32.55723 5.80119,43.21363 34.03562,-5.26689 8.51046,30.05681 7.23905,47.75237 -6.86317,23.73499 -12.00385,46.97127 -16.38633,71.62833 -5.78926,26.48444 -12.56028,52.40115 -17.45074,78.84167 -2.78492,23.1674 -14.60459,51.38559 -8.58159,71.71127 17.93062,17.05362 34.79829,33.22779 33.95538,60.1061 13.13967,7.06098 40.48682,-11.73598 58.08631,3.2438 21.96476,13.25099 27.82455,41.55744 17.49249,64.10799 -12.71621,20.61185 -35.50796,35.24768 -60.35546,31.96439 -22.56142,6.4247 -47.10643,6.32124 -67.83695,19.07472 -17.29054,16.69356 -41.95695,14.09315 -63.84701,9.77172 -18.26648,-5.55145 -34.70862,-19.63823 -41.97579,-37.38849 -9.61042,-16.87545 -15.50907,-35.19649 -17.46883,-55.1944 -4.69443,-30.16012 -2.96037,-60.83753 1.46883,-90.8056 -17.36684,18.85335 -21.39385,46.11639 -21.96416,70.88771 -0.42184,26.11381 9.74124,50.53503 16.96416,75.11229 6.96101,20.44177 -19.46056,33.68435 -17,8 -12.99392,13.19606 -53.208238,28.36935 -57.149289,-0.0896 5.641628,-6.62003 51.660279,5.18296 34.120079,-15.58128 C 96.173972,526.32537 78.617812,507.32715 87.141777,481.98873 72.025322,463.78652 60.151799,438.13828 59.987469,412.66492 61.767703,387.14115 82.808105,368.01218 97.288589,348.43284 110.22309,334.48946 129.21133,312.15735 124.6112,295.67056 105.64774,298.33585 78.365471,329.62393 65.856298,303.48459 52.046705,289.78859 38.106251,266.2766 53.533281,248.64292 64.516358,236.72759 71.906959,221.68685 67.707828,208.62564 83.115077,198.10376 64.758747,178.03164 80.760439,162.4285 87.572381,142.31384 121.43879,139.22488 108.01004,116.69691 105.35929,99.509375 132.07666,100.38945 113.22962,86.941 97.380207,69.798748 93.3711,33.8388 123.03,29.198 132.43156,5.9447676 157.77525,-1.5832633 181.38235,0.04402295 205.53132,0.43485414 229.90004,17.497395 224.30797,43.387141 c 1.64422,3.753286 4.56527,6.822874 5.72203,10.810859 z m -95,-24 c 12.93661,13.679971 -26.12263,11.826404 -15.56352,26.795906 15.1121,-7.210878 9.64552,28.559187 16.69912,39.441256 5.36086,16.983078 -34.40171,3.084253 -21.0265,27.696188 5.11943,14.46296 27.11845,15.53552 25.8909,-0.93335 6.12905,23.28433 27.63965,34.73152 49.84891,39.03785 13.87828,-2.0643 11.25051,-24.19198 3.05427,-25.88483 22.31276,-9.57343 -0.581,-8.89846 -10.80201,-1.68638 -14.89722,-5.22014 20.37757,-10.52327 27.02108,-14.74152 14.0967,-0.65109 27.02317,-0.76748 19.6719,-18.50436 C 221.1316,80.468663 233.79571,51.467056 212.77206,35.148047 196.74453,22.139894 171.45559,47.129852 158.03,30.198 c -14.16327,9.595057 -18.28948,-4.311209 -8,-13 -7.62721,-1.418665 -13.0964,6.680263 -15,13 z m 101,73.002 c -2.60942,17.20432 15.38994,23.41539 18.04309,3.72414 C 260.1932,95.742822 240.15469,100.97652 236.03,103.2 Z m 26,24 c -18.91851,0.34096 -51.57039,-13.63383 -54.81591,15.27873 -8.50503,17.66117 -5.83315,46.19515 -18.11109,57.79427 -16.32854,6.20887 -32.92279,41.58612 -14.88125,58.18913 4.0458,15.14341 -16.21228,-12.43926 -17.19175,-20.26213 -23.30287,17.74574 18.49399,56.50339 26.18527,21.48332 1.50677,-11.55392 33.97337,-36.22762 39.8115,-21.98646 -23.8641,3.87008 -39.45812,20.45406 -37.75061,44.08337 -3.12272,29.36552 -7.86356,58.183 -8.9829,87.45781 -4.70477,25.58955 -9.40082,52.47429 -7.80339,79.19433 0.88686,26.80159 3.74789,52.73282 15.03613,77.16438 9.80121,31.79166 49.99092,54.65514 81.07725,38.106 15.70029,-5.03365 30.89303,-39.62247 4.4875,-20.95637 -24.42447,22.97764 -58.13644,-13.84288 -44.43157,-39.73389 8.02911,-23.16123 33.67602,-25.94876 54.17078,-27.47958 32.55527,-0.0921 5.55411,-32.91005 13.57945,-52.63111 2.44428,-27.87235 0.37958,-56.63046 8.05309,-83.6718 6.03675,-30.81613 10.70733,-62.85971 21.01786,-92.52025 4.32966,-25.61014 9.32879,-51.1614 17.75925,-75.13411 -0.2435,-18.73437 26.9941,-53.08504 -8.65914,-45.66658 C 307.71909,125.5575 284.88975,127.41094 262.03,127.2 Z m -84,70 c 15.0687,-4.37521 23.68532,-30.03454 1.9015,-27.4015 -27.15858,-14.53984 -1.66886,17.09614 -1.9015,27.4015 z m 201,336 c 19.0695,-10.7557 36.74611,-31.93415 30,-55 -14.69096,-34.82718 -55.28208,-22.15771 -79.81893,-9.70488 -17.01444,6.36938 -44.32621,10.86047 -54.83039,18.33684 18.63188,12.94325 23.19488,37.54809 15.84435,58.24462 -14.09066,24.28036 22.64377,-2.61438 35.24846,-2.7494 C 342.815,536.92266 360.8557,533.66865 379.03,533.2 Z m -133,-45 c -26.67036,11.04906 -16.03738,65.0398 12.90631,48.03163 15.1717,-12.6244 -10.90077,-32.03347 14.80686,-33.31855 C 286.80198,492.62179 253.73647,484.22138 246.03,488.2 Z m 23,24 c 3.08155,10.62832 -6.8699,32.4508 10.74627,19.24603 16.46282,-0.37121 4.9682,-38.34988 -10.74627,-19.24603 z"
         id="path10557"
         inkscape:connector-curvature="0" />
      <path
         style="fill:url(#linearGradient10633);fill-opacity:1"
         d="m 213.03,56.198 c -6.147,0.813 -7.512,-3.154 -13,-3 -8.183,2.15 -10.227,10.44 -21,10 -3.749,-1.251 -4.405,-5.595 -8,-7 -10.607,0.393 -12.345,9.655 -23,10 0.78,-3.119 6.39,-7.006 11,-10 9.6,-6.234 17.22,-9.117 23,2 7.98,-3.428 28.1,-21.859 31,-2 z"
         id="path10559"
         inkscape:connector-curvature="0" />
      <path
         style="fill:url(#linearGradient10633);fill-opacity:1"
         d="m 220.03,77.198 c -5.804,-1.863 -11.771,-3.562 -16,-7 -1.12,-14.754 25.06,-1.379 16,7 z"
         id="path10561"
         inkscape:connector-curvature="0" />
      <path
         style="fill:url(#linearGradient10633);fill-opacity:1"
         d="m 166.03,76.198 c -3.621,2.379 -5.385,6.615 -12,6 -7.254,-12.591 21.299,-24.776 19,-11 -0.56,3.32 -2.38,4.079 -7,5 z"
         id="path10563"
         inkscape:connector-curvature="0" />
      <path
         style="fill:url(#linearGradient10633);fill-opacity:1"
         d="m 196.03,83.198 c 3.807,0.324 2.856,2.554 5,7 4.529,9.395 12.913,11.607 5,23 -4.517,-0.817 -12.594,1.927 -14,-2 -1.826,-8.159 9.05,-3.617 10,-9 0.68,-8.512 -10.29,-10.169 -6,-19.002 z"
         id="path10565"
         inkscape:connector-curvature="0"
         inkscape:label="path14" />
      <path
         style="fill:url(#linearGradient10633);fill-opacity:1"
         d="m 218.03,86.198 v 6 c -2.342,2.128 -7.95,3.003 -10,0 -1.85,-7.313 6.33,-10.225 10,-6 z"
         id="path10567"
         inkscape:connector-curvature="0" />
      <path
         style="fill:url(#linearGradient10633);fill-opacity:1"
         d="m 168.03,90.198 c 8.388,-5.948 12.478,13.841 0,10 -2.69,-2.338 -4.49,-8.223 0,-10.002 z"
         id="path10569"
         inkscape:connector-curvature="0" />
      <path
         style="fill:url(#linearGradient10633);fill-opacity:1"
         d="m 133.03,126.2 c -4.452,-4.59 -5,-14.831 -16,-10 -0.03,-15.96 28.79,-0.74 16,10 z"
         id="path10571"
         inkscape:connector-curvature="0" />
      <path
         style="fill:url(#linearGradient10633);fill-opacity:1"
         d="m 170.03,121.2 h 5 c -0.349,7.508 -3.969,17.786 4,23 2.578,1.422 7.95,0.05 9,3 -5.729,8.066 -18.15,-1.448 -20,-9 -1.53,-6.24 1.42,-11.05 2,-17 z"
         id="path10573"
         inkscape:connector-curvature="0" />
      <path
         style="fill:url(#linearGradient10633);fill-opacity:1"
         d="m 221.03,197.2 c 1.578,2.755 3.402,5.265 6,7 -3.668,6.37 -13.842,4.545 -21,7 -4.928,1.69 -9.464,6.628 -14,4 3.217,-7.117 14.195,-6.472 20,-11 -8.893,-3.772 -17.984,5.86 -25,4 3.96,-9.55 18.32,-11.09 34,-11 z"
         id="path10575"
         inkscape:connector-curvature="0" />
      <path
         style="fill:url(#linearGradient10633);fill-opacity:1"
         d="m 233.03,212.2 c -3.084,4.741 -16.859,3.591 -21,4 0.869,-2.909 1.497,-1.125 4,-1 3.56,-3.46 12.84,-9.03 17,-3 z"
         id="path10577"
         inkscape:connector-curvature="0" />
      <path
         style="fill:url(#linearGradient10633);fill-opacity:1"
         d="m 228.03,220.2 c -2.906,5.104 -9.286,4.126 -14,6 -5.976,2.375 -11.298,8.526 -19,8 0.224,-5.11 6.224,-4.443 8,-8 10.65,1.08 14.53,-13.35 25,-6 z"
         id="path10579"
         inkscape:connector-curvature="0" />
      <path
         style="fill:url(#linearGradient10633);fill-opacity:1"
         d="m 203.03,220.2 c 0.349,3.473 -4.696,4.186 -6,3 v -3 c 2.33,-0.31 4.13,-1.96 6,0 z"
         id="path10581"
         inkscape:connector-curvature="0" />
    </g>
  </g>
</svg>
