<?xml version="1.0" encoding="utf-8"?>
<svg width="48px" height="48px" viewBox="0 0 48 48" version="1.1" xmlns:xlink="http://www.w3.org/1999/xlink" xmlns="http://www.w3.org/2000/svg">
  <desc>Created with Lunacy</desc>
  <g id="Android-Os-icon-Symbol-instance">
    <g id="Android-Os-icon">
      <path d="M0 0L48 0L48 48L0 48L0 0Z" id="Background" fill="none" stroke="none" />
      <path d="M4 11C4 12.1 3.1 13 2 13C0.9 13 0 12.1 0 11L0 2C0 0.9 0.9 0 2 0C3.1 0 4 0.9 4 2L4 11ZM30 13C31.1 13 32 12.1 32 11L32 2C32 0.9 31.1 0 30 0C28.9 0 28 0.9 28 2L28 11C28 12.1 28.9 13 30 13ZM14 22C14 23.1 13.1 24 12 24C10.9 24 10 23.1 10 22L10 13C10 11.9 10.9 11 12 11C13.1 11 14 11.9 14 13L14 22ZM20 24C21.1 24 22 23.1 22 22L22 13C22 11.9 21.1 11 20 11C18.9 11 18 11.9 18 13L18 22C18 23.1 18.9 24 20 24Z" transform="translate(8 18)" id="Shape" fill="#7CB342" fill-rule="evenodd" stroke="none" />
      <path d="M0 8C0.3 3.6 4 0 10 0C16 0 19.7 3.6 20 8L0 8ZM6 5.6C5.4 5.6 5 5.2 5 4.6C5 4 5.4 3.6 6 3.6C6.6 3.6 7 4 7 4.6C7 5.1 6.6 5.6 6 5.6ZM13 4.6C13 5.2 13.4 5.6 14 5.6C14.6 5.6 15 5.1 15 4.6C15 4 14.6 3.6 14 3.6C13.4 3.6 13 4 13 4.6ZM0 10L0 25C0 26.1 0.9 27 2 27L18 27C19.1 27 20 26.1 20 25L20 10L0 10Z" transform="translate(14 8)" id="Shape" fill="#7CB342" fill-rule="evenodd" stroke="none" />
      <path d="M1.46875 3.66875C1.56875 3.96875 1.96875 4.16875 2.26875 4.16875C2.46875 4.16875 2.66875 4.06875 2.86875 3.96875C3.36875 3.66875 3.46875 3.06875 3.16875 2.56875L1.86875 0.46875C1.56875 -0.03125 0.96875 -0.13125 0.46875 0.16875C-0.03125 0.46875 -0.131248 1.06875 0.168751 1.56875L1.46875 3.66875ZM10.6687 4.36875C10.8687 4.46875 11.0687 4.56875 11.2687 4.56875C11.6688 4.56875 11.9688 4.36875 12.0687 4.06875L13.7687 1.56875C14.0688 1.06875 13.9688 0.46875 13.4688 0.16875C12.9688 -0.13125 12.3687 -0.03125 12.0688 0.46875L10.3687 2.96875C10.0687 3.46875 10.1687 4.06875 10.6687 4.36875Z" transform="translate(17.03125 5.931274)" id="Shape" fill="#7CB342" fill-rule="evenodd" stroke="none" />
    </g>
  </g>
</svg>
