<?xml version="1.0" encoding="utf-8"?>
<svg width="32px" height="32px" viewBox="0 0 32 32" version="1.1" xmlns:xlink="http://www.w3.org/1999/xlink" xmlns="http://www.w3.org/2000/svg">
  <desc>Created with Lunacy</desc>
  <g id="Adobe-After-Effects-icon-Symbol-instance">
    <g id="Adobe-After-Effects-icon">
      <path d="M0 0L32 0L32 32L0 32L0 0Z" id="Background" fill="none" stroke="none" />
      <path d="M0 2.66667C0 1.194 1.194 0 2.66667 0L21.3333 0C22.806 0 24 1.194 24 2.66667L24 21.3333C24 22.806 22.806 24 21.3333 24L2.66667 24C1.194 24 0 22.806 0 21.3333L0 2.66667L0 2.66667Z" transform="translate(4 4)" id="Shape" fill="#B388FF" stroke="none" />
      <path d="M0 0L0 20L20 20L20 0L0 0L0 0Z" transform="translate(6 6)" id="Shape" fill="#170B40" stroke="none" />
      <path d="M5.45533 7.31L2.41867 7.31L1.84133 9.20733L0 9.20733L3.12933 0L4.734 0L7.88 9.20667L6.03867 9.20667L5.45533 7.31ZM11.4307 9.33333C10.9453 9.33333 10.5113 9.24667 10.1287 9.074C9.74533 8.90133 9.42067 8.66467 9.15267 8.36533C8.88467 8.066 8.68133 7.71533 8.54067 7.31267C8.40067 6.91 8.33 6.47933 8.33 6.01933L8.33 5.77267C8.33 5.254 8.39867 4.77867 8.53533 4.34667C8.67134 3.91467 8.866 3.54267 9.11867 3.23067C9.37 2.91867 9.67667 2.67533 10.036 2.5C10.396 2.32533 10.7993 2.23733 11.2453 2.23733C11.6953 2.23733 12.092 2.31867 12.4347 2.48067C12.7773 2.64267 13.0647 2.87067 13.298 3.164C13.5307 3.45667 13.706 3.81 13.8233 4.22333C13.9407 4.63667 14 5.09667 14 5.60267L14 6.38067L10.0227 6.38067C10.0493 6.604 10.1047 6.80667 10.1873 6.98733C10.27 7.16867 10.376 7.32333 10.5047 7.452C10.6333 7.58067 10.7847 7.68067 10.9573 7.75267C11.1307 7.82467 11.3253 7.86 11.5407 7.86C11.8447 7.86 12.126 7.798 12.3833 7.67333C12.6413 7.54933 12.8627 7.356 13.0473 7.09467L13.8673 8.1C13.7673 8.256 13.642 8.408 13.492 8.55533C13.342 8.70267 13.1647 8.83467 12.9607 8.95067C12.7567 9.06667 12.5273 9.15933 12.2707 9.22867C12.0147 9.29867 11.7353 9.33333 11.4307 9.33333ZM4.988 5.77333L2.88667 5.77333L3.932 2.32667L4.988 5.77333ZM10.764 3.82267C10.9013 3.75267 11.0593 3.718 11.2407 3.718C11.4327 3.718 11.5987 3.75 11.7407 3.81333C11.8807 3.87667 11.996 3.96467 12.0867 4.07867C12.1773 4.19267 12.2447 4.32733 12.2887 4.48333C12.3333 4.63933 12.3573 4.808 12.3613 4.98933L12.3613 5.13467L10.0407 5.13467C10.0673 4.924 10.1113 4.732 10.1727 4.55933C10.234 4.386 10.314 4.23733 10.412 4.11333C10.51 3.98933 10.6273 3.892 10.764 3.82267Z" transform="translate(8.666656 11.33334)" id="Shape" fill="#B388FF" fill-rule="evenodd" stroke="none" />
    </g>
  </g>
</svg>
