<?xml version="1.0" encoding="utf-8"?>
<svg width="64px" height="64px" viewBox="0 0 64 64" version="1.1" xmlns:xlink="http://www.w3.org/1999/xlink" xmlns="http://www.w3.org/2000/svg">
  <desc>Created with Lunacy</desc>
  <g id="Babel-icon-Symbol-instance">
    <g id="Babel-icon">
      <path d="M0 0L64 0L64 63.9946L0 63.9946L0 0Z" transform="translate(0 0.005371094)" id="Background" fill="none" stroke="none" />
      <path d="M12 7.99939C12 7.99939 17.59 3.36578 33.226 0.434023C48.862 -2.49773 52.771 10.2052 49.839 15.0928C46.62 20.4573 41.044 23.8871 41.044 23.8871C41.044 23.8871 44.953 26.8178 44.953 29.7496C44.953 31.7014 44.951 46.3312 6.956 56.1024L6.943 56.1294L6.851 56.1294C6.847 56.1304 6.844 56.1314 6.84 56.1324L0.977 61.9949L2.932 56.1324L0 56.1324L22.813 8.67533C22.306 8.86932 21.855 9.0573 21.499 9.22828C19.298 10.2872 13 15.9987 13 15.9987L12 13.9989L8 16.9986L7 13.9989L15.636 8.25137L12 7.99939ZM42.398 12.16C42.998 12.16 42.732 13.031 42.998 13.137C43.816 13.4639 44.953 11.0861 44.953 10.2062C44.953 9.32528 43.842 7.01947 42.999 7.27445C42.765 7.34444 42.999 8.25137 42.999 8.25137C41.5642 5.83053 35.7264 6.12335 32.6504 6.27763C32.5107 6.28464 32.3766 6.29136 32.249 6.29753C31.718 6.32253 31.069 6.40952 30.356 6.53951L22 23.998C24.157 23.2851 28.821 21.7242 31 20.9983C34 19.9984 37.489 18.7385 39 16.9986C39.879 15.9877 41.46 14.0649 42.398 12.16ZM35 32.9973C33.684 35.6281 29.476 38.4078 27 39.9967C23.662 42.1385 17.662 44.1564 12 45.9962L17.893 32.9363C18.109 32.8573 18.759 31.0935 19 30.9975C28.772 27.0888 34 24.998 36 28.9976C36.45 29.8986 36 30.9975 35 32.9973Z" transform="translate(8 1.005219)" id="Shape" fill="#FFEB9B" fill-rule="evenodd" stroke="none" />
      <path d="M1.18013 12.3617C1.18013 12.3617 -0.944869 13.0456 0.508131 11.0628C1.83913 9.24692 3.69713 7.89403 5.84313 7.21509C9.46913 6.06818 14.8371 4.22334 21.7031 0.873622C24.1391 -0.315277 26.9961 -0.295278 29.3981 0.961616C29.8611 1.20259 30.1801 1.36158 30.1801 1.36158C30.1801 1.36258 24.1801 4.36233 24.1801 4.36233L1.18013 12.3617L1.18013 12.3617L1.18013 12.3617Z" transform="translate(13.81982 44.63892)" id="Shape" fill="#EFC88E" stroke="none" />
      <path d="M2.80332 2.86602C2.65732 2.86602 2.51032 2.83502 2.37032 2.76703L0.567317 1.9011C0.0693171 1.66212 -0.140683 1.06417 0.0993171 0.567209C0.338317 0.06925 0.937317 -0.139732 1.43332 0.0982469L3.23632 0.964176C3.73432 1.20315 3.94432 1.80111 3.70432 2.29806C3.53332 2.65703 3.17532 2.86602 2.80332 2.86602L2.80332 2.86602Z" transform="translate(3.860596 47.77112)" id="Shape" fill="#8D6C9F" stroke="none" />
      <path d="M2.80332 2.86602C2.65732 2.86602 2.51032 2.83502 2.37032 2.76703L0.567317 1.9011C0.0693169 1.66212 -0.140683 1.06417 0.0993171 0.567209C0.338317 0.06925 0.938317 -0.139732 1.43332 0.0982469L3.23632 0.964176C3.73432 1.20315 3.94432 1.80111 3.70432 2.29806C3.53332 2.65703 3.17532 2.86602 2.80332 2.86602L2.80332 2.86602Z" transform="translate(5.943604 43.43848)" id="Shape" fill="#8D6C9F" stroke="none" />
      <path d="M2.80232 2.86647C2.65632 2.86647 2.50932 2.83547 2.36932 2.76748L0.567317 1.90155C0.0693169 1.66257 -0.140683 1.06462 0.0993166 0.566664C0.339316 0.0697039 0.938316 -0.140278 1.43332 0.0987046L3.23532 0.964633C3.73332 1.20361 3.94332 1.80156 3.70332 2.29952C3.53232 2.65749 3.17432 2.86647 2.80232 2.86647L2.80232 2.86647Z" transform="translate(8.026611 39.10538)" id="Shape" fill="#8D6C9F" stroke="none" />
      <path d="M2.80288 2.86686C2.65688 2.86686 2.50988 2.83587 2.36988 2.76787L0.566881 1.90094C0.068881 1.66197 -0.140119 1.06401 0.0988808 0.566057C0.338881 0.0701006 0.937881 -0.139885 1.43388 0.0980982L3.23688 0.965026C3.73488 1.204 3.94388 1.80196 3.70488 2.29991C3.53288 2.65788 3.17488 2.86686 2.80288 2.86686L2.80288 2.86686Z" transform="translate(10.10913 34.77234)" id="Shape" fill="#8D6C9F" stroke="none" />
      <path d="M2.80332 2.86645C2.65732 2.86645 2.51032 2.83545 2.37032 2.76746L0.567317 1.90153C0.0693169 1.66255 -0.140683 1.0646 0.0993166 0.567642C0.338317 0.0696848 0.937317 -0.140298 1.43332 0.0986817L3.23632 0.964608C3.73432 1.20359 3.94432 1.80154 3.70432 2.29849C3.53332 2.65747 3.17532 2.86645 2.80332 2.86645L2.80332 2.86645Z" transform="translate(12.19165 30.43912)" id="Shape" fill="#8D6C9F" stroke="none" />
      <path d="M2.80232 2.86647C2.65632 2.86647 2.50932 2.83547 2.36932 2.76748L0.567317 1.90155C0.0693169 1.66257 -0.140683 1.06462 0.0993166 0.566664C0.339316 0.0697058 0.938317 -0.140278 1.43332 0.0987027L3.23532 0.964629C3.73332 1.20361 3.94332 1.80156 3.70332 2.29952C3.53132 2.65749 3.17432 2.86647 2.80232 2.86647L2.80232 2.86647Z" transform="translate(14.27563 26.10648)" id="Shape" fill="#8D6C9F" stroke="none" />
      <path d="M2.80332 2.86645C2.65732 2.86645 2.51032 2.83545 2.37032 2.76746L0.567318 1.90153C0.0693188 1.66255 -0.140682 1.0646 0.0993176 0.567642C0.339317 0.0696849 0.938318 -0.140299 1.43332 0.0986818L3.23632 0.964608C3.73432 1.20359 3.94432 1.80154 3.70432 2.2985C3.53332 2.65747 3.17532 2.86645 2.80332 2.86645L2.80332 2.86645Z" transform="translate(16.35767 21.77386)" id="Shape" fill="#8D6C9F" stroke="none" />
      <g id="Group" transform="translate(25 46.00226)">
        <path d="M1.00006 4.74386C0.591064 4.74386 0.208065 4.49188 0.0600643 4.08591C-0.127935 3.56596 0.140064 2.99301 0.659065 2.80502C3.00106 1.95309 5.18607 1.04317 7.15306 0.0982469C7.65107 -0.139732 8.24807 0.06925 8.48706 0.567209C8.72606 1.06417 8.51706 1.66212 8.01907 1.9011C5.99306 2.87502 3.74707 3.81094 1.34207 4.68387C1.22906 4.72486 1.11307 4.74386 1.00006 4.74386L1.00006 4.74386Z" id="Shape" fill="#8D6C9F" stroke="none" />
      </g>
      <g id="Group" transform="translate(18.00024 49.99982)">
        <path d="M0.999813 3.00109C0.564814 3.00109 0.164814 2.71512 0.0388126 2.27515C-0.113188 1.7442 0.194813 1.19125 0.725813 1.03926C1.86481 0.714284 2.95881 0.383314 4.00981 0.0483396C4.53381 -0.121644 5.09781 0.17133 5.26581 0.697283C5.43382 1.22324 5.14281 1.78619 4.61681 1.95418C3.54781 2.29515 2.43381 2.63212 1.27481 2.96309C1.18281 2.9881 1.08981 3.00109 0.999813 3.00109L0.999813 3.00109Z" id="Shape" fill="#8D6C9F" stroke="none" />
      </g>
      <path d="M1.45263 63.851C1.61463 63.951 1.79663 64 1.97763 64C2.23563 64 2.49163 63.9 2.68663 63.707L8.35363 58.0405C8.35763 58.0385 8.36263 58.0365 8.36663 58.0345C43.1896 49.0413 46.9546 35.9644 46.9546 30.7538C46.9546 28.376 44.9886 26.1702 43.6996 24.9803C45.5506 23.6584 49.2496 20.6926 51.6976 16.612C53.4476 13.6942 52.9656 9.05961 50.5516 5.5899C48.6596 2.87113 43.9966 -1.41051 34.0426 0.457331C18.3326 3.40208 12.5986 8.03969 12.3626 8.23568C12.0486 8.49666 11.9246 8.92162 12.0496 9.31159C12.1746 9.69955 12.5236 9.97453 12.9316 10.0025L13.6386 10.0515L7.44763 14.1722C7.07163 14.4222 6.90963 14.8911 7.05263 15.3201L8.05263 18.3198C8.15363 18.6248 8.39563 18.8618 8.70263 18.9578C9.00863 19.0568 9.34363 18.9968 9.60063 18.8038L12.6426 16.523L13.1066 17.4519C13.2466 17.7319 13.5086 17.9289 13.8166 17.9869C14.1246 18.0459 14.4416 17.9559 14.6726 17.7449C16.0526 16.494 19.4356 13.5272 21.6006 11.9774L0.0986295 56.7036C-0.0503707 57.0146 -0.0293708 57.3786 0.153629 57.6695C0.336629 57.9605 0.65663 58.1375 1.00063 58.1375L2.54563 58.1375L1.02963 62.6841C0.88363 63.1241 1.05763 63.607 1.45263 63.851ZM2.59063 56.1377L3.93163 56.1377C4.25263 56.1377 4.55563 56.2916 4.74263 56.5526C4.93063 56.8136 4.98163 57.1496 4.88063 57.4535L4.26563 59.2984L7.13463 56.4306C7.25463 56.3106 7.40363 56.2227 7.56663 56.1757C7.59363 56.1687 7.62163 56.1617 7.64963 56.1557C7.66963 56.1487 7.68863 56.1427 7.70863 56.1377C42.2696 47.2494 44.9546 34.4605 44.9546 30.7528C44.9546 28.758 42.4216 26.4222 41.4456 25.6902C41.1806 25.4922 41.0316 25.1753 41.0466 24.8443C41.0626 24.5143 41.2396 24.2123 41.5216 24.0384C41.5756 24.0054 46.9346 20.6636 49.9836 15.5811C51.1256 13.6792 51.1366 9.92954 48.9106 6.72981C47.2966 4.409 43.2696 0.762307 34.4136 2.41917C24.8766 4.20702 19.1256 6.64881 16.1656 8.21968L16.7076 8.25668C17.1346 8.28668 17.4956 8.58465 17.6046 8.99862C17.7136 9.41158 17.5486 9.85054 17.1916 10.0865L9.19163 15.4111L9.51063 16.369L12.4006 14.2042C12.6376 14.0262 12.9426 13.9632 13.2306 14.0302C13.5196 14.0982 13.7626 14.2912 13.8956 14.5561L14.3096 15.3841C16.2226 13.6892 20.2656 10.1975 22.0666 9.33159C22.4416 9.1506 22.9196 8.95162 23.4556 8.74564C23.8356 8.59765 24.2706 8.70064 24.5486 9.00161C24.8266 9.30359 24.8916 9.74255 24.7146 10.1125L2.59063 56.1377ZM23.0006 26.0032C22.7186 26.0032 22.4436 25.8832 22.2506 25.6642C21.9856 25.3632 21.9256 24.9333 22.0996 24.5713L30.4546 7.11277C30.5936 6.8238 30.8616 6.61781 31.1786 6.56082C31.9716 6.41583 32.6536 6.32984 33.2026 6.30284L33.5976 6.28284C37.2686 6.09586 41.2226 6.04786 43.4906 7.41075C43.5616 7.37275 43.6356 7.34475 43.7086 7.32175C43.9866 7.23676 44.5446 7.16477 45.1666 7.62773C46.1306 8.34367 46.9556 10.1945 46.9556 11.2094C46.9556 12.1543 46.1196 14.1692 45.0896 14.8671C44.4536 15.2981 43.9016 15.1791 43.6296 15.0691L43.6286 15.0691C43.5856 15.0511 43.5456 15.0331 43.5076 15.0121C42.6426 16.393 41.5866 17.7039 40.7576 18.6578C39.0876 20.5796 35.5266 21.8815 32.3196 22.9494L30.1236 23.6824C27.8156 24.4533 24.8956 25.4272 23.3176 25.9502C23.2116 25.9862 23.1056 26.0032 23.0006 26.0032ZM24.9186 23.3114L32.0346 8.44266C32.5246 8.36567 32.9486 8.31767 33.2986 8.30267L33.6966 8.28167L33.7337 8.27986C36.2391 8.15682 42.0162 7.8731 43.1376 9.76655C43.3896 10.1935 43.9146 10.3695 44.3796 10.1805C44.4466 10.1515 44.5086 10.1175 44.5676 10.0765C44.7826 10.5055 44.9526 10.9764 44.9526 11.2104C44.9526 11.4834 44.7026 12.1194 44.4276 12.6083C44.1096 12.2393 43.6876 12.1653 43.3986 12.1653C43.0186 12.1653 42.6706 12.3823 42.5016 12.7233C41.8496 14.0492 40.7236 15.6481 39.2456 17.3479C37.7936 19.0188 33.8196 20.3437 31.6836 21.0556L29.4866 21.7875C28.0446 22.2695 26.3616 22.8315 24.9186 23.3114ZM13.0006 48.0013C12.7216 48.0013 12.4486 47.8843 12.2556 47.6684C11.9916 47.3734 11.9256 46.9504 12.0886 46.5905L17.9816 33.5296C18.0356 33.4106 18.1106 33.3046 18.2036 33.2176C18.2826 33.0796 18.4216 32.7856 18.5186 32.5816C18.9196 31.7357 19.1416 31.2697 19.6276 31.0748C29.8516 26.9841 35.4816 24.7323 37.8946 29.5549C38.5696 30.9058 37.9666 32.3047 36.8946 34.4495C35.5766 37.0873 31.9316 39.667 28.5406 41.8439C25.1596 44.0137 19.4066 45.9715 13.3096 47.9523C13.2086 47.9853 13.1046 48.0013 13.0006 48.0013ZM14.8456 45.3446L19.7276 34.5255C19.9246 34.2845 20.0906 33.9355 20.3276 33.4386C20.4116 33.2626 20.5366 32.9986 20.6266 32.8296C30.2576 28.9789 34.5946 27.4271 36.1076 30.4498C36.3406 30.9168 35.9546 31.8627 35.1076 33.5546C33.8576 36.0553 29.3746 38.9311 27.4616 40.159C24.6816 41.9438 19.8486 43.6887 14.8456 45.3446Z" transform="translate(6.999512 0)" id="Shape" fill="#8D6C9F" fill-rule="evenodd" stroke="none" />
    </g>
  </g>
</svg>
