<?xml version="1.0" encoding="utf-8"?>
<svg width="32px" height="32px" viewBox="0 0 32 32" version="1.1" xmlns:xlink="http://www.w3.org/1999/xlink" xmlns="http://www.w3.org/2000/svg">
  <desc>Created with Lunacy</desc>
  <g id="Bootstrap-icon-Symbol-instance">
    <g id="Bootstrap-icon">
      <path d="M0 0L32 0L32 32L0 32L0 0Z" id="Background" fill="none" stroke="none" />
      <path d="M24 20.6667C24 22.508 22.508 24 20.6667 24L3.33333 24C1.49267 24 0 22.508 0 20.6667L0 3.33333C0 1.492 1.49267 0 3.33333 0L20.6667 0C22.508 0 24 1.492 24 3.33333L24 20.6667L24 20.6667Z" transform="translate(4 4)" id="Shape" fill="#673AB7" stroke="none" />
      <path d="M10.1533 7.83333C10.96 8.05333 11.5867 8.46667 12.02 9.06667C12.4533 9.66667 12.6667 10.4 12.6667 11.2667C12.6667 12.8333 12.1867 14.0067 11.2267 14.8C10.26 15.58 8.84 15.9867 6.95333 16L0 16L0 0L6.23333 0C8.22667 0 9.4 0.506667 10.44 1.26C11.48 2.01333 12 3.11333 12 4.54667C12 5.37333 11.8133 6.08 11.4467 6.66667C10.8333 7.58667 10.1533 7.83333 10.1533 7.83333ZM4 2.66667L6.83333 2.66667C7.84667 2.66667 8.66667 3.48667 8.66667 4.5C8.66667 5.51333 7.84667 6.33333 6.83333 6.33333L4 6.33333L4 2.66667ZM4 13.3333L7.33333 13.3333C8.44 13.3333 9.33333 12.44 9.33333 11.3333C9.33333 10.2267 8.44 9.33333 7.33333 9.33333L4 9.33333L4 13.3333Z" transform="translate(10 8)" id="Shape" fill="#EEEEEE" fill-rule="evenodd" stroke="none" />
    </g>
  </g>
</svg>
