<?xml version="1.0" encoding="utf-8"?>
<svg width="100%" height="100%" viewBox="0 0 32 32" version="1.1" xmlns:xlink="http://www.w3.org/1999/xlink" xmlns="http://www.w3.org/2000/svg">
  <desc>Created with Lunacy</desc>
  <g id="Github-icon-Symbol-instance">
    <g id="Github-icon">
      <path d="M0 0L32 0L32 32L0 32L0 0Z" id="Background" fill="none" stroke="none" />
      <path d="M12 0C5.37109 0 0 5.37109 0 12C0 17.3008 3.4375 21.8008 8.20703 23.3867C8.80859 23.4961 9.02734 23.1289 9.02734 22.8086C9.02734 22.5234 9.01563 21.7695 9.01172 20.7695C5.67188 21.4922 4.96875 19.1602 4.96875 19.1602C4.42188 17.7734 3.63672 17.4023 3.63672 17.4023C2.54688 16.6602 3.71875 16.6758 3.71875 16.6758C4.92188 16.7617 5.55469 17.9102 5.55469 17.9102C6.625 19.7461 8.36328 19.2148 9.04688 18.9102C9.15625 18.1328 9.46875 17.6055 9.80859 17.3047C7.14453 17.0039 4.34375 15.9727 4.34375 11.375C4.34375 10.0625 4.8125 8.99219 5.57813 8.15234C5.45703 7.85156 5.04297 6.62891 5.69531 4.97656C5.69531 4.97656 6.70313 4.65625 8.99609 6.20703C9.95313 5.94141 10.9805 5.80859 12 5.80469C13.0195 5.80859 14.0469 5.94141 15.0039 6.20703C17.2969 4.65625 18.3008 4.97656 18.3008 4.97656C18.957 6.62891 18.5469 7.85156 18.4219 8.15234C19.1914 8.99219 19.6523 10.0625 19.6523 11.375C19.6523 15.9844 16.8477 16.9961 14.1758 17.2969C14.6055 17.6641 14.9883 18.3984 14.9883 19.5156C14.9883 21.1211 14.9766 22.4141 14.9766 22.8086C14.9766 23.1289 15.1914 23.5039 15.8008 23.3867C20.5664 21.7969 24 17.3008 24 12C24 5.37109 18.6289 0 12 0L12 0Z" transform="translate(4 4)" id="Shape" fill="#5B5B5B" stroke="none" />
    </g>
  </g>
</svg>
