<?xml version="1.0" encoding="utf-8"?>
<svg width="48px" height="48px" viewBox="0 0 48 48" version="1.1" xmlns:xlink="http://www.w3.org/1999/xlink" xmlns="http://www.w3.org/2000/svg">
  <desc>Created with Lunacy</desc>
  <g id="Java-icon">
    <path d="M0 0L48 0L48 48L0 48L0 0Z" id="Background" fill="none" stroke="none" />
    <path d="M5.82828 20.899C4.83028 19.29 4.10628 17.956 3.10328 15.444C1.40728 11.201 13.4183 7.367 8.54828 0C10.6593 5.089 0.971283 8.235 0.0712833 12.473C-0.751719 16.371 5.82328 20.899 5.82828 20.899L5.82828 20.899Z" transform="translate(17.82172 3.998993)" id="Shape" fill="#F44336" stroke="none" />
    <path d="M0.0108414 6.221C-0.181158 8.737 2.23984 10.078 2.30984 11.916C2.36584 13.412 0.862841 14.659 0.862841 14.659C0.862841 14.659 3.59084 14.123 4.44184 11.841C5.38684 9.307 2.60784 7.572 2.89384 5.543C3.16084 3.605 8.92484 0 8.92484 0C8.92484 0 0.443842 0.562001 0.0108414 6.221L0.0108414 6.221Z" transform="translate(23.86719 11.049)" id="Shape" fill="#F44336" stroke="none" />
    <g id="Group" transform="translate(9 24.11406)">
      <path d="M23.634 2.95094C23.634 1.66394 22.155 0.546946 20.401 0.940945C22.781 -0.848055 25.838 -0.0610561 25.838 3.08894C25.838 7.85194 19.613 8.59394 19.613 8.59394C19.613 8.59394 23.634 5.85194 23.634 2.95094ZM19.904 1.37894C19.387 1.89795 17.446 3.28094 17.446 3.28094C10.175 4.75194 0 4.58094 0 2.19094C0 -0.102057 7.773 0.00994301 7.773 0.00994301C7.773 0.00994301 4.266 0.838943 4.266 1.64794C4.266 2.52594 15.141 2.38994 19.904 1.37894Z" transform="translate(2.683002 0)" id="Shape" fill="#1565C0" fill-rule="evenodd" stroke="none" />
      <path d="M13.328 0.993C8.819 2.492 0.514 2.013 2.974 0C1.776 0 0 0.962999 0 1.889C0 3.746 8.982 5.18 15.63 2.461L13.328 0.993L13.328 0.993Z" transform="translate(5.606999 4.463943)" id="Shape" fill="#1565C0" stroke="none" />
      <path d="M2.695 0C1.059 0 0 1.054 0 1.822C0 4.213 9.76 4.454 13.627 2.027L11.169 0.395C8.28 1.665 1.023 1.84 2.695 0L2.695 0Z" transform="translate(6.991001 8.624943)" id="Shape" fill="#1565C0" stroke="none" />
      <path d="M27.281 1.8448C27.281 0.908794 26.226 0.467796 25.848 0.256794C28.076 5.6298 3.531 5.2128 3.531 2.04079C3.531 1.31979 5.338 0.613796 7.008 0.947796L5.588 0.108795C2.26 -0.413204 0 1.0498 0 2.22979C0 7.7328 27.281 7.4678 27.281 1.8448L27.281 1.8448Z" transform="translate(0 10.67315)" id="Shape" fill="#1565C0" stroke="none" />
      <path d="M25.231 0C21.085 4.095 10.572 5.587 0 3.057C10.572 7.56 25.181 5.024 25.231 0L25.231 0Z" transform="translate(4.768999 14.48994)" id="Shape" fill="#1565C0" stroke="none" />
    </g>
  </g>
</svg>
