<?xml version="1.0" encoding="utf-8"?>
<svg width="32px" height="32px" viewBox="0 0 32 32" version="1.1" xmlns:xlink="http://www.w3.org/1999/xlink" xmlns="http://www.w3.org/2000/svg">
  <desc>Created with Lunacy</desc>
  <g id="Nodejs-icon-Symbol-instance">
    <g id="Nodejs-icon">
      <path d="M0 0L32 0L32 32L0 32L0 0Z" id="Background" fill="none" stroke="none" />
      <path d="M0.198001 1.86067L3.46933 0.0506681L3.46866 0.0506668C3.53 0.0166664 3.598 0 3.66667 0C3.73467 0 3.80333 0.0166664 3.86467 0.0506668L7.13533 1.86067C7.258 1.92867 7.33333 2.05333 7.33333 2.18867L7.33333 5.81067C7.33333 5.946 7.258 6.07067 7.13667 6.13867L3.86533 7.95C3.74333 8.01734 3.592 8.01734 3.47 7.95L0.198 6.13867C0.0753333 6.07067 0 5.946 0 5.81067L0 2.18867C0 2.05333 0.0753333 1.928 0.198001 1.86067ZM19.7553 3.61267L20.3007 3.31134C20.3107 3.30534 20.322 3.30267 20.3333 3.30267C20.3447 3.30267 20.356 3.30534 20.366 3.31134L20.9113 3.61267C20.932 3.624 20.9447 3.64467 20.9447 3.66734L20.9447 4.27134C20.9447 4.294 20.932 4.31467 20.912 4.326L20.3667 4.628C20.346 4.63934 20.3213 4.63934 20.3007 4.628L19.7553 4.326C19.7353 4.31467 19.7227 4.294 19.7227 4.27134L19.7227 3.66734C19.7227 3.64467 19.7347 3.624 19.7553 3.61267Z" transform="translate(8 12.69735)" id="Shape" fill="#388E3C" fill-rule="evenodd" stroke="none" />
      <path d="M5.57467 0.0205116L7.16733 0.909178C7.26933 0.966511 7.33333 1.07451 7.33333 1.19184L7.33333 10.4765C7.33333 10.6118 7.258 10.7372 7.13667 10.8045L3.86534 12.6158C3.74334 12.6832 3.592 12.6832 3.47 12.6158L0.198001 10.8045C0.0753339 10.7365 0 10.6118 0 10.4765L0 6.85451C0 6.71984 0.0753339 6.59451 0.197999 6.52718L3.46933 4.71718L3.46867 4.71718C3.53 4.68318 3.59867 4.66651 3.66667 4.66651C3.73467 4.66651 3.80333 4.68318 3.86467 4.71718L5.33333 5.52984L5.334 0.161845C5.334 0.104512 5.36467 0.0518449 5.414 0.0225118C5.46333 -0.00682195 5.52467 -0.00748825 5.57467 0.0205116ZM3.75733 10.4618L5.244 9.63851C5.29933 9.60785 5.33333 9.55051 5.33333 9.48984L5.33333 7.84318C5.33333 7.78185 5.29933 7.72451 5.24333 7.69318L3.75667 6.87051C3.72867 6.85584 3.698 6.84784 3.66667 6.84784C3.63533 6.84784 3.60467 6.85518 3.57667 6.87051L3.57733 6.87051L2.09 7.69318C2.034 7.72451 2 7.78118 2 7.84251L2 9.48918C2 9.55051 2.034 9.60785 2.09067 9.63851L3.578 10.4618C3.63333 10.4925 3.702 10.4925 3.75733 10.4618Z" transform="translate(16.66667 8.000163)" id="Shape" fill="#37474F" fill-rule="evenodd" stroke="none" />
      <path d="M3.46933 0.0506668L0 5.81067C0 5.946 0.0753333 6.07067 0.198 6.13867L3.47 7.95C3.592 8.01733 3.74333 8.01733 3.86533 7.95L7.33333 2.18867C7.33333 2.05333 7.258 1.92867 7.13533 1.86067L3.86467 0.0506668C3.80333 0.0166664 3.73467 0 3.66667 0C3.598 0 3.53 0.0166664 3.46867 0.0506668" transform="translate(8 12.69735)" id="Shape" fill="#2E7D32" stroke="none" />
      <path d="M3.46933 0.0506681L0.198001 1.86067C0.0753333 1.928 0 2.05333 0 2.18867L3.46933 7.95C3.59133 8.01733 3.74267 8.01733 3.86467 7.95L7.136 6.13867C7.258 6.07067 7.33333 5.946 7.33333 5.81067L3.86467 0.0506668C3.80333 0.0166664 3.73467 0 3.66667 0C3.598 0 3.53 0.0166664 3.46867 0.0506668" transform="translate(8 12.69735)" id="Shape" fill="#4CAF50" stroke="none" />
      <path d="M3.86467 0.0506668L7.13533 1.86067C7.25733 1.928 7.33333 2.05667 7.33333 2.19667L7.33333 7.17267C7.33333 7.23 7.30267 7.28333 7.25333 7.31267C7.20333 7.34067 7.142 7.34067 7.092 7.312L5.49333 6.38333C5.394 6.326 5.33333 6.22 5.33333 6.10533L5.33333 3.17667C5.33333 3.11533 5.3 3.05867 5.24667 3.02933L3.75667 2.20467C3.72867 2.19 3.698 2.182 3.66667 2.182C3.63533 2.182 3.60467 2.18933 3.57667 2.20467L2.08667 3.02867C2.03333 3.058 2 3.11467 2 3.176L2 6.10467C2 6.21933 1.93933 6.32533 1.84067 6.38267L0.242 7.31133C0.192 7.34 0.130667 7.34 0.0806667 7.312C0.0306667 7.28333 0 7.23 0 7.17267L0 2.196C0 2.056 0.076 1.928 0.198 1.86067L3.46933 0.0506668L3.46867 0.0506668C3.53 0.0166664 3.59867 0 3.66667 0C3.73467 0 3.80333 0.0166664 3.86467 0.0506668ZM28.5313 0.0506668L31.802 1.86067C31.924 1.928 32 2.05667 32 2.19733L32 3.45067C32 3.56533 31.9387 3.67133 31.84 3.72867L30.2413 4.65733C30.1913 4.686 30.13 4.686 30.08 4.658C30.03 4.62933 29.9993 4.576 29.9993 4.51867L29.9993 3.17733C29.9993 3.116 29.966 3.05933 29.9127 3.03L28.4227 2.20533C28.3947 2.19067 28.364 2.18267 28.3327 2.18267C28.3013 2.18267 28.2707 2.19 28.2427 2.20533L28.2433 2.20533L26.7533 3.02933C26.7 3.05867 26.6667 3.11534 26.6667 3.17667L26.6667 4.82067C26.6667 4.88333 26.7013 4.94133 26.7567 4.97267L30.0393 6.764C30.178 6.84 30.1787 7.038 30.0407 7.11467L28.532 7.95C28.4093 8.018 28.2593 8.018 28.1367 7.95L24.8647 6.13867C24.7427 6.07133 24.6667 5.94267 24.6667 5.80333L24.6667 2.196C24.6667 2.056 24.7427 1.928 24.8647 1.86067L28.136 0.0506668L28.1353 0.0506668C28.1967 0.0166664 28.2653 0 28.3333 0C28.4013 0 28.47 0.0166664 28.5313 0.0506668Z" transform="translate(0 12.66667)" id="Shape" fill="#37474F" fill-rule="evenodd" stroke="none" />
    </g>
  </g>
</svg>
