<?xml version="1.0" encoding="utf-8"?>
<svg width="48px" height="48px" viewBox="0 0 48 48" version="1.1" xmlns:xlink="http://www.w3.org/1999/xlink" xmlns="http://www.w3.org/2000/svg">
  <desc>Created with Lunacy</desc>
  <g id="Python-icon">
    <path d="M0 0L48 0L48 48L0 48L0 0Z" id="Background" fill="none" stroke="none" />
    <path d="M15.5485 0.367073C16.8515 0.142073 17.9295 0.00507307 19.4845 7.29561e-05C21.0265 -0.00592709 22.8435 0.359073 22.7824 0.365074C25.2414 0.774074 27.0005 2.59807 27.0005 5.03707L27.0005 13.6231C27.0005 16.1381 24.5235 18.0001 22.0005 18.0001L14.7645 18.0001C11.6865 18.0001 9.00045 20.9301 9.00045 23.8961L9.00045 29.0001L5.36845 29.0001C2.73145 29.0001 1.28845 27.0051 0.633451 24.3441C-0.229549 20.7761 -0.192549 18.6361 0.633451 15.2191C1.36445 12.2421 3.67145 11.0001 6.30745 11.0001L19.9995 11.0001L19.9995 9.00007L10.9995 9.00007L10.9995 5.03707C10.9995 2.44407 11.7005 1.03707 15.5485 0.367073ZM16.0005 5.50207C16.0005 4.67707 15.3214 4.00007 14.5005 4.00007C13.6635 4.00007 13.0005 4.68007 13.0005 5.50207C13.0005 6.33607 13.6635 7.00007 14.5005 7.00007C15.3214 7.00007 16.0005 6.33507 16.0005 5.50207Z" transform="translate(4.562561 4.999924)" id="Shape" fill="#0277BD" fill-rule="evenodd" stroke="none" />
    <path d="M11.452 28.633C10.149 28.858 9.071 28.995 7.516 29C5.974 29.006 4.157 28.641 4.218 28.635C1.759 28.226 0 26.402 0 23.963L0 15.377C0 12.862 2.477 11 5 11L12.236 11C15.314 11 18 8.07 18 5.104L18 0L21.632 0C24.269 0 25.712 1.995 26.368 4.656C27.231 8.224 27.194 10.364 26.368 13.781C25.637 16.758 23.33 18 20.694 18L7.001 18L7.001 20L16.001 20L16.001 23.963C16.001 26.556 15.3 27.963 11.452 28.633ZM11.001 23.498C11.001 24.323 11.68 25 12.501 25C13.337 25 14.001 24.32 14.001 23.498C14.001 22.664 13.338 22 12.501 22C11.68 22 11.001 22.665 11.001 23.498Z" transform="translate(15.56201 14)" id="Shape" fill="#FFC107" fill-rule="evenodd" stroke="none" />
  </g>
</svg>
