<?xml version="1.0" encoding="utf-8"?>
<svg width="32px" height="32px" viewBox="0 0 32 32" version="1.1" xmlns:xlink="http://www.w3.org/1999/xlink" xmlns="http://www.w3.org/2000/svg">
  <desc>Created with Lunacy</desc>
  <g id="React-icon-Symbol-instance">
    <g id="React-Native-icon">
      <path d="M0 0L32 0L32 32L0 32L0 0Z" id="Background" fill="none" stroke="none" />
      <path d="M0 6.66667C0 10.4 6.73333 13.3333 15.3333 13.3333C23.9333 13.3333 30.6667 10.4 30.6667 6.66667C30.6667 2.93333 23.9333 0 15.3333 0C6.73333 0 0 2.93333 0 6.66667ZM1.33333 6.66667C1.33333 4.06667 6.93333 1.33333 15.3333 1.33333C23.7333 1.33333 29.3333 4.06667 29.3333 6.66667C29.3333 9.26667 23.7333 12 15.3333 12C6.93333 12 1.33333 9.26667 1.33333 6.66667Z" transform="translate(0.6666718 9.333344)" id="Shape" fill="#80DEEA" fill-rule="evenodd" stroke="none" />
      <path d="M1.9841 26.9633C2.51744 27.2966 3.05077 27.4299 3.71744 27.4299C5.11744 27.4299 6.7841 26.6966 8.51744 25.3633C10.9174 23.4966 13.3841 20.5633 15.3841 17.0966C17.3841 13.6299 18.7174 10.0299 19.1174 6.96326C19.5174 3.69659 18.9174 1.36326 17.2508 0.429922C15.6508 -0.503411 13.3174 0.0965891 10.7174 2.09659C8.31744 3.96326 5.85077 6.89659 3.85077 10.3633C-0.415898 17.8299 -1.28256 25.0966 1.9841 26.9633ZM11.5841 3.09659C13.1174 1.89659 14.5174 1.29659 15.5841 1.29659C15.9841 1.29659 16.3174 1.42992 16.6508 1.56326C17.7841 2.22992 18.1841 4.09659 17.8508 6.76326C17.4508 9.62992 16.1841 13.0299 14.2508 16.3633C12.3174 19.6966 9.9841 22.4966 7.71744 24.2966C5.65077 25.8966 3.7841 26.4966 2.65077 25.8299C0.450771 24.5633 0.85077 18.2966 5.05077 11.0299C6.9841 7.69659 9.31744 4.89659 11.5841 3.09659Z" transform="translate(6.349228 2.303406)" id="Shape" fill="#80DEEA" fill-rule="evenodd" stroke="none" />
      <path d="M3.91286 17.0326C7.51286 23.3659 12.3129 27.4326 15.6462 27.4326C16.2462 27.4326 16.7795 27.2993 17.3129 27.0326C18.9795 26.0326 19.6462 23.7659 19.1795 20.4993C18.7795 17.4326 17.4462 13.8326 15.4462 10.3659C11.1129 2.89927 5.2462 -1.43407 1.97953 0.432599C-1.28714 2.29927 -0.420471 9.56593 3.91286 17.0326ZM5.0462 16.3659C0.846196 9.09927 0.446196 2.8326 2.6462 1.56593C4.8462 0.299266 10.0462 3.76593 14.2462 11.0326C16.1795 14.3659 17.4462 17.7659 17.8462 20.6326C18.1795 23.2993 17.7795 25.1659 16.6462 25.8326C14.4462 27.0993 9.2462 23.6326 5.0462 16.3659Z" transform="translate(6.353806 2.300751)" id="Shape" fill="#80DEEA" fill-rule="evenodd" stroke="none" />
      <path d="M0 2.66667C0 1.19391 1.19391 0 2.66667 0C4.13943 0 5.33333 1.19391 5.33333 2.66667C5.33333 4.13943 4.13943 5.33333 2.66667 5.33333C1.19391 5.33333 0 4.13943 0 2.66667Z" transform="translate(13.33333 13.33334)" id="Circle" fill="#80DEEA" stroke="none" />
    </g>
  </g>
</svg>
