<?xml version="1.0" encoding="utf-8"?>
<svg width="48px" height="48px" viewBox="0 0 48 48" version="1.1" xmlns:xlink="http://www.w3.org/1999/xlink" xmlns="http://www.w3.org/2000/svg">
  <desc>Created with Lunacy</desc>
  <g id="Stack-Overflow-icon">
    <path d="M0 0L48 0L48 48L0 48L0 0Z" id="Background" fill="none" stroke="none" />
    <path d="M0 0L3 0L3 14L0 14L0 0Z" transform="translate(9 28)" id="Shape" fill="#607D8B" stroke="none" />
    <path d="M0 0L26 0L26 3L0 3L0 0Z" transform="translate(9 39)" id="Shape" fill="#607D8B" stroke="none" />
    <path d="M20 0L17 0L17 14L20 14L20 0ZM14 6L0 6L0 9L14 9L14 6Z" transform="translate(15 28)" id="Shape" fill="#607D8B" fill-rule="evenodd" stroke="none" />
    <path d="M0 0L14 0L14 3L0 3L0 0Z" transform="matrix(0.9942598 0.1069929 -0.1069929 0.9942598 15.08069 28.25966)" id="Shape" fill="#A68A6E" stroke="none" />
    <path d="M0 0L13.999 0L13.999 3.001L0 3.001L0 0Z" transform="matrix(0.1523994 0.988319 -0.988319 0.1523994 36.87048 5.999878)" id="Shape" fill="#EF6C00" stroke="none" />
    <path d="M0 0L13.998 0L13.998 3.001L0 3.001L0 0Z" transform="matrix(0.488012 0.8728369 -0.8728369 0.488012 28.47003 8.236633)" id="Shape" fill="#FF9800" stroke="none" />
    <path d="M0 0L13.998 0L13.998 3.001L0 3.001L0 0Z" transform="matrix(0.8214977 0.5702118 -0.5702118 0.8214977 20.50116 14.55106)" id="Shape" fill="#D38B28" stroke="none" />
    <path d="M0 0L13.999 0L13.999 3.001L0 3.001L0 0Z" transform="matrix(0.9409694 0.3384916 -0.3384916 0.9409694 16.89935 21.218)" id="Shape" fill="#C09553" stroke="none" />
  </g>
</svg>
