<?xml version="1.0" encoding="UTF-8" standalone="no"?>
<svg
   xmlns:dc="http://purl.org/dc/elements/1.1/"
   xmlns:cc="http://creativecommons.org/ns#"
   xmlns:rdf="http://www.w3.org/1999/02/22-rdf-syntax-ns#"
   xmlns:svg="http://www.w3.org/2000/svg"
   xmlns="http://www.w3.org/2000/svg"
   xmlns:sodipodi="http://sodipodi.sourceforge.net/DTD/sodipodi-0.dtd"
   xmlns:inkscape="http://www.inkscape.org/namespaces/inkscape"
   viewBox="0 0 512 512"
   width="512"
   height="512"
   preserveAspectRatio="xMidYMid meet"
   version="1.1"
   id="svg118"
   sodipodi:docname="coffeeCupNew.svg"
   inkscape:version="0.92.5 (2060ec1f9f, 2020-04-08)">
  <metadata
     id="metadata122">
    <rdf:RDF>
      <cc:Work
         rdf:about="">
        <dc:format>image/svg+xml</dc:format>
        <dc:type
           rdf:resource="http://purl.org/dc/dcmitype/StillImage" />
        <dc:title></dc:title>
      </cc:Work>
    </rdf:RDF>
  </metadata>
  <sodipodi:namedview
     pagecolor="#ffffff"
     bordercolor="#666666"
     borderopacity="1"
     objecttolerance="10"
     gridtolerance="10"
     guidetolerance="10"
     inkscape:pageopacity="0"
     inkscape:pageshadow="2"
     inkscape:window-width="1302"
     inkscape:window-height="745"
     id="namedview120"
     showgrid="false"
     inkscape:zoom="1"
     inkscape:cx="136.40259"
     inkscape:cy="253.87754"
     inkscape:window-x="56"
     inkscape:window-y="-8"
     inkscape:window-maximized="1"
     inkscape:current-layer="svg118" />
  <defs
     id="defs8">
    <clipPath
       id="__lottie_element_861">
      <rect
         width="800"
         height="600"
         x="0"
         y="0"
         id="rect2" />
    </clipPath>
    <clipPath
       id="__lottie_element_863">
      <path
         d="M 0,0 H 4300 V 4300 H 0 Z"
         id="path5"
         inkscape:connector-curvature="0" />
    </clipPath>
    <clipPath
       id="clipPath150"
       clipPathUnits="userSpaceOnUse">
      <path
         inkscape:connector-curvature="0"
         id="path148"
         d="M 0,807 H 712 V 0 H 0 Z" />
    </clipPath>
    <clipPath
       id="clipPath158"
       clipPathUnits="userSpaceOnUse">
      <path
         inkscape:connector-curvature="0"
         id="path156"
         d="m 163.75,548.25 h 384.5 v -384.5 h -384.5 z" />
    </clipPath>
    <clipPath
       id="clipPath162"
       clipPathUnits="userSpaceOnUse">
      <path
         inkscape:connector-curvature="0"
         id="path160"
         d="m 163.75,548.25 h 384.5 v -384.5 h -384.5 z" />
    </clipPath>
    <mask
       id="mask164"
       height="1"
       width="1"
       y="0"
       x="0"
       maskUnits="userSpaceOnUse">
      <g
         id="g180">
        <g
           id="g178"
           clip-path="url(#clipPath158)">
          <path
             inkscape:connector-curvature="0"
             id="path166"
             style="fill:#000000;fill-opacity:1;fill-rule:nonzero;stroke:none"
             d="m 163.75,548.25 h 384.5 v -384.5 h -384.5 z" />
          <g
             id="g176">
            <g
               id="g168" />
            <g
               id="g174">
              <g
                 id="g172"
                 clip-path="url(#clipPath162)">
                <path
                   inkscape:connector-curvature="0"
                   id="path170"
                   style="fill:#ffffff;fill-opacity:1;fill-rule:nonzero;stroke:none"
                   d="M 99.917,612.083 H 612.586 V 99.414 H 99.917 Z" />
              </g>
            </g>
          </g>
        </g>
      </g>
    </mask>
    <clipPath
       id="clipPath188"
       clipPathUnits="userSpaceOnUse">
      <path
         inkscape:connector-curvature="0"
         id="path186"
         d="m 163.75,548.25 h 384.5 v -384.5 h -384.5 z" />
    </clipPath>
    <clipPath
       id="clipPath192"
       clipPathUnits="userSpaceOnUse">
      <path
         inkscape:connector-curvature="0"
         id="path190"
         d="M 164,548 H 548 V 164 H 164 Z" />
    </clipPath>
    <clipPath
       id="clipPath196"
       clipPathUnits="userSpaceOnUse">
      <path
         inkscape:connector-curvature="0"
         id="path194"
         d="M 164.066,547.968 H 547.999 V 163.956 H 164.066 Z" />
    </clipPath>
    <clipPath
       id="clipPath200"
       clipPathUnits="userSpaceOnUse">
      <path
         inkscape:connector-curvature="0"
         id="path198"
         d="M 164.02,547.93 H 547.835 V 164.176 H 164.02 Z" />
    </clipPath>
    <clipPath
       id="clipPath204"
       clipPathUnits="userSpaceOnUse">
      <path
         inkscape:connector-curvature="0"
         id="path202"
         d="m 299.75,548.25 h 0.5 v -384.5 h -0.5 z" />
    </clipPath>
    <clipPath
       id="clipPath208"
       clipPathUnits="userSpaceOnUse">
      <path
         inkscape:connector-curvature="0"
         id="path206"
         d="m 355.75,548.25 h 0.5 v -384.5 h -0.5 z" />
    </clipPath>
    <clipPath
       id="clipPath212"
       clipPathUnits="userSpaceOnUse">
      <path
         inkscape:connector-curvature="0"
         id="path210"
         d="m 411.83,548.25 h 0.5 v -384.5 h -0.5 z" />
    </clipPath>
    <clipPath
       id="clipPath216"
       clipPathUnits="userSpaceOnUse">
      <path
         inkscape:connector-curvature="0"
         id="path214"
         d="m 163.9,412.1 h 383.933 v -0.2 H 163.9 Z" />
    </clipPath>
    <clipPath
       id="clipPath220"
       clipPathUnits="userSpaceOnUse">
      <path
         inkscape:connector-curvature="0"
         id="path218"
         d="m 163.9,356.1 h 383.933 v -0.2 H 163.9 Z" />
    </clipPath>
    <clipPath
       id="clipPath224"
       clipPathUnits="userSpaceOnUse">
      <path
         inkscape:connector-curvature="0"
         id="path222"
         d="m 163.75,300.25 h 384.233 v -0.5 H 163.75 Z" />
    </clipPath>
  </defs>
  <g
     id="g106"
     style="display:block;opacity:1"
     transform="matrix(0.18264607,0,0,0.18264607,-139.22759,-83.188623)"
     clip-path="url(#__lottie_element_863)">
    <g
       id="g14"
       style="display:block;opacity:1"
       transform="rotate(4.025022,-27492.384,14231.749)">
      <g
         style="opacity:1"
         id="g12"
         transform="translate(116.519,74.330002)">
        <path
           style="fill:#4b1e06;fill-opacity:1"
           inkscape:connector-curvature="0"
           id="path10"
           d="m 103.241,46.181 c 11.738,-19.205 13.028,-45.739 12.07,-67.396 -0.44,-9.935999 -2.648,-20.792 -8.493,-29.043999 -8.997001,-12.701 -29.059997,-16.398998 -39.105003,-2.670002 C 58.548,-40.402 70.790001,-26.441999 73.348,-13.938 75.523003,-3.3039999 71.910004,8.2010002 62.679001,14.355 55.733002,18.986 47.627998,18.987 40.681999,16.672001 37.786999,15.224 35.110001,13.415 32.794998,11.316 30.479,9.2180004 28.527,6.8309999 27.08,4.2259998 24.028999,-1.497 23.778,-8.0500002 25.853001,-14.097 c 0.691999,-2.016001 1.642,-3.976 2.833,-5.83 0.588999,-1.011999 1.219,-1.985001 1.886,-2.924999 6.951997,-8.849001 18.585,-14.664999 20.239999,-27.608 0.158001,-1.356003 0.197998,-2.714001 0.112,-4.054001 -0.086,-1.341 -0.296002,-2.661999 -0.64,-3.946999 -0.34,-1.246002 -0.788002,-2.465999 -1.339,-3.636001 -1.654,-3.512001 -4.241001,-6.578003 -7.812001,-8.712998 -1.057998,-0.602005 -2.168998,-1.122001 -3.324001,-1.557998 C 35.498001,-73.239998 33.007,-73.772003 30.4,-73.928001 c -2.503001,-0.151001 -5.112999,0.043 -7.788,0.600998 -31.6209998,6.726005 -45.194001,40.657005 -40.345999,69.7400031 C -22.582001,-7.4640002 -26.459,-12.312 -32.151001,-16.396999 c -1.608997,-1.407002 -3.215,-2.815001 -4.809998,-4.227002 -6.382,-5.644998 -12.602001,-11.359998 -18.256,-17.459999 C -56.921001,-39.700001 -58.632,-41.298 -60.362,-42.856998 -69.010002,-50.652 -78.113998,-57.485001 -89.052002,-60.972 -91.461998,-61.439999 -93.944,-61.594002 -96.5,-61.389 c -2.556999,0.207001 -5.19,0.771999 -7.904,1.765999 -2.123,0.944 -3.831,2.207001 -5.169,3.697002 -6.697,7.451001 -4.139,20.563 0.406,29.175999 9.68,18.3470001 29.123001,33.6799998 45.326,46.030001 17.050999,12.996 35.918,27.949999 55.0700001,37.648 3.171,1.605 6.392,3.125 9.66399991,4.549 C 7.4369998,64.325996 14.188,66.792 21.165001,68.810997 c 3.794998,1.035004 7.724998,1.916 11.729,2.593002 C 48.722,74.080002 65.761002,73.091003 80.532997,66.440002 90.672997,61.873001 97.999001,54.757999 103.241,46.181 Z" />
      </g>
    </g>
    <g
       id="g20"
       style="display:block;opacity:1"
       transform="rotate(0.02502245,-4681725.8,2482729.4)">
      <g
         style="opacity:1"
         id="g18"
         transform="translate(281.75201,91.019997)">
        <path
           style="fill:#4b1e06;fill-opacity:1"
           inkscape:connector-curvature="0"
           id="path16"
           d="M 265.20499,-81.595001 C 210.03799,-26.466 146.591,13.473 67.745003,24.013 -30.323,37.122002 -116.406,5.783 -195.98399,-48.688 c -7.53202,-5.156002 -15.181,-10.147999 -22.664,-15.371998 -1.49701,-1.043998 -2.98601,-2.097999 -4.46502,-3.163002 -9.71199,-6.001998 -13.81199,-14.294998 -15.155,-23.546997 -12.151,12.646996 -26.96899,22.257996 -43.234,29.577996 13.29202,7.120002 24.96801,16.645 37.33401,26.356002 109.177,85.732998 230.08,125.605996 368.626,87.824997 C 182.405,37.188 231.67799,5.1430001 275.75601,-35.153 c 5.746,-17.584999 -1.56302,-32.204002 -10.55102,-46.442001 z" />
      </g>
    </g>
    <g
       id="g26"
       style="display:block;opacity:1"
       transform="rotate(0.02502245,-5798058.6,5127296.3)">
      <g
         style="opacity:1"
         id="g24"
         transform="translate(143.44501,256.96899)">
        <path
           style="fill:#4b1e06;fill-opacity:1"
           inkscape:connector-curvature="0"
           id="path22"
           d="m 115.333,-255.192 c -13.628,-1.52699 -26.063003,3.13499 -38.567001,7.451 C 134.58501,-151.782 93.084,-64.538002 17.15,5.4650002 -21.108999,40.736 -66.365997,65.738998 -117.534,77.761002 -137.468,82.445 -143.196,90.884003 -135.55701,110.57 c 15.11501,38.94199 28.58301,78.521 42.98701,117.743 8.699997,23.691 25.728997,28.40599 46.646,13.327 35.179,-25.357 34.951,-68.39101 -0.603,-109.59 -7.621998,-8.832 -15.321,-17.598 -23.872002,-27.417 C -35.136002,83.760002 3.2690001,71.625 32.112,44.226002 91.341003,-12.037 143.196,-72.522003 140.536,-161.49699 c -0.99199,-33.18502 -10.92701,-64.043 -25.203,-93.69501 z" />
      </g>
    </g>
    <g
       id="g32"
       style="display:block;opacity:1"
       transform="rotate(-0.03058299,4746013.8,-3327733)">
      <g
         style="opacity:1"
         id="g30"
         transform="translate(143.446,256.96899)">
        <path
           style="fill:#4b1e06;fill-opacity:1"
           inkscape:connector-curvature="0"
           id="path28"
           d="m -115.333,-255.192 c 13.628,-1.52699 26.063003,3.13499 38.567001,7.451 C -134.58501,-151.782 -93.083,-64.538002 -17.149,5.4650002 21.110001,40.736 66.365997,65.738998 117.534,77.761002 137.467,82.445 143.196,90.884003 135.556,110.57 120.441,149.51199 106.974,189.091 92.570999,228.313 83.871002,252.004 66.842003,256.71899 45.924,241.64 10.746,216.283 10.973,173.24899 46.528,132.05 54.150002,123.218 61.847,114.452 70.399002,104.633 35.134998,83.760002 -3.2690001,71.625 -32.112999,44.226002 -91.341003,-12.037 -143.196,-72.522003 -140.535,-161.49699 c 0.992,-33.18502 10.92601,-64.043 25.202,-93.69501 z" />
      </g>
    </g>
    <g
       id="g38"
       style="display:block;opacity:1"
       transform="rotate(-0.02502245,4680986.3,-6096687)">
      <g
         style="opacity:1"
         id="g36"
         transform="translate(281.75201,91.019997)">
        <path
           style="fill:#4b1e06;fill-opacity:1"
           inkscape:connector-curvature="0"
           id="path34"
           d="M -265.20499,-81.595001 C -210.03799,-26.466 -146.592,13.473 -67.745003,24.013 30.322001,37.122002 116.406,5.783 195.98399,-48.688 c 7.53301,-5.156002 15.181,-10.147999 22.66501,-15.371998 1.496,-1.043998 2.985,-2.097999 4.463,-3.163002 9.71201,-6.001998 13.812,-14.294998 15.155,-23.546997 12.15201,12.646996 26.97,22.257996 43.23599,29.577996 -13.293,7.120002 -24.97,16.645 -37.33598,26.356002 C 134.99001,50.896999 14.088,90.769997 -124.459,52.988998 -182.40601,37.188 -231.67799,5.1430001 -275.75601,-35.153 c -5.746,-17.584999 1.56402,-32.204002 10.55102,-46.442001 z" />
      </g>
    </g>
    <g
       id="g44"
       style="display:block;opacity:1"
       transform="rotate(3.9527352,-26497.023,46877.88)">
      <g
         style="opacity:1"
         id="g42"
         transform="translate(116.519,74.330002)">
        <path
           style="fill:#4b1e06;fill-opacity:1"
           inkscape:connector-curvature="0"
           id="path40"
           d="m -103.241,46.181 c -11.738,-19.205 -13.029,-45.739 -12.071,-67.396 0.439,-9.935999 2.647,-20.792 8.492,-29.043999 8.997002,-12.701 29.059998,-16.398998 39.105004,-2.670002 9.164997,12.527001 -3.077004,26.487002 -5.634003,38.991001 -2.176003,10.6340001 1.438995,22.1390002 10.670998,28.293 6.946003,4.631 15.048,4.632 21.995002,2.317001 C -37.789001,15.224 -35.112,13.415 -32.797001,11.316 -30.481001,9.2180004 -28.527,6.8309999 -27.080999,4.2259998 -24.030001,-1.497 -23.778,-8.0500002 -25.854,-14.097 c -0.692,-2.016001 -1.643,-3.976 -2.833,-5.83 -0.59,-1.011999 -1.219,-1.985001 -1.886,-2.924999 -6.950998,-8.849001 -18.586,-14.664999 -20.24,-27.608 -0.158001,-1.356003 -0.198002,-2.714001 -0.111999,-4.054001 0.086,-1.341 0.295997,-2.661999 0.639999,-3.946999 0.34,-1.246002 0.787998,-2.465999 1.339001,-3.636001 1.653999,-3.512001 4.240997,-6.578003 7.812,-8.712998 1.057999,-0.602005 2.168999,-1.122001 3.325001,-1.557998 2.309997,-0.872002 4.799999,-1.404007 7.406998,-1.560005 2.503,-0.151001 5.114,0.043 7.788999,0.600998 31.6210014,6.726005 45.194,40.657005 40.347,69.7400031 4.847,-3.8770003 8.724001,-8.7250001 14.417002,-12.8099991 1.608997,-1.407002 3.214001,-2.815001 4.809998,-4.227002 6.381,-5.644998 12.602001,-11.359998 18.255001,-17.459999 1.703998,-1.616001 3.416,-3.214 5.146999,-4.772998 8.647003,-7.795002 17.75,-14.628003 28.689003,-18.115002 2.408997,-0.467999 4.890999,-0.622002 7.446999,-0.417 2.556999,0.207001 5.188999,0.771999 7.903999,1.765999 2.123,0.944 3.832,2.207001 5.169,3.697002 6.698,7.451001 4.14,20.563 -0.405,29.175999 C 99.487,-8.4029999 80.042999,6.9299998 63.84,19.280001 46.789001,32.276001 27.922001,47.23 8.7700005,56.928001 c -3.1700006,1.605 -6.3930004,3.125 -9.66400049,4.549 C -7.4390001,64.325996 -14.189,66.792 -21.167,68.810997 c -3.795,1.035004 -7.724001,1.916 -11.728,2.593002 -15.828,2.676003 -32.866002,1.687004 -47.636998,-4.963997 C -90.672997,61.873001 -97.999001,54.757999 -103.241,46.181 Z" />
      </g>
    </g>
    <g
       id="g82"
       style="display:block;opacity:1"
       transform="translate(1310.2971,787.67596)">
      <g
         style="opacity:1"
         id="g48"
         transform="translate(840.82501,1155.1801)">
        <path
           style="fill:#ffcfa3;fill-opacity:1"
           inkscape:connector-curvature="0"
           id="path46"
           d="m 743.38702,-530.44 c 22.28998,-119.96399 -69.77905,-230.71601 -191.79699,-230.71601 0,0 -441.78103,0 -441.78103,0 0,0 -219.618,0 -219.618,0 0,0 -441.78103,0 -441.78103,0 -122.01696,0 -214.08697,110.75202 -191.79699,230.71601 0,0 191.057,1028.25699 191.057,1028.25699 2.00202,10.77301 3.914,21.06204 5.72803,30.82803 6.73199,36.229 23.39197,68.98096 47.21298,95.26398 23.82001,26.281 54.79901,46.09002 90.16703,56.43298 266.60798,77.38 555.09498,80.81403 820.33798,-1.32697 34.97799,-10.50299 65.54901,-30.34301 89.04501,-56.53204 23.49597,-26.19098 39.91498,-58.73096 46.58801,-94.63599 1.771,-9.52801 3.633,-19.54998 5.57996,-30.02999 0,0 191.05804,-1028.25699 191.05804,-1028.25699 z" />
      </g>
      <g
         style="opacity:1"
         id="g52"
         transform="translate(842.534,1144.817)">
        <path
           style="fill:#4b1e06;fill-opacity:1"
           inkscape:connector-curvature="0"
           id="path50"
           d="m 762.71198,-514.27802 c 12.78399,-70.875 -8.42298,-143.87799 -59.724,-195.07196 -41.35596,-41.27099 -97.51996,-63.21899 -155.693,-63.25701 -25.578,-0.016 -51.15597,0 -76.73498,0 0,0 -137.85501,0 -137.85501,0 0,0 -139.34899,0 -139.34899,0 0,0 -81.087,0 -81.087,0 0,0 -61.769,0 -61.769,0 0,0 -136.155998,0 -136.155998,0 0,0 -43.096002,0 -43.096002,0 0,0 -103.06599,0 -103.06599,0 0,0 -144.896,0 -144.896,0 0,0 -126.97,0 -126.97,0 -21.31198,0 -42.99002,-1.03003 -64.27402,0.53698 -71.13397,5.23902 -136.17596,44.97803 -172.453,106.61402 -27.37299,46.50799 -35.08496,100.518 -25.33698,153.23498 2.422,13.099 4.86701,26.19501 7.30097,39.293 5.03302,27.08701 10.06604,54.17301 15.099,81.259 6.98303,37.58301 13.966,75.16501 20.94903,112.74701 8.284,44.58499 16.56897,89.17 24.85297,133.756 8.93603,48.095001 17.87305,96.191002 26.80902,144.286 8.98401,48.347999 17.96698,96.696002 26.95001,145.04299 0,0 24.86798,133.83402 24.86798,133.83402 0,0 20.97303,112.87799 20.97303,112.87799 5.044,27.14801 10.08899,54.29599 15.13299,81.444 2.448,13.176 4.89697,26.353 7.34497,39.52899 3.54901,19.09903 6.25501,38.55503 12.219,57.08701 12.97802,40.32202 37.62902,77.031 70.95401,103.32 17.58801,13.875 36.34802,24.72602 57.13302,33.08698 20.81998,8.37604 43.133,13.51105 64.83698,19.06201 44.38601,11.35199 89.29202,20.672 134.53201,27.91101 91.442,14.63001 184.109002,21.32202 276.701001,18.849 C 133.271,768.698 225.612,757.38397 315.742,736.99799 c 22.314,-5.047 44.49799,-10.66498 66.52201,-16.857 21.746,-6.11499 43.50998,-12.24298 64.05899,-21.763 37.77398,-17.5 69.97601,-47.02801 91.78802,-82.38 11.14099,-18.055 19.68695,-38.15302 25.00501,-58.69001 3.70099,-14.29297 5.87897,-29.02197 8.57495,-43.52795 0.552,-2.97403 1.10504,-5.94702 1.65802,-8.91904 3.30798,-17.80798 6.617,-35.61599 9.92602,-53.42398 0,0 17.21998,-92.681 17.21998,-92.681 7.46301,-40.16501 14.927,-80.33002 22.39001,-120.49501 0,0 25.67902,-138.204 25.67902,-138.204 9.00695,-48.478001 18.01495,-96.955 27.02197,-145.432999 8.80701,-47.395005 17.61297,-94.790001 26.419,-142.185001 7.956,-42.82 15.91303,-85.63901 23.86902,-128.45899 6.48395,-34.89902 12.969,-69.797 19.45301,-104.69601 4.29699,-23.124 8.59295,-46.24701 12.88995,-69.37101 1.49805,-8.06399 2.99603,-16.12698 4.495,-24.19101 2.14904,-11.57 -3.19697,-23.52398 -15.23499,-26.83197 -10.61798,-2.91803 -24.66901,3.59296 -26.83197,15.23499 -5.87701,31.63101 -11.75501,63.26199 -17.63202,94.892 -14.27399,76.81799 -28.547,153.63699 -42.82098,230.455 -17.63105,94.893 -35.263,189.785 -52.89405,284.678002 C 591.34497,170.005 575.39301,255.86099 559.44,341.716 c -9.22497,49.64899 -18.45099,99.297 -27.67499,148.94501 -0.677,3.64298 -1.354,7.28699 -2.031,10.92899 -1.41901,7.639 -2.83801,15.27798 -4.258,22.91598 -3.53503,19.01599 -8.638,38.27899 -16.25601,53.65503 -9.117,18.40198 -18.875,32.17401 -32.62302,46.09198 -13.86697,14.03803 -26.60498,23.39398 -44.78897,32.78601 -8.871,4.58197 -13.68402,6.61499 -23.56201,9.84998 -11.108,3.64001 -22.37301,6.86505 -33.61499,10.06402 -21.125,6.01099 -42.401,11.49402 -63.79901,16.44898 -173.813,40.25 -357.854999,45.02502 -533.67,17.06305 -45.24699,-7.19605 -90.162,-16.47504 -134.558,-27.78803 -20.61099,-5.25097 -41.71099,-10.15997 -61.643,-17.64001 -13.99701,-5.25202 -34.60999,-17.12799 -46.10501,-26.60199 -29.99698,-24.724 -50.103,-56.02301 -59.45798,-93.01398 -3.82404,-15.12103 -6.10303,-30.65704 -8.95099,-45.98901 0,0 -22.88,-123.13501 -22.88,-123.13501 -15.18305,-81.71399 -30.36499,-163.427 -45.54804,-245.14 -17.61499,-94.798998 -35.229,-189.599001 -52.84399,-284.398 -15.20801,-81.85 -30.41602,-163.70001 -45.625,-245.54999 -7.677,-41.31802 -15.35401,-82.63601 -23.03101,-123.95498 -0.18097,-0.96906 -0.36499,-1.93701 -0.53998,-2.90705 -0.39099,-2.14801 -0.74102,-4.30096 -1.099,-6.45397 -0.72802,-4.378 -0.18603,-1.35401 -0.074,-0.41401 -0.24506,-2.05999 -0.46704,-4.12298 -0.65204,-6.18902 -0.42596,-4.76697 -0.67901,-9.54895 -0.755,-14.33496 -0.12702,-8.08704 0.43298,-16.07703 1.12402,-24.12604 0.55896,-6.52399 -0.80304,4.354 0.24896,-2.08795 0.31903,-1.95502 0.62305,-3.91004 0.98004,-5.85706 0.82697,-4.51794 1.81598,-9.00598 2.96399,-13.45294 1.95099,-7.55804 4.35999,-14.99701 7.20697,-22.26501 0.20203,-0.513 2.76001,-6.39405 0.77704,-1.95905 0.79102,-1.76794 1.58301,-3.53497 2.41297,-5.28595 1.93402,-4.07404 4.01001,-8.08203 6.22003,-12.013 3.77997,-6.72101 7.95697,-13.21899 12.5,-19.45001 0.30401,-0.41803 4.211,-5.44403 1.24701,-1.71698 1.198,-1.50702 2.40997,-3.00305 3.64801,-4.47705 2.88897,-3.44098 5.89496,-6.78296 9.01196,-10.01801 4.90601,-5.08996 10.08502,-9.91699 15.51001,-14.44897 1.48199,-1.23798 2.98102,-2.456 4.50098,-3.64801 -3.732,2.927 1.35601,-0.95801 1.75903,-1.25098 3.664,-2.65399 7.42102,-5.17999 11.26196,-7.573 6.625,-4.12701 13.49903,-7.85504 20.573,-11.15399 1.78003,-0.83002 3.57001,-1.64203 5.37805,-2.40802 -4.40802,1.867 1.64398,-0.59198 2.09595,-0.76501 4.32703,-1.65198 8.71204,-3.14899 13.14606,-4.48499 7.71399,-2.32501 15.57299,-4.16602 23.51495,-5.51202 0.482,-0.081 7.15503,-1.05298 2.29102,-0.41797 2.04199,-0.26599 4.091,-0.48499 6.14202,-0.67902 4.84296,-0.45898 9.70398,-0.73901 14.568,-0.841 61.67499,-1.29596 123.50397,-0.044 185.18899,-0.044 0,0 243.57799,0 243.57799,0 0,0 175.918,0 175.918,0 0,0 140.841,0 140.841,0 0,0 274.80901,0 274.80901,0 0,0 82.05997,0 82.05997,0 1.63299,0 3.26605,-0.007 4.89904,0 5.62,0.024 11.23096,0.22803 16.83295,0.70001 2.05805,0.17402 4.10803,0.404 6.16303,0.61701 6.682,0.69202 -4.258,-0.85303 2.31903,0.33502 4.65899,0.84198 9.30395,1.651 13.91595,2.73297 7.76801,1.823 15.42304,4.12799 22.90601,6.89801 1.85302,0.68598 3.68902,1.41101 5.52398,2.14197 -4.42895,-1.76599 1.56202,0.70001 2.01801,0.90704 4.15704,1.88697 8.24805,3.922 12.26202,6.099 6.83301,3.706 13.44098,7.82398 19.78199,12.32001 1.578,1.11999 3.13702,2.26697 4.68499,3.42895 -3.78698,-2.84497 1.271,1.04804 1.66101,1.36805 3.48304,2.85199 6.86701,5.82397 10.14502,8.90796 5.14399,4.84002 10.026,9.95605 14.61896,15.32 1.25305,1.46302 2.45606,2.96601 3.69306,4.44104 4.05896,4.84497 -2.39801,-3.45105 1.30694,1.672 2.25806,3.125 4.50604,6.245 6.62402,9.46899 4.237,6.45398 8.094,13.15699 11.542,20.06501 0.86499,1.73199 1.70404,3.47601 2.51501,5.23297 0.22803,0.48999 2.80298,6.37604 0.91602,1.89001 1.50696,3.58197 2.87396,7.22901 4.14697,10.90198 2.56201,7.40002 4.67603,14.95599 6.323,22.61304 0.83203,3.86798 1.49701,7.75696 2.13501,11.66101 1.052,6.44195 -0.31098,-4.43604 0.24902,2.08795 0.17096,1.992 0.40399,3.97705 0.56,5.97003 0.63098,8.07501 0.75195,16.18897 0.36896,24.27899 -0.19397,4.12702 -0.60096,8.22303 -0.97297,12.33502 -0.61199,6.76099 0.80597,-4.25604 -0.31402,2.47999 -0.34497,2.07897 -0.68201,4.15698 -1.05597,6.23199 -2.08899,11.58099 3.15399,23.513 15.23401,26.832 10.56897,2.90399 24.72998,-3.57999 26.83295,-15.23502 z" />
      </g>
      <g
         style="opacity:1"
         id="g56"
         transform="translate(840.823,1144.354)">
        <path
           style="fill:#4b1e06;fill-opacity:1"
           inkscape:connector-curvature="0"
           id="path54"
           d="m 551.59302,-750.33099 c 0,0 -441.78002,0 -441.78002,0 0,0 -219.619,0 -219.619,0 0,0 -441.78098,0 -441.78098,0 -122.01702,0 -214.08801,110.75396 -191.79803,230.71698 0,0 191.05798,1028.25702 191.05798,1028.25702 2.00202,10.77398 3.91401,21.06298 5.72803,30.828 6.73102,36.229 23.39203,68.98199 47.21301,95.26398 23.81998,26.281 54.79898,46.091 90.167,56.43402 266.608,77.37896 555.095,80.81298 820.33798,-1.32801 34.97702,-10.50201 65.54901,-30.34198 89.04501,-56.53198 23.495,-26.19 39.91498,-58.73004 46.58801,-94.63605 1.771,-9.52697 3.633,-19.54895 5.57996,-30.02996 0,0 191.05804,-1028.25702 191.05804,-1028.25702 22.28998,-119.96302 -69.78002,-230.71698 -191.79699,-230.71698 z m 84.79297,302.25399 c 0,0 -163.55698,865.73099 -163.55698,865.73099 -1.66702,8.82401 -3.26001,17.262 -4.77701,25.28302 -5.712,30.23099 -19.76901,57.62699 -39.88199,79.67798 -20.11401,22.05103 -46.285,38.75403 -76.22702,47.59699 -227.06399,69.15802 -474.02599,66.26605 -702.259,1.11804 -30.276,-8.70905 -56.79599,-25.38703 -77.18799,-47.51502 -20.39099,-22.12701 -34.65399,-49.703 -40.41601,-80.20599 -1.55298,-8.22202 -3.18998,-16.88501 -4.90299,-25.95502 0,0 -163.557,-865.73099 -163.557,-865.73099 -19.08198,-101.00198 59.73602,-194.25003 164.18899,-194.25003 0,0 378.19101,0 378.19101,0 0,0 188.005997,0 188.005997,0 0,0 378.190993,0 378.190993,0 104.45303,0 183.26999,93.24805 164.189,194.25003 z" />
      </g>
      <g
         style="opacity:1"
         id="g60"
         transform="translate(839.82898,316.70801)">
        <path
           style="fill:#6c2f25;fill-opacity:1"
           inkscape:connector-curvature="0"
           id="path58"
           d="M 699.71002,-89.397003 C 694.19098,-116.99 687.92603,-144.52901 680.53497,-172 c -5.73498,-22.875 -21.96496,-40.041 -40.10296,-48.05099 -206.26902,-96.40702 -1074.59601,-96.40702 -1280.86304,0 -18.13898,8.00999 -34.36798,25.17599 -40.10394,48.05099 -7.39106,27.47099 -13.65601,55.01 -19.17505,82.602997 -16.55799,82.7700031 -26.40296,166.022003 -40.00696,249.274003 105.80896,70.569 230.84399,75.974 350.03799,99.15901 23.83201,4.63699 47.42298,9.98599 70.55198,16.70899 C -213.371,306.32501 -106.745,316.45801 0,313.82199 c 106.745,2.63602 213.371,-7.49698 319.12701,-38.07699 23.129,-6.723 46.72098,-12.072 70.55198,-16.70899 C 508.87299,235.851 633.90802,230.446 739.71698,159.877 726.112,76.625 716.26801,-6.6269999 699.71002,-89.397003 Z" />
      </g>
      <g
         style="opacity:1"
         id="g64"
         transform="translate(839.82599,327.633)">
        <path
           style="fill:#4b1e06;fill-opacity:1"
           inkscape:connector-curvature="0"
           id="path62"
           d="m 716.073,-104.832 c -5.18402,-25.795 -10.95899,-51.472 -17.66101,-76.91699 -5.93,-22.511 -16.58399,-41.48902 -35.474,-55.58 -15.44098,-11.51902 -35.69501,-17.93702 -53.91602,-23.803 -39.677,-12.77301 -80.91498,-20.711 -122.00897,-27.30902 -54.12701,-8.69 -108.68799,-14.69299 -163.30701,-19.26398 -61.384,-5.13601 -122.92199,-8.40002 -184.48599,-10.35702 -64.858,-2.06098 -129.7650001,-2.646 -194.65,-1.84101 -63.58,0.78803 -127.15099,2.90003 -190.62499,6.67301 -57.59201,3.42401 -115.137,8.16601 -172.40702,15.19 -48.091,5.897 -96.18698,13.03201 -143.402,24.05002 -18.00599,4.202 -35.909,8.98398 -53.42499,14.931 -21.646,7.351 -44.61402,15.70099 -60.409,32.93298 -16.74499,18.26801 -22.03198,40.86701 -27.76001,64.28701 -6.237,25.499 -11.638,51.197 -16.47998,76.994998 C -729.479,-34 -736.836,17.215 -744.39099,68.380997 -748.138,93.757004 -751.948,119.125 -756.073,144.442 c -1.28998,7.924 0.97699,14.64501 7.797,19.16001 80.06097,52.99398 174.54199,71.09899 267.707,86.11698 48.10599,7.75501 96.40301,15.15302 143.54199,27.73002 25.98801,6.93399 51.74201,14.32098 78.07202,19.927 26.69098,5.68399 53.609,10.108 80.66199,13.65799 52.514,6.89199 105.511002,9.67401 158.460999,9.17001 52.997002,-0.504 105.707001,0.159 158.570011,-4.741 53.79599,-4.98602 107.29599,-13.84301 159.617,-27.36102 25.57398,-6.608 50.79398,-14.18198 76.646,-19.71799 23.50598,-5.03399 47.195,-9.16 70.91299,-13.061 92.69501,-15.245 187.508,-27.985 271.42298,-73.14501 10.60302,-5.70599 20.906,-11.92999 30.94604,-18.57598 6.89801,-4.56601 9.07996,-11.282 7.797,-19.16001 -13.53003,-83.061999 -23.56604,-166.699999 -40.00702,-249.274 -1.78998,-8.991 -12.49298,-14.151 -20.86902,-11.849 -9.37299,2.576 -13.64496,11.852 -11.84998,20.869004 16.44202,82.573996 26.47699,166.211998 40.00702,249.274996 2.599,-6.387 5.19696,-12.773 7.797,-19.16001 C 653.17499,185.922 561.03198,202.589 470.31699,217.2 c -47.237,7.608 -94.65,14.91501 -140.95798,27.17399 -50.97,13.49402 -101.466,26.34201 -153.88301,33.09702 -51.584,6.64798 -103.641001,9.297 -155.636,8.802 -52.52,-0.5 -104.765003,0.17999 -157.157,-4.61102 -51.759,-4.73398 -103.10899,-13.55698 -153.41701,-26.64499 -25.095,-6.52899 -49.85998,-13.92 -75.23898,-19.35201 -23.50702,-5.03099 -47.19602,-9.16099 -70.913,-13.06099 -89.41302,-14.703 -182.362,-26.13099 -263.31799,-69.724 -10.60205,-5.71 -20.90601,-11.93099 -30.94604,-18.57701 2.59899,6.38701 5.19799,12.77301 7.79699,19.16001 16.41706,-100.789 27.64002,-202.589999 51.57904,-302.012 4.79297,-19.90699 7.724,-41.783 23.042,-56.64399 5.26898,-5.112 11.30297,-8.61 18.27398,-11.78501 1.565,-0.71299 3.14704,-1.38501 4.71204,-2.097 2.89197,-1.315 -2.09406,0.821 -1.04901,0.43599 1.039,-0.38299 2.05499,-0.849 3.08197,-1.26298 15.427,-6.21601 31.36102,-11.15001 47.40802,-15.48401 42.354,-11.441 85.78399,-18.872 129.19098,-24.97399 3.07,-0.431 6.14102,-0.85302 9.21301,-1.27001 -3.07199,0.41699 -0.12201,0.016 1.22299,-0.16099 1.926,-0.25302 3.853,-0.50601 5.78,-0.75402 6.36301,-0.82099 12.73001,-1.611 19.10101,-2.37098 13.43701,-1.604 26.88901,-3.08102 40.35199,-4.44702 28.233,-2.867 56.513,-5.259 84.818,-7.28299 61.30801,-4.384 122.73701,-7.07299 184.18401,-8.49301 63.777,-1.474 127.586999,-1.56698 191.368003,-0.29199 61.759997,1.23499 123.503997,3.742 185.137987,7.91101 55.302,3.73999 110.547,8.77799 165.49502,16.11099 -3.40802,-0.45501 0.641,0.09 1.909,0.26401 1.41498,0.194 2.83099,0.38999 4.245,0.58698 3.26699,0.457 6.53399,0.923 9.79898,1.39801 5.93402,0.86499 11.863,1.76101 17.78701,2.69201 11.52799,1.81299 23.03601,3.75899 34.512,5.87299 20.37201,3.752 40.66302,8.011 60.72998,13.16299 16.76202,4.30301 33.41302,9.20101 49.59802,15.34801 1.737,0.659 3.46802,1.33299 5.19202,2.024 0.77697,0.312 1.54998,0.633 2.32599,0.946 3.18499,1.28101 -1.01899,-0.461 -0.646,-0.281 4.68298,2.265 9.5,4.074 13.99597,6.75199 6.456,3.847 12.30701,9.06402 16.76502,15.59101 5.73303,8.393 8.13098,17.44101 10.66601,27.16501 6.39197,24.515 11.92597,49.24099 16.91699,74.074994 1.80701,8.987999 12.48298,14.154998 20.87,11.849998 9.35998,-2.573006 13.66101,-11.856003 11.849,-20.870002 z" />
      </g>
      <g
         style="opacity:1"
         id="g68"
         transform="translate(839.82397,327.63199)">
        <path
           style="fill:#4b1e06;fill-opacity:1"
           inkscape:connector-curvature="0"
           id="path66"
           d="m 720.74902,-106.12 c -5.18499,-25.79499 -10.96002,-51.472 -17.66204,-76.917 -6.26697,-23.79399 -17.75196,-43.657 -37.69996,-58.47701 -15.79803,-11.73498 -36.45202,-18.29599 -55.07605,-24.29199 -39.67498,-12.77301 -80.91497,-20.70999 -122.00796,-27.30899 -54.55502,-8.758 -109.54501,-14.83002 -164.59601,-19.436 -61.384,-5.13602 -122.922,-8.40101 -184.485,-10.35801 -64.859001,-2.061 -129.7659997,-2.64599 -194.651001,-1.841 -63.578999,0.78799 -127.150999,2.89999 -190.624999,6.673 -57.592,3.42398 -115.136,8.16599 -172.407,15.19001 -48.51901,5.95099 -97.05298,13.10699 -144.69,24.224 -18.00702,4.20199 -35.90997,8.983 -53.42499,14.931 -22.43103,7.617 -46.18103,16.32099 -62.54901,34.179 -17.35797,18.93699 -23.06403,42.13198 -29.00598,66.42599 -6.237,25.49899 -11.638,51.197 -16.47901,76.994996 -9.54199,50.844006 -16.89898,102.059004 -24.45404,153.225006 -3.74798,25.376 -7.55694,50.743998 -11.68097,76.061008 -1.66003,10.18799 1.25501,18.82998 10.02399,24.63398 80.41004,53.22501 175.29303,71.52201 268.86502,86.60601 48.10599,7.75499 96.40299,15.15199 143.54199,27.72999 25.98801,6.93402 51.74201,14.32001 78.072,19.927 27.11599,5.77402 54.46501,10.22703 81.94999,13.831 52.51601,6.88702 105.510012,9.673 158.461011,9.17001 52.996999,-0.505 105.706998,0.159 158.569999,-4.741 54.224,-5.026 108.16701,-13.90899 160.90599,-27.535 25.57501,-6.60699 50.793,-14.181 76.64502,-19.71701 23.50699,-5.034 47.19598,-9.16 70.91299,-13.061 93.16303,-15.32299 188.24402,-28.24698 272.581,-73.63399 10.604,-5.706 20.90698,-11.92999 30.94598,-18.57601 8.87,-5.86999 11.67505,-14.50599 10.02502,-24.63398 C 747.22498,60.091999 737.18903,-23.546 720.74902,-106.12 c -2.302,-11.56 -16.06305,-18.194 -26.833,-15.235 -12.04999,3.312 -17.54303,15.239 -15.23401,26.831997 16.44,82.574003 26.47601,166.213005 40.00598,249.275003 3.341,-8.211 6.68298,-16.422 10.02399,-24.633 -39.08295,25.86901 -78.82697,42.359 -123.612,54.92301 -44.60895,12.51399 -90.38697,20.127 -136.06998,27.48399 -47.237,7.608 -94.65,14.91499 -140.95801,27.174 -50.44,13.354 -101.21699,26.33699 -152.59399,32.92399 -51.594,6.61502 -103.634998,9.297 -155.637,8.802 -52.520001,-0.5 -104.765004,0.18 -157.15699,-4.61099 -51.209,-4.68301 -102.03301,-13.43799 -152.12801,-26.472 -25.09601,-6.529 -49.85999,-13.92 -75.23901,-19.351 -23.50699,-5.031 -47.19599,-9.16101 -70.913,-13.06201 C -524.836,203.256 -618.63599,191.299 -697.75598,148.69501 c -10.60199,-5.71001 -20.90601,-11.931 -30.94605,-18.57601 3.34101,8.211 6.68201,16.422 10.02405,24.633 16.41797,-100.788999 27.63996,-202.590001 51.57898,-302.01199 2.84198,-11.80101 5.357,-23.95101 9.258,-35.45801 2.16998,-6.401 6.84503,-13.524 12.53802,-19.047 1.50897,-1.464 3.081,-2.884 4.72296,-4.198 -2.56598,2.052 1.44702,-0.888 2.292,-1.42601 3.28399,-2.08499 6.74401,-3.79399 10.27801,-5.403 1.56403,-0.71299 3.146,-1.38798 4.71204,-2.097 3.39495,-1.53499 -3.55005,1.442 -2.20703,0.92401 1.03503,-0.39801 2.05297,-0.848 3.08203,-1.26201 15.427,-6.21598 31.35998,-11.14999 47.40698,-15.48399 42.354,-11.44099 85.785,-18.87199 129.19198,-24.974 3.068,-0.432 6.13501,-0.91198 9.21302,-1.27099 -3.427,0.39999 -2.93302,0.389 -0.066,0.013 1.92599,-0.25302 3.85299,-0.50602 5.78,-0.75501 6.363,-0.82001 12.73001,-1.61001 19.10199,-2.36999 13.436,-1.60501 26.888,-3.081 40.35202,-4.448 28.23199,-2.866 56.51199,-5.258 84.81698,-7.28201 61.30901,-4.38401 122.737,-7.073 184.18501,-8.49299 63.775999,-1.475 127.586,-1.56701 191.367003,-0.29202 61.760997,1.23502 123.504997,3.74201 185.137997,7.91001 55.19699,3.733 110.73699,8.02999 165.496,16.112 -4.07599,-0.60099 -2.327,-0.314 0.61999,0.09 1.41501,0.19501 2.83002,0.39102 4.245,0.58801 3.267,0.45701 6.53402,0.92299 9.79901,1.398 5.93301,0.865 11.86301,1.761 17.78699,2.692 11.527,1.813 23.035,3.758 34.51202,5.873 20.37201,3.752 40.664,8.011 60.72998,13.162 16.76202,4.30401 33.41199,9.20099 49.599,15.348 1.73602,0.66 3.466,1.334 5.19104,2.02501 0.77594,0.31199 1.54895,0.63499 2.32599,0.94499 3.81799,1.528 -2.474,-1.079 -1.80499,-0.76799 4.71295,2.185 9.51495,4.08198 13.99694,6.752 1.76105,1.04899 3.474,2.18199 5.14203,3.37399 -2.67401,-1.912 1.31702,1.17599 2.068,1.865 1.83502,1.67901 3.578,3.45701 5.22998,5.314 0.71502,0.804 1.43499,1.614 2.10205,2.45799 -1.43903,-1.82199 -0.0681,-0.043 0.48395,0.84101 5.78399,9.261 7.10504,14.223 10.17803,26.007 6.39002,24.51401 11.92499,49.24 16.917,74.073997 2.32202,11.556 16.04699,18.199006 26.83197,15.236 12.03399,-3.307998 17.56305,-15.244995 15.23504,-26.832997 z" />
      </g>
      <g
         style="opacity:1"
         id="g72"
         transform="translate(840.82501,581.41101)">
        <path
           style="fill:#8e4331;fill-opacity:1"
           inkscape:connector-curvature="0"
           id="path70"
           d="m 739.64697,-129.315 c -28.09796,1.759 -56.18194,3.547 -84.25696,5.336 -28.07501,1.789 -56.14001,3.58 -84.20404,5.344 -302.69598,20.127996 -606.135971,32.731001 -909.12896,13.705 -33.51902,-1.756 -67.02201,-3.67 -100.51401,-5.676 -100.47501,-6.016 -200.84,-12.854 -301.189,-18.709 0,0 -20.583,46.643003 -41.16497,93.286001 -20.58301,46.641999 -41.16602,93.285 -41.16602,93.285 0,0 43.258,7.379001 116.95898,17.040996 90.65699,12.077004 182.32001,21.777 274.58701,29.101003 30.73499,2.441 61.53601,4.619 92.32901,6.533 303.151989,19.384 608.53,12.598 911.31201,-20.030998 25.24896,-2.681 48.98798,-5.374001 71.02497,-8 22.03002,-2.626999 42.35803,-5.188004 60.78302,-7.603005 73.70098,-9.661995 116.95898,-17.040996 116.95898,-17.040996 0,0 -20.58197,-46.643001 -41.16498,-93.285 C 760.229,-82.671997 739.64697,-129.315 739.64697,-129.315 Z" />
      </g>
      <g
         style="opacity:1"
         id="g76"
         transform="translate(840.82501,576.75299)">
        <path
           style="fill:#4b1e06;fill-opacity:1"
           inkscape:connector-curvature="0"
           id="path74"
           d="M 739.64697,-141.62199 C 547.35699,-129.577 355.16,-115.94 162.53,-110.546 c -95.933,2.686 -191.926,3.53 -287.883,1.775 -96.92199,-1.772 -193.65799,-7.135 -290.41501,-12.798 -107.98101,-6.321 -215.89599,-13.741 -323.87799,-20.05299 -5.35998,-0.31301 -12.41497,3.33899 -14.64898,8.403 -27.44403,62.189991 -54.888,124.3799903 -82.331,186.570991 -3.94903,8.947998 -1.755,22.897 10.13898,24.922001 87.104,14.828995 175.16101,25.267998 263.00702,34.490998 120.67197,12.67 241.81799,21.20801 363.06499,25.78999 122.209988,4.61701 244.579991,5.00301 366.81698,1.19301 121.81401,-3.797 243.498,-11.761 364.76903,-23.862 96.888,-9.668 193.815,-20.998 289.927,-36.718001 1.797,-0.293998 3.594,-0.587997 5.38996,-0.893997 11.893,-2.025001 14.08703,-15.974003 10.138,-24.922001 -27.443,-62.1910007 -54.88599,-124.381 -82.331,-186.570991 -3.69897,-8.38401 -15.94195,-10.33901 -23.211,-6.08701 -8.643,5.056 -9.79998,14.796 -6.08599,23.212 C 752.44098,-53.903 779.88397,8.2869997 807.328,70.476997 810.70801,62.169998 814.08698,53.862 817.46698,45.555 736.54797,59.331001 654.802,68.870003 573.21002,77.592003 452.54599,90.491997 331.49399,99.491997 210.233,104.271 89.095001,109.045 -32.206001,109.691 -153.38699,106.192 -274.086,102.707 -394.716,95.185997 -514.91803,83.703003 -614.24103,74.213997 -713.591,62.556999 -812.078,46.449001 c -1.797,-0.294002 -3.594,-0.589 -5.38898,-0.894001 3.38,8.307 6.76001,16.614998 10.13898,24.921997 27.44403,-62.1899973 54.888,-124.379997 82.33099,-186.570997 -4.88299,2.801 -9.76599,5.602 -14.64899,8.403 192.67402,11.261999 385.32599,27.199003 578.31,32.068998 193.041,4.870003 386.189,-1.192001 578.93799,-11.942001 C 524.992,-93.554001 632.30103,-100.967 739.64697,-107.691 c 9.14606,-0.573 16.96503,-7.388 16.96503,-16.966 0,-8.74 -7.77399,-17.541 -16.96503,-16.96499 z" />
      </g>
      <g
         style="opacity:1"
         id="g80"
         transform="translate(840.82703,577.10999)">
        <path
           style="fill:#4b1e06;fill-opacity:1"
           inkscape:connector-curvature="0"
           id="path78"
           d="m 780.81,-31.729 c -20.58301,-46.643002 -41.16498,-93.285 -41.16498,-93.285 -28.09802,1.759 -56.18201,3.547 -84.25702,5.336 -28.07397,1.79 -56.14001,3.58 -84.203,5.344 -302.69699,20.128998 -606.137,32.732003 -909.13001,13.706 -33.51898,-1.757 -67.022,-3.671 -100.514,-5.677 -100.47501,-6.016 -200.84,-12.854 -301.189,-18.709 0,0 -20.58301,46.641998 -41.16498,93.285 -20.58301,46.643 -41.16601,93.286999 -41.16601,93.286999 0,0 43.25799,7.377998 116.95898,17.040001 90.65704,12.077003 182.32001,21.776 274.58701,29.1 30.73501,2.442 61.53701,4.619 92.32901,6.533 303.152,19.38401 608.52999,12.599 911.31298,-20.030004 25.24799,-2.679992 48.987,-5.372993 71.02399,-8 C 666.263,83.573997 686.591,81.014 705.01599,78.598 778.71802,68.935997 821.97498,61.557999 821.97498,61.557999 c 0,0 -20.58295,-46.643999 -41.16498,-93.286999 z m -62.49597,70.959999 c 0,0 -37.80201,4.704002 -102.20801,10.861 C 600.00299,51.632 582.23999,53.264 562.987,54.938 543.729,56.611 522.98401,58.327999 500.92001,60.035999 236.323,80.831001 -30.544001,85.155998 -295.465,72.802002 -322.37399,71.583 -349.29099,70.195 -376.14999,68.639 -456.78101,63.971001 -536.88397,57.789001 -616.10901,50.091999 c -64.40698,-6.156998 -102.20898,-10.861 -102.20898,-10.861 0,0 50.31299,-118.902996 50.31299,-118.902996 87.69403,3.730995 197.03701,8.087997 284.83999,11.922996 29.26901,1.278 58.547,2.499001 87.83902,3.618004 264.781989,12.124996 529.954,4.092999 794.47699,-8.735 24.52399,-1.124001 49.05103,-2.265 73.58502,-3.405007 24.534,-1.140999 70.12696,-2.279999 94.68097,-3.400993" />
      </g>
    </g>
    <g
       id="g104"
       style="display:block;opacity:1"
       transform="translate(1830.9402,1869.3042)">
      <g
         style="opacity:1"
         id="g86"
         transform="translate(586.34003,138.979)">
        <path
           style="fill:#f80101;fill-opacity:1"
           inkscape:connector-curvature="0"
           id="path84"
           d="m -0.033,-35.668999 c -31.981999,0.031 -57.892999,16.025 -57.874001,35.723999 0.02,19.698 25.961002,35.641999 57.942001,35.611 31.981998,-0.03 57.891998,-16.024 57.873001,-35.723 -0.019,-19.699001 -25.961,-35.643001 -57.941001,-35.611999 z" />
      </g>
      <g
         style="opacity:1"
         id="g90"
         transform="translate(57.904999,138.98399)">
        <path
           style="fill:#f80101;fill-opacity:1"
           inkscape:connector-curvature="0"
           id="path88"
           d="m -0.036,-35.667 c -31.980998,0.031 -57.892001,16.025999 -57.873,35.725 0.019,19.698001 25.960001,35.642001 57.942,35.610999 C 32.014,35.638 57.924999,19.645 57.905998,-0.054 57.887001,-19.753 31.945,-35.698002 -0.036,-35.667 Z" />
      </g>
      <g
         style="opacity:1"
         id="g94"
         transform="translate(323.83899,257.112)">
        <path
           style="fill:#4b1e06;fill-opacity:1"
           inkscape:connector-curvature="0"
           id="path92"
           d="M -146.73399,-17.861 C -119.322,16.096001 -79.293999,40.32 -36.356998,48.424 7.4180002,56.685001 52.693001,50.299 92.079002,29.259001 113.841,17.635 133.464,1.326 148.953,-17.861 c 3.61701,-4.480999 6.14901,-8.863001 6.14901,-14.848 0,-5.150001 -2.28602,-11.302002 -6.14901,-14.847999 -7.65001,-7.022 -22.329,-9.126999 -29.697,0 -6.441,7.979 -13.506,15.425998 -21.234996,22.168999 -1.886002,1.645999 -3.827004,3.218 -5.762001,4.805999 -3.495003,2.869002 3.961998,-2.899999 0.318,-0.240999 -1,0.729 -1.988006,1.473999 -2.994003,2.194 -3.991997,2.86 -8.108002,5.545 -12.335998,8.044 C 73.412003,-8.3170004 69.488998,-6.2030001 65.486,-4.2470002 63.314999,-3.1849999 61.112,-2.198 58.91,-1.206 54.855999,0.62 63.627998,-3.0580001 59.486,-1.4579999 57.992001,-0.88099998 56.506001,-0.28200001 55.002998,0.27399999 46.414001,3.4560001 37.569,5.9400001 28.58,7.7010002 26.246,8.158 23.900999,8.5670004 21.549,8.9280005 c -1.596001,0.2439994 -5.634,0.2609996 0.874,-0.096001 -1.176,0.064 -2.367,0.283 -3.540001,0.4040003 C 14.161,9.7259998 9.415,10.02 4.6680002,10.118 0.12,10.213 -4.4299998,10.126 -8.9720001,9.8599997 -11.145,9.7320004 -13.315,9.5640001 -15.482,9.3540001 c -1.182,-0.1140003 -2.361,-0.2560005 -3.542,-0.3789997 -3.809,-0.3940001 5.546,0.8479996 -0.306999,-0.047 -9.431,-1.4440003 -18.74,-3.6740003 -27.798003,-6.6700006 C -49.026001,1.63 -50.910999,0.96899998 -52.785,0.27399999 -54.452,-0.34299999 -61.826,-3.865 -55.585999,-0.727 -59.907001,-2.9000001 -64.388,-4.7199998 -68.664001,-7.0050001 -73.693001,-9.691 -78.584999,-12.633 -83.316002,-15.817 c -2.046997,-1.377 -4.064995,-2.800001 -6.049995,-4.267 -1.365006,-1.007999 -3.583,-3.735 0.300995,0.275 -1.123002,-1.16 -2.633995,-2.101 -3.876999,-3.138001 -8.842999,-7.375 -16.866999,-15.654001 -24.096999,-24.609998 -6.93,-8.584999 -22.58,-7.751 -29.69499,0 -8.36802,9.115997 -7.39402,20.536999 0,29.695999 z" />
      </g>
      <g
         style="opacity:1"
         id="g98"
         transform="translate(95.514,38.285)">
        <path
           style="fill:#4b1e06;fill-opacity:1"
           inkscape:connector-curvature="0"
           id="path96"
           d="M -67.053001,1.638 C -50.942001,21.374001 -25.657,32.834999 -0.26499999,32.834999 25.129,32.834999 50.409,21.375999 66.523003,1.638 c 6.163993,-7.5510001 7.938995,-19.109001 0,-26.397001 -6.833004,-6.271999 -19.804001,-8.076998 -26.397004,0 C 36.879002,-20.782 32.658001,-17.795 29.364,-13.982 c 2.623,-3.036 1.274,-0.979 -0.189001,0.028 -1.007999,0.693 -2.035999,1.359 -3.08,1.997 C 24.017,-10.688 21.854,-9.6300001 19.698,-8.5059996 c -3.236,1.6879998 3.749001,-1.2980003 0.043,0.016 C 18.614001,-8.09 17.502002,-7.655 16.364001,-7.28 c -2.075,0.6830001 -4.182,1.263 -6.312,1.7460003 -1.1590004,0.263 -2.329,0.4579997 -3.493,0.6960001 -4.2439999,0.8699999 2.0240002,-0.001 0.2659998,-0.021 -2.3459997,-0.026 -4.7299998,0.3650002 -7.08999979,0.3640003 -2.17800011,-9.999e-4 -4.33100021,-0.1860003 -6.50300011,-0.303 -3.9769999,-0.2140002 3.894,0.757 0.2620001,0.061 -1.1659999,-0.224 -2.3370004,-0.415 -3.498,-0.6669998 -2.327,-0.5050001 -4.629,-1.132 -6.891,-1.8760004 -1.138001,-0.375 -2.251,-0.8039994 -3.378001,-1.2099996 -3.921999,-1.4130001 3.757,1.9119997 0.044,-0.016 -2.157,-1.1200008 -4.319,-2.1810009 -6.398001,-3.4510009 -1.043999,-0.638 -2.070999,-1.304 -3.078998,-1.997 -0.335001,-0.236 -0.671002,-0.471 -1.007,-0.706 -1.608,-1.186999 -1.336001,-0.961 0.819,0.678001 -1.439001,-0.181 -4.090002,-3.531 -5.159002,-4.581 -1.993,-1.955999 -3.837998,-4.034 -5.602997,-6.196001 -6.201,-7.595999 -20.047001,-6.917 -26.397003,0 -7.407998,8.069 -6.614998,18.2930004 0,26.397 z" />
      </g>
      <g
         style="opacity:1"
         id="g102"
         transform="translate(543.77301,35.685001)">
        <path
           style="fill:#4b1e06;fill-opacity:1"
           inkscape:connector-curvature="0"
           id="path100"
           d="M -65.492996,4.2379999 C -49.379002,23.974001 -24.096001,35.435001 1.2970001,35.435001 26.691999,35.435001 51.972,23.976 68.084,4.2379999 74.248001,-3.313 76.024002,-14.871 68.083,-22.159 55.001999,-35.435001 39.715,-21.24 30.98,-11.413 c 0,0 1.093002,-1.092 1.093002,-1.092 C 28.797001,-9.2290001 24.43,-7.046 20.062,-4.862 c 0,-1.0910001 1.091,-1.0910001 2.183001,-1.0910001 C 16.785,-4.862 12.418,-2.678 6.9580002,-1.586 c 1.092,0 1.0929994,0 1.0929994,-1.092 -4.3669996,2.18400001 -9.8279996,1.092 -14.1949997,0 0,2.18400001 1.0920001,0 2.1840001,1.092 -5.4589997,-2.184 -10.92,-3.276 -16.379001,-4.3670001 0,0 2.184,0 2.184,0 C -22.523001,-7.046 -25.799,-11.413 -30.166,-12.505 c 1.092001,0 1.093,1.092 2.184999,1.092 -8.735998,-5.459 -13.103998,-17.471001 -26.205999,-16.378 -15.286999,1.092001 -21.837002,21.8379999 -11.305996,32.0289999 z" />
      </g>
    </g>
  </g>
</svg>
