<?xml version="1.0" encoding="UTF-8" standalone="no"?>
<!-- Created with Inkscape (http://www.inkscape.org/) -->

<svg
   xmlns:dc="http://purl.org/dc/elements/1.1/"
   xmlns:cc="http://creativecommons.org/ns#"
   xmlns:rdf="http://www.w3.org/1999/02/22-rdf-syntax-ns#"
   xmlns:svg="http://www.w3.org/2000/svg"
   xmlns="http://www.w3.org/2000/svg"
   xmlns:sodipodi="http://sodipodi.sourceforge.net/DTD/sodipodi-0.dtd"
   xmlns:inkscape="http://www.inkscape.org/namespaces/inkscape"
   width="42.473057mm"
   height="75.993011mm"
   viewBox="0 0 42.473057 75.993011"
   version="1.1"
   id="svg887"
   inkscape:version="0.92.5 (2060ec1f9f, 2020-04-08)"
   sodipodi:docname="device_phone.svg">
  <defs
     id="defs881" />
  <sodipodi:namedview
     id="base"
     pagecolor="#ffffff"
     bordercolor="#666666"
     borderopacity="1.0"
     inkscape:pageopacity="0.0"
     inkscape:pageshadow="2"
     inkscape:zoom="1.979899"
     inkscape:cx="84.474227"
     inkscape:cy="142.78827"
     inkscape:document-units="mm"
     inkscape:current-layer="g8856"
     showgrid="false"
     inkscape:window-width="1296"
     inkscape:window-height="745"
     inkscape:window-x="62"
     inkscape:window-y="-8"
     inkscape:window-maximized="1" />
  <metadata
     id="metadata884">
    <rdf:RDF>
      <cc:Work
         rdf:about="">
        <dc:format>image/svg+xml</dc:format>
        <dc:type
           rdf:resource="http://purl.org/dc/dcmitype/StillImage" />
        <dc:title></dc:title>
      </cc:Work>
    </rdf:RDF>
  </metadata>
  <g
     inkscape:label="Layer 1"
     inkscape:groupmode="layer"
     id="layer1"
     transform="translate(-70.989706,-58.676113)">
    <g
       transform="matrix(0.52254015,0,0,0.52254015,-1569.5774,-709.56239)"
       id="g8856"
       style="fill-rule:evenodd">
      <rect
         x="3139.6001"
         y="1470.2"
         width="81.244003"
         height="145.42999"
         ry="6.6655998"
         id="rect8842"
         style="fill:#ffffff" />
      <rect
         x="3142.2"
         y="1483.5"
         width="76.518997"
         height="116.29"
         id="rect8844"
         style="fill:#cccccc" />
      <rect
         x="3164.6001"
         y="1474.7"
         width="2.3009"
         height="2.2751999"
         ry="1.0045"
         id="rect8846"
         style="fill:#b3b3b3" />
      <rect
         x="3171.3999"
         y="1474.9"
         width="17.426001"
         height="1.9899"
         ry="0.41455999"
         id="rect8848"
         style="fill:#b3b3b3" />
      <path
         d="m 3180.3,1602.9 a 5.3773,5.3773 0 0 0 -5.3777,5.3776 5.3773,5.3773 0 0 0 5.3777,5.3776 5.3773,5.3773 0 0 0 5.3776,-5.3776 5.3773,5.3773 0 0 0 -5.3776,-5.3776 z m 0,1.5225 a 3.8554,3.8554 0 0 1 3.855,3.8551 3.8554,3.8554 0 0 1 -3.855,3.8551 3.8554,3.8554 0 0 1 -3.8551,-3.8551 3.8554,3.8554 0 0 1 3.8551,-3.8551 z"
         id="path8850"
         inkscape:connector-curvature="0"
         style="fill:#b3b3b3" />
      <rect
         x="3143.7"
         y="1484.8"
         width="75.018997"
         height="114.91"
         id="rect8852"
         style="fill:#b3b3b3" />
      <path
         d="m 3160.2,1470.2 60.682,126.33 v -119.66 c 0,-3.6927 -2.9714,-6.6641 -6.6641,-6.6641 h -54.018 z"
         id="path8854"
         inkscape:connector-curvature="0"
         style="display:none;fill:#ffffff;fill-opacity:0.20497" />
    </g>
  </g>
</svg>
