<?xml version="1.0" encoding="UTF-8" standalone="no"?>
<svg
   xmlns:dc="http://purl.org/dc/elements/1.1/"
   xmlns:cc="http://creativecommons.org/ns#"
   xmlns:rdf="http://www.w3.org/1999/02/22-rdf-syntax-ns#"
   xmlns:svg="http://www.w3.org/2000/svg"
   xmlns="http://www.w3.org/2000/svg"
   id="svg887"
   version="1.1"
   viewBox="0 0 42.473057 75.993011"
   height="75.993011mm"
   width="42.473057mm">
  <defs
     id="defs881" />
  <metadata
     id="metadata884">
    <rdf:RDF>
      <cc:Work
         rdf:about="">
        <dc:format>image/svg+xml</dc:format>
        <dc:type
           rdf:resource="http://purl.org/dc/dcmitype/StillImage" />
        <dc:title></dc:title>
      </cc:Work>
    </rdf:RDF>
  </metadata>
  <g
     transform="translate(-70.989706,-58.676113)"
     id="layer1">
    <g
       style="fill-rule:evenodd"
       id="g8856"
       transform="matrix(0.52254015,0,0,0.52254015,-1569.5774,-709.56239)">
      <rect
         style="fill:#ffffff"
         id="rect8842"
         ry="6.6655998"
         height="145.42999"
         width="81.244003"
         y="1470.2"
         x="3139.6001" />
      <rect
         style="fill:#cccccc"
         id="rect8844"
         height="116.29"
         width="76.518997"
         y="1483.5"
         x="3142.2" />
      <rect
         style="fill:#b3b3b3"
         id="rect8846"
         ry="1.0045"
         height="2.2751999"
         width="2.3009"
         y="1474.7"
         x="3164.6001" />
      <rect
         style="fill:#b3b3b3"
         id="rect8848"
         ry="0.41455999"
         height="1.9899"
         width="17.426001"
         y="1474.9"
         x="3171.3999" />
      <path
         style="fill:#b3b3b3"
         id="path8850"
         d="m 3180.3,1602.9 a 5.3773,5.3773 0 0 0 -5.3777,5.3776 5.3773,5.3773 0 0 0 5.3777,5.3776 5.3773,5.3773 0 0 0 5.3776,-5.3776 5.3773,5.3773 0 0 0 -5.3776,-5.3776 z m 0,1.5225 a 3.8554,3.8554 0 0 1 3.855,3.8551 3.8554,3.8554 0 0 1 -3.855,3.8551 3.8554,3.8554 0 0 1 -3.8551,-3.8551 3.8554,3.8554 0 0 1 3.8551,-3.8551 z" />
      <rect
         style="fill:#b3b3b3"
         id="rect8852"
         height="114.91"
         width="75.018997"
         y="1484.8"
         x="3143.7" />
      <path
         style="display:none;fill:#ffffff;fill-opacity:0.20497"
         id="path8854"
         d="m 3160.2,1470.2 60.682,126.33 v -119.66 c 0,-3.6927 -2.9714,-6.6641 -6.6641,-6.6641 h -54.018 z" />
    </g>
  </g>
</svg>
